G04 #@! TF.GenerationSoftware,KiCad,Pcbnew,7.0.8*
G04 #@! TF.CreationDate,2023-12-22T21:50:32-07:00*
G04 #@! TF.ProjectId,Sandbox,53616e64-626f-4782-9e6b-696361645f70,rev?*
G04 #@! TF.SameCoordinates,Original*
G04 #@! TF.FileFunction,Copper,L1,Top*
G04 #@! TF.FilePolarity,Positive*
%FSLAX46Y46*%
G04 Gerber Fmt 4.6, Leading zero omitted, Abs format (unit mm)*
G04 Created by KiCad (PCBNEW 7.0.8) date 2023-12-22 21:50:32*
%MOMM*%
%LPD*%
G01*
G04 APERTURE LIST*
G04 #@! TA.AperFunction,ComponentPad*
%ADD10R,1.500000X1.050000*%
G04 #@! TD*
G04 #@! TA.AperFunction,ComponentPad*
%ADD11O,1.500000X1.050000*%
G04 #@! TD*
G04 #@! TA.AperFunction,ComponentPad*
%ADD12C,2.000000*%
G04 #@! TD*
G04 #@! TA.AperFunction,ComponentPad*
%ADD13C,1.600000*%
G04 #@! TD*
G04 #@! TA.AperFunction,ComponentPad*
%ADD14O,1.600000X1.600000*%
G04 #@! TD*
G04 #@! TA.AperFunction,ComponentPad*
%ADD15R,1.800000X1.800000*%
G04 #@! TD*
G04 #@! TA.AperFunction,ComponentPad*
%ADD16C,1.800000*%
G04 #@! TD*
G04 #@! TA.AperFunction,ViaPad*
%ADD17C,0.800000*%
G04 #@! TD*
G04 #@! TA.AperFunction,Conductor*
%ADD18C,0.250000*%
G04 #@! TD*
G04 #@! TA.AperFunction,Conductor*
%ADD19C,0.750000*%
G04 #@! TD*
G04 APERTURE END LIST*
D10*
X700335000Y-449840000D03*
D11*
X700335000Y-448570000D03*
X700335000Y-447300000D03*
D12*
X666250000Y-434500000D03*
X672750000Y-434500000D03*
X666250000Y-439000000D03*
X672750000Y-439000000D03*
D13*
X700335000Y-434220000D03*
D14*
X700335000Y-444380000D03*
D12*
X665750000Y-451500000D03*
X672250000Y-451500000D03*
X665750000Y-456000000D03*
X672250000Y-456000000D03*
D13*
X679845001Y-451250000D03*
D14*
X690005001Y-451250000D03*
D13*
X725670000Y-446000000D03*
D14*
X735830000Y-446000000D03*
D13*
X679845001Y-438750001D03*
D14*
X690005001Y-438750001D03*
D10*
X700335000Y-455320000D03*
D11*
X700335000Y-454050000D03*
X700335000Y-452780000D03*
D15*
X722250000Y-445750000D03*
D16*
X719710000Y-445750000D03*
D10*
X707195000Y-449820000D03*
D11*
X707195000Y-448550000D03*
X707195000Y-447280000D03*
D17*
X716000000Y-446000000D03*
D18*
X672750000Y-434500000D02*
X700115000Y-434500000D01*
X665750000Y-451500000D02*
X672250000Y-451500000D01*
X672250000Y-446500000D02*
X670000000Y-444250000D01*
X666250000Y-434500000D02*
X672750000Y-434500000D01*
X700115000Y-434000000D02*
X700335000Y-434220000D01*
X670750000Y-434500000D02*
X672750000Y-434500000D01*
X670250000Y-444500000D02*
X670000000Y-444250000D01*
X672250000Y-451500000D02*
X672250000Y-446500000D01*
X670000000Y-444250000D02*
X670000000Y-435250000D01*
X670000000Y-435250000D02*
X670750000Y-434500000D01*
X725420000Y-445750000D02*
X725670000Y-446000000D01*
X722250000Y-445750000D02*
X725420000Y-445750000D01*
D19*
X719460000Y-446000000D02*
X719710000Y-445750000D01*
X713355000Y-449820000D02*
X707195000Y-449820000D01*
X716000000Y-447175000D02*
X713355000Y-449820000D01*
X716000000Y-446000000D02*
X716000000Y-447175000D01*
X716000000Y-446000000D02*
X719460000Y-446000000D01*
D18*
X679595000Y-438500000D02*
X679845001Y-438750001D01*
X672750000Y-439000000D02*
X679595000Y-439000000D01*
X675095001Y-456000000D02*
X679845001Y-451250000D01*
X672250000Y-456000000D02*
X675095001Y-456000000D01*
G04 #@! TA.AperFunction,Conductor*
G36*
X737942539Y-430270185D02*
G01*
X737988294Y-430322989D01*
X737999500Y-430374500D01*
X737999500Y-462875500D01*
X737979815Y-462942539D01*
X737927011Y-462988294D01*
X737875500Y-462999500D01*
X658874500Y-462999500D01*
X658807461Y-462979815D01*
X658761706Y-462927011D01*
X658750500Y-462875500D01*
X658750500Y-456000005D01*
X664244357Y-456000005D01*
X664264890Y-456247812D01*
X664264892Y-456247824D01*
X664325936Y-456488881D01*
X664425826Y-456716606D01*
X664561833Y-456924782D01*
X664561836Y-456924785D01*
X664730256Y-457107738D01*
X664926491Y-457260474D01*
X665145190Y-457378828D01*
X665380386Y-457459571D01*
X665625665Y-457500500D01*
X665874335Y-457500500D01*
X666119614Y-457459571D01*
X666354810Y-457378828D01*
X666573509Y-457260474D01*
X666769744Y-457107738D01*
X666938164Y-456924785D01*
X667074173Y-456716607D01*
X667174063Y-456488881D01*
X667235108Y-456247821D01*
X667238889Y-456202190D01*
X667255643Y-456000005D01*
X670744357Y-456000005D01*
X670764890Y-456247812D01*
X670764892Y-456247824D01*
X670825936Y-456488881D01*
X670925826Y-456716606D01*
X671061833Y-456924782D01*
X671061836Y-456924785D01*
X671230256Y-457107738D01*
X671426491Y-457260474D01*
X671645190Y-457378828D01*
X671880386Y-457459571D01*
X672125665Y-457500500D01*
X672374335Y-457500500D01*
X672619614Y-457459571D01*
X672854810Y-457378828D01*
X673073509Y-457260474D01*
X673269744Y-457107738D01*
X673438164Y-456924785D01*
X673574173Y-456716607D01*
X673574175Y-456716603D01*
X673581595Y-456699689D01*
X673626551Y-456646203D01*
X673693287Y-456625514D01*
X673695150Y-456625500D01*
X675012258Y-456625500D01*
X675027878Y-456627224D01*
X675027905Y-456626939D01*
X675035661Y-456627671D01*
X675035668Y-456627673D01*
X675104815Y-456625500D01*
X675134351Y-456625500D01*
X675141229Y-456624630D01*
X675147042Y-456624172D01*
X675193628Y-456622709D01*
X675212870Y-456617117D01*
X675231913Y-456613174D01*
X675251793Y-456610664D01*
X675295123Y-456593507D01*
X675300647Y-456591617D01*
X675304397Y-456590527D01*
X675345391Y-456578618D01*
X675362630Y-456568422D01*
X675380104Y-456559862D01*
X675398728Y-456552488D01*
X675398728Y-456552487D01*
X675398733Y-456552486D01*
X675436450Y-456525082D01*
X675441306Y-456521892D01*
X675481421Y-456498170D01*
X675495590Y-456483999D01*
X675510380Y-456471368D01*
X675526588Y-456459594D01*
X675556300Y-456423676D01*
X675560213Y-456419376D01*
X677929590Y-454050000D01*
X699079538Y-454050000D01*
X699099337Y-454251031D01*
X699158486Y-454446018D01*
X699159109Y-454515885D01*
X699144902Y-454544589D01*
X699145895Y-454545132D01*
X699141645Y-454552913D01*
X699091403Y-454687620D01*
X699091401Y-454687627D01*
X699085000Y-454747155D01*
X699085000Y-455070000D01*
X700000729Y-455070000D01*
X700006809Y-455070299D01*
X700042776Y-455073841D01*
X700051145Y-455074665D01*
X700016722Y-455112059D01*
X699966449Y-455226670D01*
X699956114Y-455351395D01*
X699986837Y-455472719D01*
X700050394Y-455570000D01*
X699085000Y-455570000D01*
X699085000Y-455892844D01*
X699091401Y-455952372D01*
X699091403Y-455952379D01*
X699141645Y-456087086D01*
X699141649Y-456087093D01*
X699227809Y-456202187D01*
X699227812Y-456202190D01*
X699342906Y-456288350D01*
X699342913Y-456288354D01*
X699477620Y-456338596D01*
X699477627Y-456338598D01*
X699537155Y-456344999D01*
X699537172Y-456345000D01*
X700085000Y-456345000D01*
X700085000Y-455600617D01*
X700154052Y-455654363D01*
X700272424Y-455695000D01*
X700366073Y-455695000D01*
X700458446Y-455679586D01*
X700568514Y-455620019D01*
X700585000Y-455602110D01*
X700585000Y-456345000D01*
X701132828Y-456345000D01*
X701132844Y-456344999D01*
X701192372Y-456338598D01*
X701192379Y-456338596D01*
X701327086Y-456288354D01*
X701327093Y-456288350D01*
X701442187Y-456202190D01*
X701442190Y-456202187D01*
X701528350Y-456087093D01*
X701528354Y-456087086D01*
X701578596Y-455952379D01*
X701578598Y-455952372D01*
X701584999Y-455892844D01*
X701585000Y-455892827D01*
X701585000Y-455570000D01*
X700614560Y-455570000D01*
X700653278Y-455527941D01*
X700703551Y-455413330D01*
X700713886Y-455288605D01*
X700683163Y-455167281D01*
X700622424Y-455074313D01*
X700627223Y-455073841D01*
X700663191Y-455070299D01*
X700669271Y-455070000D01*
X701585000Y-455070000D01*
X701585000Y-454747172D01*
X701584999Y-454747155D01*
X701578598Y-454687627D01*
X701578596Y-454687620D01*
X701528354Y-454552913D01*
X701524103Y-454545128D01*
X701526287Y-454543935D01*
X701506490Y-454490862D01*
X701511514Y-454446016D01*
X701512020Y-454444344D01*
X701512023Y-454444341D01*
X701570662Y-454251033D01*
X701590462Y-454050000D01*
X701570662Y-453848967D01*
X701512023Y-453655659D01*
X701416798Y-453477506D01*
X701416794Y-453477502D01*
X701414631Y-453473454D01*
X701400389Y-453405051D01*
X701414631Y-453356546D01*
X701416794Y-453352498D01*
X701416798Y-453352494D01*
X701512023Y-453174341D01*
X701570662Y-452981033D01*
X701590462Y-452780000D01*
X701570662Y-452578967D01*
X701512023Y-452385659D01*
X701512021Y-452385656D01*
X701512021Y-452385654D01*
X701416801Y-452207511D01*
X701416799Y-452207509D01*
X701416798Y-452207506D01*
X701319659Y-452089141D01*
X701288647Y-452051352D01*
X701132495Y-451923203D01*
X701132488Y-451923198D01*
X700954345Y-451827978D01*
X700761031Y-451769337D01*
X700650900Y-451758490D01*
X700610380Y-451754500D01*
X700059620Y-451754500D01*
X700022433Y-451758162D01*
X699908968Y-451769337D01*
X699715654Y-451827978D01*
X699537511Y-451923198D01*
X699537504Y-451923203D01*
X699381352Y-452051352D01*
X699253203Y-452207504D01*
X699253198Y-452207511D01*
X699157978Y-452385654D01*
X699099337Y-452578968D01*
X699079538Y-452780000D01*
X699099337Y-452981031D01*
X699157978Y-453174345D01*
X699255367Y-453356547D01*
X699269609Y-453424950D01*
X699255367Y-453473453D01*
X699157978Y-453655654D01*
X699099337Y-453848968D01*
X699079538Y-454050000D01*
X677929590Y-454050000D01*
X679430180Y-452549410D01*
X679491501Y-452515927D01*
X679549948Y-452517317D01*
X679618309Y-452535635D01*
X679775781Y-452549412D01*
X679844999Y-452555468D01*
X679845001Y-452555468D01*
X679845003Y-452555468D01*
X679914221Y-452549412D01*
X680071693Y-452535635D01*
X680291497Y-452476739D01*
X680497735Y-452380568D01*
X680684140Y-452250047D01*
X680845048Y-452089139D01*
X680975569Y-451902734D01*
X681071740Y-451696496D01*
X681130636Y-451476692D01*
X681150469Y-451250001D01*
X688699533Y-451250001D01*
X688719365Y-451476686D01*
X688719367Y-451476697D01*
X688778259Y-451696488D01*
X688778262Y-451696497D01*
X688874432Y-451902732D01*
X688874433Y-451902734D01*
X689004955Y-452089141D01*
X689165859Y-452250045D01*
X689165862Y-452250047D01*
X689352267Y-452380568D01*
X689558505Y-452476739D01*
X689778309Y-452535635D01*
X689935781Y-452549412D01*
X690004999Y-452555468D01*
X690005001Y-452555468D01*
X690005003Y-452555468D01*
X690074221Y-452549412D01*
X690231693Y-452535635D01*
X690451497Y-452476739D01*
X690657735Y-452380568D01*
X690844140Y-452250047D01*
X691005048Y-452089139D01*
X691135569Y-451902734D01*
X691231740Y-451696496D01*
X691290636Y-451476692D01*
X691310469Y-451250000D01*
X691290636Y-451023308D01*
X691231740Y-450803504D01*
X691135569Y-450597266D01*
X691005048Y-450410861D01*
X691005046Y-450410858D01*
X690844142Y-450249954D01*
X690657735Y-450119432D01*
X690657733Y-450119431D01*
X690451498Y-450023261D01*
X690451489Y-450023258D01*
X690231698Y-449964366D01*
X690231694Y-449964365D01*
X690231693Y-449964365D01*
X690231692Y-449964364D01*
X690231687Y-449964364D01*
X690005003Y-449944532D01*
X690004999Y-449944532D01*
X689778314Y-449964364D01*
X689778303Y-449964366D01*
X689558512Y-450023258D01*
X689558503Y-450023261D01*
X689352268Y-450119431D01*
X689352266Y-450119432D01*
X689165859Y-450249954D01*
X689004955Y-450410858D01*
X688874433Y-450597265D01*
X688874432Y-450597267D01*
X688778262Y-450803502D01*
X688778259Y-450803511D01*
X688719367Y-451023302D01*
X688719365Y-451023313D01*
X688699533Y-451249998D01*
X688699533Y-451250001D01*
X681150469Y-451250001D01*
X681150469Y-451250000D01*
X681130636Y-451023308D01*
X681071740Y-450803504D01*
X680975569Y-450597266D01*
X680845048Y-450410861D01*
X680845046Y-450410858D01*
X680684142Y-450249954D01*
X680497735Y-450119432D01*
X680497733Y-450119431D01*
X680291498Y-450023261D01*
X680291489Y-450023258D01*
X680071698Y-449964366D01*
X680071694Y-449964365D01*
X680071693Y-449964365D01*
X680071692Y-449964364D01*
X680071687Y-449964364D01*
X679845003Y-449944532D01*
X679844999Y-449944532D01*
X679618314Y-449964364D01*
X679618303Y-449964366D01*
X679398512Y-450023258D01*
X679398503Y-450023261D01*
X679192268Y-450119431D01*
X679192266Y-450119432D01*
X679005859Y-450249954D01*
X678844955Y-450410858D01*
X678714433Y-450597265D01*
X678714432Y-450597267D01*
X678618262Y-450803502D01*
X678618259Y-450803511D01*
X678559367Y-451023302D01*
X678559365Y-451023313D01*
X678539533Y-451249998D01*
X678539533Y-451250000D01*
X678559365Y-451476686D01*
X678559366Y-451476691D01*
X678559367Y-451476697D01*
X678577681Y-451545048D01*
X678576018Y-451614897D01*
X678545587Y-451664821D01*
X674872229Y-455338181D01*
X674810906Y-455371666D01*
X674784548Y-455374500D01*
X673695150Y-455374500D01*
X673628111Y-455354815D01*
X673582356Y-455302011D01*
X673581595Y-455300311D01*
X673574175Y-455283396D01*
X673438166Y-455075217D01*
X673416557Y-455051744D01*
X673269744Y-454892262D01*
X673073509Y-454739526D01*
X673073507Y-454739525D01*
X673073506Y-454739524D01*
X672854811Y-454621172D01*
X672854802Y-454621169D01*
X672619616Y-454540429D01*
X672374335Y-454499500D01*
X672125665Y-454499500D01*
X671880383Y-454540429D01*
X671645197Y-454621169D01*
X671645188Y-454621172D01*
X671426493Y-454739524D01*
X671230257Y-454892261D01*
X671061833Y-455075217D01*
X670925826Y-455283393D01*
X670825936Y-455511118D01*
X670764892Y-455752175D01*
X670764890Y-455752187D01*
X670744357Y-455999994D01*
X670744357Y-456000005D01*
X667255643Y-456000005D01*
X667255643Y-455999994D01*
X667235109Y-455752187D01*
X667235107Y-455752175D01*
X667174063Y-455511118D01*
X667074173Y-455283393D01*
X666938166Y-455075217D01*
X666916557Y-455051744D01*
X666769744Y-454892262D01*
X666573509Y-454739526D01*
X666573507Y-454739525D01*
X666573506Y-454739524D01*
X666354811Y-454621172D01*
X666354802Y-454621169D01*
X666119616Y-454540429D01*
X665874335Y-454499500D01*
X665625665Y-454499500D01*
X665380383Y-454540429D01*
X665145197Y-454621169D01*
X665145188Y-454621172D01*
X664926493Y-454739524D01*
X664730257Y-454892261D01*
X664561833Y-455075217D01*
X664425826Y-455283393D01*
X664325936Y-455511118D01*
X664264892Y-455752175D01*
X664264890Y-455752187D01*
X664244357Y-455999994D01*
X664244357Y-456000005D01*
X658750500Y-456000005D01*
X658750500Y-451500005D01*
X664244357Y-451500005D01*
X664264890Y-451747812D01*
X664264892Y-451747824D01*
X664325936Y-451988881D01*
X664425826Y-452216606D01*
X664561833Y-452424782D01*
X664561836Y-452424785D01*
X664730256Y-452607738D01*
X664926491Y-452760474D01*
X665145190Y-452878828D01*
X665380386Y-452959571D01*
X665625665Y-453000500D01*
X665874335Y-453000500D01*
X666119614Y-452959571D01*
X666354810Y-452878828D01*
X666573509Y-452760474D01*
X666769744Y-452607738D01*
X666938164Y-452424785D01*
X667074173Y-452216607D01*
X667074175Y-452216603D01*
X667081595Y-452199689D01*
X667126551Y-452146203D01*
X667193287Y-452125514D01*
X667195150Y-452125500D01*
X670804850Y-452125500D01*
X670871889Y-452145185D01*
X670917644Y-452197989D01*
X670918405Y-452199689D01*
X670925824Y-452216603D01*
X671061833Y-452424782D01*
X671061836Y-452424785D01*
X671230256Y-452607738D01*
X671426491Y-452760474D01*
X671645190Y-452878828D01*
X671880386Y-452959571D01*
X672125665Y-453000500D01*
X672374335Y-453000500D01*
X672619614Y-452959571D01*
X672854810Y-452878828D01*
X673073509Y-452760474D01*
X673269744Y-452607738D01*
X673438164Y-452424785D01*
X673574173Y-452216607D01*
X673674063Y-451988881D01*
X673735108Y-451747821D01*
X673741986Y-451664821D01*
X673755643Y-451500005D01*
X673755643Y-451499994D01*
X673735109Y-451252187D01*
X673735107Y-451252175D01*
X673674063Y-451011118D01*
X673574173Y-450783393D01*
X673438166Y-450575217D01*
X673388338Y-450521090D01*
X673269744Y-450392262D01*
X673073509Y-450239526D01*
X673073508Y-450239525D01*
X673073505Y-450239523D01*
X673073503Y-450239522D01*
X672940481Y-450167533D01*
X672890891Y-450118313D01*
X672875500Y-450058479D01*
X672875500Y-448570000D01*
X699079538Y-448570000D01*
X699099337Y-448771031D01*
X699103424Y-448784504D01*
X699151958Y-448944500D01*
X699158306Y-448965424D01*
X699158929Y-449035291D01*
X699144530Y-449064386D01*
X699145452Y-449064890D01*
X699141202Y-449072671D01*
X699090908Y-449207517D01*
X699086651Y-449247116D01*
X699084501Y-449267123D01*
X699084500Y-449267135D01*
X699084500Y-450412870D01*
X699084501Y-450412876D01*
X699090908Y-450472483D01*
X699141202Y-450607328D01*
X699141206Y-450607335D01*
X699227452Y-450722544D01*
X699227455Y-450722547D01*
X699342664Y-450808793D01*
X699342671Y-450808797D01*
X699477517Y-450859091D01*
X699477516Y-450859091D01*
X699484444Y-450859835D01*
X699537127Y-450865500D01*
X701132872Y-450865499D01*
X701192483Y-450859091D01*
X701327331Y-450808796D01*
X701442546Y-450722546D01*
X701528796Y-450607331D01*
X701579091Y-450472483D01*
X701585500Y-450412873D01*
X701585499Y-449267128D01*
X701579091Y-449207517D01*
X701571631Y-449187517D01*
X701528797Y-449072671D01*
X701524546Y-449064886D01*
X701526621Y-449063752D01*
X701506671Y-449010274D01*
X701511694Y-448965423D01*
X701512021Y-448964344D01*
X701512023Y-448964341D01*
X701570662Y-448771033D01*
X701590462Y-448570000D01*
X701588492Y-448550000D01*
X705939538Y-448550000D01*
X705959337Y-448751031D01*
X706018306Y-448945424D01*
X706018929Y-449015291D01*
X706004530Y-449044386D01*
X706005452Y-449044890D01*
X706001202Y-449052671D01*
X705950908Y-449187517D01*
X705944501Y-449247116D01*
X705944500Y-449247135D01*
X705944500Y-450392870D01*
X705944501Y-450392876D01*
X705950908Y-450452483D01*
X706001202Y-450587328D01*
X706001206Y-450587335D01*
X706087452Y-450702544D01*
X706087455Y-450702547D01*
X706202664Y-450788793D01*
X706202671Y-450788797D01*
X706337517Y-450839091D01*
X706337516Y-450839091D01*
X706344444Y-450839835D01*
X706397127Y-450845500D01*
X707992872Y-450845499D01*
X708052483Y-450839091D01*
X708187331Y-450788796D01*
X708245819Y-450745011D01*
X708278920Y-450720233D01*
X708344385Y-450695816D01*
X708353231Y-450695500D01*
X713316898Y-450695500D01*
X713321932Y-450695705D01*
X713378844Y-450700339D01*
X713378845Y-450700338D01*
X713378848Y-450700339D01*
X713461441Y-450689085D01*
X713544316Y-450680073D01*
X713544481Y-450680017D01*
X713567357Y-450674655D01*
X713567537Y-450674631D01*
X713645793Y-450645880D01*
X713724780Y-450619267D01*
X713724928Y-450619178D01*
X713746116Y-450609024D01*
X713746288Y-450608961D01*
X713816536Y-450564059D01*
X713887954Y-450521089D01*
X713888083Y-450520966D01*
X713906597Y-450506494D01*
X713906607Y-450506487D01*
X713906744Y-450506400D01*
X713936219Y-450476923D01*
X713965696Y-450447448D01*
X714002199Y-450412870D01*
X714026207Y-450390129D01*
X714026306Y-450389983D01*
X714041264Y-450371878D01*
X716592142Y-447821000D01*
X716595810Y-447817618D01*
X716639357Y-447780631D01*
X716689808Y-447714262D01*
X716742030Y-447649297D01*
X716742109Y-447649138D01*
X716754489Y-447629177D01*
X716754602Y-447629029D01*
X716789610Y-447553359D01*
X716826641Y-447478693D01*
X716826685Y-447478514D01*
X716834484Y-447456363D01*
X716834562Y-447456197D01*
X716852485Y-447374770D01*
X716872600Y-447293889D01*
X716872604Y-447293715D01*
X716875461Y-447270391D01*
X716875500Y-447270216D01*
X716875500Y-447186840D01*
X716877757Y-447103527D01*
X716877720Y-447103334D01*
X716875500Y-447079975D01*
X716875500Y-446999500D01*
X716895185Y-446932461D01*
X716947989Y-446886706D01*
X716999500Y-446875500D01*
X718833318Y-446875500D01*
X718900357Y-446895185D01*
X718909480Y-446901647D01*
X718941365Y-446926464D01*
X718941371Y-446926468D01*
X718941374Y-446926470D01*
X719145497Y-447036936D01*
X719259487Y-447076068D01*
X719365015Y-447112297D01*
X719365017Y-447112297D01*
X719365019Y-447112298D01*
X719593951Y-447150500D01*
X719593952Y-447150500D01*
X719826048Y-447150500D01*
X719826049Y-447150500D01*
X720054981Y-447112298D01*
X720274503Y-447036936D01*
X720478626Y-446926470D01*
X720661784Y-446783913D01*
X720670130Y-446774846D01*
X720730010Y-446738854D01*
X720799849Y-446740949D01*
X720857468Y-446780469D01*
X720877544Y-446815491D01*
X720906203Y-446892330D01*
X720906206Y-446892335D01*
X720992452Y-447007544D01*
X720992455Y-447007547D01*
X721107664Y-447093793D01*
X721107671Y-447093797D01*
X721242517Y-447144091D01*
X721242516Y-447144091D01*
X721249444Y-447144835D01*
X721302127Y-447150500D01*
X723197872Y-447150499D01*
X723257483Y-447144091D01*
X723392331Y-447093796D01*
X723507546Y-447007546D01*
X723593796Y-446892331D01*
X723644091Y-446757483D01*
X723650500Y-446697873D01*
X723650500Y-446499500D01*
X723670185Y-446432461D01*
X723722989Y-446386706D01*
X723774500Y-446375500D01*
X724331159Y-446375500D01*
X724398198Y-446395185D01*
X724443539Y-446447093D01*
X724492157Y-446551353D01*
X724539431Y-446652732D01*
X724539432Y-446652734D01*
X724669954Y-446839141D01*
X724830858Y-447000045D01*
X724830861Y-447000047D01*
X725017266Y-447130568D01*
X725223504Y-447226739D01*
X725443308Y-447285635D01*
X725605230Y-447299801D01*
X725669998Y-447305468D01*
X725670000Y-447305468D01*
X725670002Y-447305468D01*
X725732499Y-447300000D01*
X725896692Y-447285635D01*
X726116496Y-447226739D01*
X726322734Y-447130568D01*
X726509139Y-447000047D01*
X726670047Y-446839139D01*
X726800568Y-446652734D01*
X726896739Y-446446496D01*
X726955635Y-446226692D01*
X726975468Y-446000000D01*
X726955635Y-445773308D01*
X726949389Y-445749999D01*
X734551127Y-445749999D01*
X734551128Y-445750000D01*
X735514314Y-445750000D01*
X735502359Y-445761955D01*
X735444835Y-445874852D01*
X735425014Y-446000000D01*
X735444835Y-446125148D01*
X735502359Y-446238045D01*
X735514314Y-446250000D01*
X734551128Y-446250000D01*
X734603730Y-446446317D01*
X734603734Y-446446326D01*
X734699865Y-446652482D01*
X734830342Y-446838820D01*
X734991179Y-446999657D01*
X735177517Y-447130134D01*
X735383673Y-447226265D01*
X735383682Y-447226269D01*
X735579999Y-447278872D01*
X735580000Y-447278871D01*
X735580000Y-446315686D01*
X735591955Y-446327641D01*
X735704852Y-446385165D01*
X735798519Y-446400000D01*
X735861481Y-446400000D01*
X735955148Y-446385165D01*
X736068045Y-446327641D01*
X736080000Y-446315686D01*
X736080000Y-447278872D01*
X736276317Y-447226269D01*
X736276326Y-447226265D01*
X736482482Y-447130134D01*
X736668820Y-446999657D01*
X736829657Y-446838820D01*
X736960134Y-446652482D01*
X737056265Y-446446326D01*
X737056269Y-446446317D01*
X737108872Y-446250000D01*
X736145686Y-446250000D01*
X736157641Y-446238045D01*
X736215165Y-446125148D01*
X736234986Y-446000000D01*
X736215165Y-445874852D01*
X736157641Y-445761955D01*
X736145686Y-445750000D01*
X737108872Y-445750000D01*
X737108872Y-445749999D01*
X737056269Y-445553682D01*
X737056265Y-445553673D01*
X736960134Y-445347517D01*
X736829657Y-445161179D01*
X736668820Y-445000342D01*
X736482482Y-444869865D01*
X736276328Y-444773734D01*
X736080000Y-444721127D01*
X736080000Y-445684314D01*
X736068045Y-445672359D01*
X735955148Y-445614835D01*
X735861481Y-445600000D01*
X735798519Y-445600000D01*
X735704852Y-445614835D01*
X735591955Y-445672359D01*
X735580000Y-445684314D01*
X735580000Y-444721127D01*
X735383671Y-444773734D01*
X735177517Y-444869865D01*
X734991179Y-445000342D01*
X734830342Y-445161179D01*
X734699865Y-445347517D01*
X734603734Y-445553673D01*
X734603730Y-445553682D01*
X734551127Y-445749999D01*
X726949389Y-445749999D01*
X726896739Y-445553504D01*
X726800568Y-445347266D01*
X726670047Y-445160861D01*
X726670045Y-445160858D01*
X726509141Y-444999954D01*
X726322734Y-444869432D01*
X726322732Y-444869431D01*
X726116497Y-444773261D01*
X726116488Y-444773258D01*
X725896697Y-444714366D01*
X725896693Y-444714365D01*
X725896692Y-444714365D01*
X725896691Y-444714364D01*
X725896686Y-444714364D01*
X725670002Y-444694532D01*
X725669998Y-444694532D01*
X725443313Y-444714364D01*
X725443302Y-444714366D01*
X725223511Y-444773258D01*
X725223502Y-444773261D01*
X725017267Y-444869431D01*
X725017265Y-444869432D01*
X724830862Y-444999951D01*
X724798082Y-445032732D01*
X724742631Y-445088182D01*
X724681311Y-445121666D01*
X724654952Y-445124500D01*
X723774499Y-445124500D01*
X723707460Y-445104815D01*
X723661705Y-445052011D01*
X723650499Y-445000500D01*
X723650499Y-444802129D01*
X723650498Y-444802123D01*
X723647395Y-444773258D01*
X723644091Y-444742517D01*
X723634233Y-444716087D01*
X723593797Y-444607671D01*
X723593793Y-444607664D01*
X723507547Y-444492455D01*
X723507544Y-444492452D01*
X723392335Y-444406206D01*
X723392328Y-444406202D01*
X723257482Y-444355908D01*
X723257483Y-444355908D01*
X723197883Y-444349501D01*
X723197881Y-444349500D01*
X723197873Y-444349500D01*
X723197864Y-444349500D01*
X721302129Y-444349500D01*
X721302123Y-444349501D01*
X721242516Y-444355908D01*
X721107671Y-444406202D01*
X721107664Y-444406206D01*
X720992455Y-444492452D01*
X720992452Y-444492455D01*
X720906206Y-444607664D01*
X720906203Y-444607670D01*
X720877544Y-444684508D01*
X720835672Y-444740441D01*
X720770208Y-444764858D01*
X720701935Y-444750006D01*
X720670135Y-444725158D01*
X720661784Y-444716087D01*
X720661778Y-444716082D01*
X720661777Y-444716081D01*
X720478634Y-444573535D01*
X720478628Y-444573531D01*
X720274504Y-444463064D01*
X720274495Y-444463061D01*
X720054984Y-444387702D01*
X719864450Y-444355908D01*
X719826049Y-444349500D01*
X719593951Y-444349500D01*
X719555550Y-444355908D01*
X719365015Y-444387702D01*
X719145504Y-444463061D01*
X719145495Y-444463064D01*
X718941371Y-444573531D01*
X718941365Y-444573535D01*
X718758222Y-444716081D01*
X718758219Y-444716084D01*
X718758216Y-444716086D01*
X718758216Y-444716087D01*
X718713319Y-444764858D01*
X718601016Y-444886852D01*
X718482458Y-445068321D01*
X718429311Y-445113678D01*
X718378649Y-445124500D01*
X716225294Y-445124500D01*
X716199513Y-445121790D01*
X716198930Y-445121666D01*
X716094646Y-445099500D01*
X715905354Y-445099500D01*
X715880349Y-445104815D01*
X715720197Y-445138855D01*
X715720192Y-445138857D01*
X715547270Y-445215848D01*
X715547265Y-445215851D01*
X715394129Y-445327111D01*
X715267466Y-445467785D01*
X715172821Y-445631715D01*
X715172818Y-445631722D01*
X715126813Y-445773313D01*
X715114326Y-445811744D01*
X715094540Y-446000000D01*
X715114326Y-446188256D01*
X715114326Y-446188258D01*
X715114327Y-446188260D01*
X715118430Y-446200887D01*
X715124500Y-446239207D01*
X715124500Y-446760994D01*
X715104815Y-446828033D01*
X715088181Y-446848675D01*
X713028675Y-448908181D01*
X712967352Y-448941666D01*
X712940994Y-448944500D01*
X708539169Y-448944500D01*
X708472130Y-448924815D01*
X708426375Y-448872011D01*
X708416431Y-448802853D01*
X708420509Y-448784504D01*
X708430661Y-448751035D01*
X708430662Y-448751033D01*
X708450462Y-448550000D01*
X708430662Y-448348967D01*
X708372023Y-448155659D01*
X708276798Y-447977506D01*
X708276794Y-447977502D01*
X708274631Y-447973454D01*
X708260389Y-447905051D01*
X708274631Y-447856546D01*
X708276794Y-447852498D01*
X708276798Y-447852494D01*
X708372023Y-447674341D01*
X708430662Y-447481033D01*
X708450462Y-447280000D01*
X708430662Y-447078967D01*
X708372023Y-446885659D01*
X708372021Y-446885656D01*
X708372021Y-446885654D01*
X708276801Y-446707511D01*
X708276799Y-446707509D01*
X708276798Y-446707506D01*
X708199365Y-446613153D01*
X708148647Y-446551352D01*
X707992495Y-446423203D01*
X707992488Y-446423198D01*
X707814345Y-446327978D01*
X707621031Y-446269337D01*
X707510900Y-446258490D01*
X707470380Y-446254500D01*
X706919620Y-446254500D01*
X706882433Y-446258162D01*
X706768968Y-446269337D01*
X706575654Y-446327978D01*
X706397511Y-446423198D01*
X706397504Y-446423203D01*
X706241352Y-446551352D01*
X706113203Y-446707504D01*
X706113198Y-446707511D01*
X706017978Y-446885654D01*
X705959337Y-447078968D01*
X705939538Y-447280000D01*
X705959337Y-447481031D01*
X706017978Y-447674345D01*
X706115367Y-447856547D01*
X706129609Y-447924950D01*
X706115367Y-447973453D01*
X706017978Y-448155654D01*
X705959337Y-448348968D01*
X705939538Y-448550000D01*
X701588492Y-448550000D01*
X701570662Y-448368967D01*
X701512023Y-448175659D01*
X701416798Y-447997506D01*
X701416794Y-447997502D01*
X701414631Y-447993454D01*
X701400389Y-447925051D01*
X701414631Y-447876546D01*
X701416794Y-447872498D01*
X701416798Y-447872494D01*
X701512023Y-447694341D01*
X701570662Y-447501033D01*
X701590462Y-447300000D01*
X701570662Y-447098967D01*
X701512023Y-446905659D01*
X701512021Y-446905656D01*
X701512021Y-446905654D01*
X701416801Y-446727511D01*
X701416799Y-446727509D01*
X701416798Y-446727506D01*
X701377824Y-446680016D01*
X701288647Y-446571352D01*
X701153755Y-446460650D01*
X701132494Y-446443202D01*
X701132492Y-446443201D01*
X701132488Y-446443198D01*
X700954345Y-446347978D01*
X700761031Y-446289337D01*
X700650900Y-446278490D01*
X700610380Y-446274500D01*
X700059620Y-446274500D01*
X700022433Y-446278162D01*
X699908968Y-446289337D01*
X699715654Y-446347978D01*
X699537511Y-446443198D01*
X699537504Y-446443203D01*
X699381352Y-446571352D01*
X699253203Y-446727504D01*
X699253198Y-446727511D01*
X699157978Y-446905654D01*
X699099337Y-447098968D01*
X699079538Y-447300000D01*
X699099337Y-447501031D01*
X699157978Y-447694345D01*
X699255367Y-447876547D01*
X699269609Y-447944950D01*
X699255367Y-447993453D01*
X699157978Y-448175654D01*
X699099337Y-448368968D01*
X699079538Y-448570000D01*
X672875500Y-448570000D01*
X672875500Y-446582742D01*
X672877224Y-446567122D01*
X672876939Y-446567095D01*
X672877673Y-446559333D01*
X672875500Y-446490172D01*
X672875500Y-446460656D01*
X672875500Y-446460650D01*
X672874631Y-446453779D01*
X672874173Y-446447952D01*
X672874024Y-446443198D01*
X672872710Y-446401373D01*
X672867119Y-446382130D01*
X672863173Y-446363078D01*
X672860664Y-446343208D01*
X672843504Y-446299867D01*
X672841624Y-446294379D01*
X672828618Y-446249610D01*
X672822466Y-446239207D01*
X672818419Y-446232364D01*
X672809858Y-446214888D01*
X672802487Y-446196270D01*
X672802486Y-446196268D01*
X672775090Y-446158560D01*
X672771892Y-446153691D01*
X672748173Y-446113583D01*
X672748166Y-446113574D01*
X672734005Y-446099413D01*
X672721370Y-446084620D01*
X672709593Y-446068412D01*
X672673693Y-446038713D01*
X672669381Y-446034790D01*
X671014592Y-444380001D01*
X699029532Y-444380001D01*
X699049364Y-444606686D01*
X699049366Y-444606697D01*
X699108258Y-444826488D01*
X699108261Y-444826497D01*
X699204431Y-445032732D01*
X699204432Y-445032734D01*
X699334954Y-445219141D01*
X699495858Y-445380045D01*
X699495861Y-445380047D01*
X699682266Y-445510568D01*
X699888504Y-445606739D01*
X700108308Y-445665635D01*
X700270230Y-445679801D01*
X700334998Y-445685468D01*
X700335000Y-445685468D01*
X700335002Y-445685468D01*
X700391673Y-445680509D01*
X700561692Y-445665635D01*
X700781496Y-445606739D01*
X700987734Y-445510568D01*
X701174139Y-445380047D01*
X701335047Y-445219139D01*
X701465568Y-445032734D01*
X701561739Y-444826496D01*
X701620635Y-444606692D01*
X701640468Y-444380000D01*
X701620635Y-444153308D01*
X701561739Y-443933504D01*
X701465568Y-443727266D01*
X701335047Y-443540861D01*
X701335045Y-443540858D01*
X701174141Y-443379954D01*
X700987734Y-443249432D01*
X700987732Y-443249431D01*
X700781497Y-443153261D01*
X700781488Y-443153258D01*
X700561697Y-443094366D01*
X700561693Y-443094365D01*
X700561692Y-443094365D01*
X700561691Y-443094364D01*
X700561686Y-443094364D01*
X700335002Y-443074532D01*
X700334998Y-443074532D01*
X700108313Y-443094364D01*
X700108302Y-443094366D01*
X699888511Y-443153258D01*
X699888502Y-443153261D01*
X699682267Y-443249431D01*
X699682265Y-443249432D01*
X699495858Y-443379954D01*
X699334954Y-443540858D01*
X699204432Y-443727265D01*
X699204431Y-443727267D01*
X699108261Y-443933502D01*
X699108258Y-443933511D01*
X699049366Y-444153302D01*
X699049364Y-444153313D01*
X699029532Y-444379998D01*
X699029532Y-444380001D01*
X671014592Y-444380001D01*
X670661819Y-444027228D01*
X670628334Y-443965905D01*
X670625500Y-443939547D01*
X670625500Y-439000005D01*
X671244357Y-439000005D01*
X671264890Y-439247812D01*
X671264892Y-439247824D01*
X671325936Y-439488881D01*
X671425826Y-439716606D01*
X671561833Y-439924782D01*
X671561836Y-439924785D01*
X671730256Y-440107738D01*
X671926491Y-440260474D01*
X672145190Y-440378828D01*
X672380386Y-440459571D01*
X672625665Y-440500500D01*
X672874335Y-440500500D01*
X673119614Y-440459571D01*
X673354810Y-440378828D01*
X673573509Y-440260474D01*
X673769744Y-440107738D01*
X673938164Y-439924785D01*
X674074173Y-439716607D01*
X674074175Y-439716603D01*
X674081595Y-439699689D01*
X674126551Y-439646203D01*
X674193287Y-439625514D01*
X674195150Y-439625500D01*
X678829952Y-439625500D01*
X678896991Y-439645185D01*
X678917628Y-439661814D01*
X679005862Y-439750048D01*
X679192267Y-439880569D01*
X679398505Y-439976740D01*
X679618309Y-440035636D01*
X679780231Y-440049802D01*
X679844999Y-440055469D01*
X679845001Y-440055469D01*
X679845003Y-440055469D01*
X679901674Y-440050510D01*
X680071693Y-440035636D01*
X680291497Y-439976740D01*
X680497735Y-439880569D01*
X680684140Y-439750048D01*
X680845048Y-439589140D01*
X680975569Y-439402735D01*
X681071740Y-439196497D01*
X681130636Y-438976693D01*
X681150278Y-438752187D01*
X681150469Y-438750002D01*
X688699533Y-438750002D01*
X688719365Y-438976687D01*
X688719367Y-438976698D01*
X688778259Y-439196489D01*
X688778262Y-439196498D01*
X688874432Y-439402733D01*
X688874433Y-439402735D01*
X689004955Y-439589142D01*
X689165859Y-439750046D01*
X689165862Y-439750048D01*
X689352267Y-439880569D01*
X689558505Y-439976740D01*
X689778309Y-440035636D01*
X689940231Y-440049802D01*
X690004999Y-440055469D01*
X690005001Y-440055469D01*
X690005003Y-440055469D01*
X690061674Y-440050510D01*
X690231693Y-440035636D01*
X690451497Y-439976740D01*
X690657735Y-439880569D01*
X690844140Y-439750048D01*
X691005048Y-439589140D01*
X691135569Y-439402735D01*
X691231740Y-439196497D01*
X691290636Y-438976693D01*
X691310278Y-438752187D01*
X691310469Y-438750002D01*
X691310469Y-438749999D01*
X691290636Y-438523314D01*
X691290636Y-438523309D01*
X691231740Y-438303505D01*
X691135569Y-438097267D01*
X691005048Y-437910862D01*
X691005046Y-437910859D01*
X690844142Y-437749955D01*
X690657735Y-437619433D01*
X690657733Y-437619432D01*
X690451498Y-437523262D01*
X690451489Y-437523259D01*
X690231698Y-437464367D01*
X690231694Y-437464366D01*
X690231693Y-437464366D01*
X690231692Y-437464365D01*
X690231687Y-437464365D01*
X690005003Y-437444533D01*
X690004999Y-437444533D01*
X689778314Y-437464365D01*
X689778303Y-437464367D01*
X689558512Y-437523259D01*
X689558503Y-437523262D01*
X689352268Y-437619432D01*
X689352266Y-437619433D01*
X689165859Y-437749955D01*
X689004955Y-437910859D01*
X688874433Y-438097266D01*
X688874432Y-438097268D01*
X688778262Y-438303503D01*
X688778259Y-438303512D01*
X688719367Y-438523303D01*
X688719365Y-438523314D01*
X688699533Y-438749999D01*
X688699533Y-438750002D01*
X681150469Y-438750002D01*
X681150469Y-438749999D01*
X681130636Y-438523314D01*
X681130636Y-438523309D01*
X681071740Y-438303505D01*
X680975569Y-438097267D01*
X680845048Y-437910862D01*
X680845046Y-437910859D01*
X680684142Y-437749955D01*
X680497735Y-437619433D01*
X680497733Y-437619432D01*
X680291498Y-437523262D01*
X680291489Y-437523259D01*
X680071698Y-437464367D01*
X680071694Y-437464366D01*
X680071693Y-437464366D01*
X680071692Y-437464365D01*
X680071687Y-437464365D01*
X679845003Y-437444533D01*
X679844999Y-437444533D01*
X679618314Y-437464365D01*
X679618303Y-437464367D01*
X679398512Y-437523259D01*
X679398503Y-437523262D01*
X679192268Y-437619432D01*
X679192266Y-437619433D01*
X679005859Y-437749955D01*
X678844955Y-437910859D01*
X678714433Y-438097266D01*
X678714432Y-438097268D01*
X678645945Y-438244138D01*
X678619752Y-438300311D01*
X678618542Y-438302905D01*
X678572369Y-438355344D01*
X678506160Y-438374500D01*
X674195150Y-438374500D01*
X674128111Y-438354815D01*
X674082356Y-438302011D01*
X674081595Y-438300311D01*
X674074175Y-438283396D01*
X673938166Y-438075217D01*
X673786866Y-437910862D01*
X673769744Y-437892262D01*
X673573509Y-437739526D01*
X673573507Y-437739525D01*
X673573506Y-437739524D01*
X673354811Y-437621172D01*
X673354802Y-437621169D01*
X673119616Y-437540429D01*
X672874335Y-437499500D01*
X672625665Y-437499500D01*
X672380383Y-437540429D01*
X672145197Y-437621169D01*
X672145188Y-437621172D01*
X671926493Y-437739524D01*
X671730257Y-437892261D01*
X671561833Y-438075217D01*
X671425826Y-438283393D01*
X671325936Y-438511118D01*
X671264892Y-438752175D01*
X671264890Y-438752187D01*
X671244357Y-438999994D01*
X671244357Y-439000005D01*
X670625500Y-439000005D01*
X670625500Y-435560452D01*
X670645185Y-435493413D01*
X670661819Y-435472771D01*
X670972772Y-435161819D01*
X671034095Y-435128334D01*
X671060453Y-435125500D01*
X671304850Y-435125500D01*
X671371889Y-435145185D01*
X671417644Y-435197989D01*
X671418405Y-435199689D01*
X671425824Y-435216603D01*
X671561833Y-435424782D01*
X671561836Y-435424785D01*
X671730256Y-435607738D01*
X671926491Y-435760474D01*
X672145190Y-435878828D01*
X672380386Y-435959571D01*
X672625665Y-436000500D01*
X672874335Y-436000500D01*
X673119614Y-435959571D01*
X673354810Y-435878828D01*
X673573509Y-435760474D01*
X673769744Y-435607738D01*
X673938164Y-435424785D01*
X674074173Y-435216607D01*
X674074175Y-435216603D01*
X674081595Y-435199689D01*
X674126551Y-435146203D01*
X674193287Y-435125514D01*
X674195150Y-435125500D01*
X699349952Y-435125500D01*
X699416991Y-435145185D01*
X699437628Y-435161814D01*
X699473803Y-435197989D01*
X699495862Y-435220048D01*
X699580758Y-435279492D01*
X699682266Y-435350568D01*
X699888504Y-435446739D01*
X700108308Y-435505635D01*
X700270230Y-435519801D01*
X700334998Y-435525468D01*
X700335000Y-435525468D01*
X700335002Y-435525468D01*
X700391673Y-435520509D01*
X700561692Y-435505635D01*
X700781496Y-435446739D01*
X700987734Y-435350568D01*
X701174139Y-435220047D01*
X701335047Y-435059139D01*
X701465568Y-434872734D01*
X701561739Y-434666496D01*
X701620635Y-434446692D01*
X701640468Y-434220000D01*
X701620635Y-433993308D01*
X701561739Y-433773504D01*
X701465568Y-433567266D01*
X701335047Y-433380861D01*
X701335045Y-433380858D01*
X701174141Y-433219954D01*
X700987734Y-433089432D01*
X700987732Y-433089431D01*
X700781497Y-432993261D01*
X700781488Y-432993258D01*
X700561697Y-432934366D01*
X700561693Y-432934365D01*
X700561692Y-432934365D01*
X700561691Y-432934364D01*
X700561686Y-432934364D01*
X700335002Y-432914532D01*
X700334998Y-432914532D01*
X700108313Y-432934364D01*
X700108302Y-432934366D01*
X699888511Y-432993258D01*
X699888502Y-432993261D01*
X699682267Y-433089431D01*
X699682265Y-433089432D01*
X699495858Y-433219954D01*
X699334954Y-433380858D01*
X699204432Y-433567265D01*
X699204431Y-433567267D01*
X699108260Y-433773504D01*
X699105825Y-433782595D01*
X699069459Y-433842255D01*
X699006612Y-433872783D01*
X698986051Y-433874500D01*
X674195150Y-433874500D01*
X674128111Y-433854815D01*
X674082356Y-433802011D01*
X674081595Y-433800311D01*
X674074175Y-433783396D01*
X673938166Y-433575217D01*
X673916557Y-433551744D01*
X673769744Y-433392262D01*
X673573509Y-433239526D01*
X673573507Y-433239525D01*
X673573506Y-433239524D01*
X673354811Y-433121172D01*
X673354802Y-433121169D01*
X673119616Y-433040429D01*
X672874335Y-432999500D01*
X672625665Y-432999500D01*
X672380383Y-433040429D01*
X672145197Y-433121169D01*
X672145188Y-433121172D01*
X671926493Y-433239524D01*
X671730257Y-433392261D01*
X671561833Y-433575217D01*
X671425824Y-433783396D01*
X671418405Y-433800311D01*
X671373449Y-433853797D01*
X671306713Y-433874486D01*
X671304850Y-433874500D01*
X670832738Y-433874500D01*
X670817121Y-433872776D01*
X670817094Y-433873062D01*
X670809332Y-433872327D01*
X670740204Y-433874500D01*
X667695150Y-433874500D01*
X667628111Y-433854815D01*
X667582356Y-433802011D01*
X667581595Y-433800311D01*
X667574175Y-433783396D01*
X667438166Y-433575217D01*
X667416557Y-433551744D01*
X667269744Y-433392262D01*
X667073509Y-433239526D01*
X667073507Y-433239525D01*
X667073506Y-433239524D01*
X666854811Y-433121172D01*
X666854802Y-433121169D01*
X666619616Y-433040429D01*
X666374335Y-432999500D01*
X666125665Y-432999500D01*
X665880383Y-433040429D01*
X665645197Y-433121169D01*
X665645188Y-433121172D01*
X665426493Y-433239524D01*
X665230257Y-433392261D01*
X665061833Y-433575217D01*
X664925826Y-433783393D01*
X664825936Y-434011118D01*
X664764892Y-434252175D01*
X664764890Y-434252187D01*
X664744357Y-434499994D01*
X664744357Y-434500005D01*
X664764890Y-434747812D01*
X664764892Y-434747824D01*
X664825936Y-434988881D01*
X664925826Y-435216606D01*
X665061833Y-435424782D01*
X665061836Y-435424785D01*
X665230256Y-435607738D01*
X665426491Y-435760474D01*
X665645190Y-435878828D01*
X665880386Y-435959571D01*
X666125665Y-436000500D01*
X666374335Y-436000500D01*
X666619614Y-435959571D01*
X666854810Y-435878828D01*
X667073509Y-435760474D01*
X667269744Y-435607738D01*
X667438164Y-435424785D01*
X667574173Y-435216607D01*
X667574175Y-435216603D01*
X667581595Y-435199689D01*
X667626551Y-435146203D01*
X667693287Y-435125514D01*
X667695150Y-435125500D01*
X669247112Y-435125500D01*
X669314151Y-435145185D01*
X669359906Y-435197989D01*
X669370562Y-435237831D01*
X669374225Y-435276583D01*
X669374500Y-435282421D01*
X669374500Y-444167255D01*
X669372775Y-444182872D01*
X669373061Y-444182899D01*
X669372326Y-444190665D01*
X669374500Y-444259814D01*
X669374500Y-444289343D01*
X669374501Y-444289360D01*
X669375368Y-444296231D01*
X669375826Y-444302050D01*
X669377290Y-444348624D01*
X669377291Y-444348627D01*
X669382880Y-444367867D01*
X669386824Y-444386911D01*
X669389262Y-444406204D01*
X669389336Y-444406791D01*
X669406490Y-444450119D01*
X669408382Y-444455647D01*
X669421381Y-444500388D01*
X669431580Y-444517634D01*
X669440138Y-444535103D01*
X669447514Y-444553732D01*
X669474898Y-444591423D01*
X669478106Y-444596307D01*
X669501827Y-444636416D01*
X669501833Y-444636424D01*
X669515990Y-444650580D01*
X669528628Y-444665376D01*
X669540405Y-444681586D01*
X669540406Y-444681587D01*
X669576308Y-444711287D01*
X669580631Y-444715221D01*
X669837077Y-444971668D01*
X669837092Y-444971682D01*
X671588181Y-446722771D01*
X671621666Y-446784094D01*
X671624500Y-446810452D01*
X671624500Y-450058479D01*
X671604815Y-450125518D01*
X671559519Y-450167533D01*
X671426496Y-450239522D01*
X671426494Y-450239523D01*
X671232996Y-450390129D01*
X671230256Y-450392262D01*
X671229691Y-450392876D01*
X671061833Y-450575217D01*
X670925824Y-450783396D01*
X670918405Y-450800311D01*
X670873449Y-450853797D01*
X670806713Y-450874486D01*
X670804850Y-450874500D01*
X667195150Y-450874500D01*
X667128111Y-450854815D01*
X667082356Y-450802011D01*
X667081595Y-450800311D01*
X667074175Y-450783396D01*
X666938166Y-450575217D01*
X666888338Y-450521090D01*
X666769744Y-450392262D01*
X666573509Y-450239526D01*
X666573507Y-450239525D01*
X666573506Y-450239524D01*
X666354811Y-450121172D01*
X666354802Y-450121169D01*
X666119616Y-450040429D01*
X665874335Y-449999500D01*
X665625665Y-449999500D01*
X665380383Y-450040429D01*
X665145197Y-450121169D01*
X665145188Y-450121172D01*
X664926493Y-450239524D01*
X664732996Y-450390129D01*
X664730256Y-450392262D01*
X664729691Y-450392876D01*
X664561833Y-450575217D01*
X664425826Y-450783393D01*
X664325936Y-451011118D01*
X664264892Y-451252175D01*
X664264890Y-451252187D01*
X664244357Y-451499994D01*
X664244357Y-451500005D01*
X658750500Y-451500005D01*
X658750500Y-439000005D01*
X664744357Y-439000005D01*
X664764890Y-439247812D01*
X664764892Y-439247824D01*
X664825936Y-439488881D01*
X664925826Y-439716606D01*
X665061833Y-439924782D01*
X665061836Y-439924785D01*
X665230256Y-440107738D01*
X665426491Y-440260474D01*
X665645190Y-440378828D01*
X665880386Y-440459571D01*
X666125665Y-440500500D01*
X666374335Y-440500500D01*
X666619614Y-440459571D01*
X666854810Y-440378828D01*
X667073509Y-440260474D01*
X667269744Y-440107738D01*
X667438164Y-439924785D01*
X667574173Y-439716607D01*
X667674063Y-439488881D01*
X667735108Y-439247821D01*
X667739361Y-439196497D01*
X667755643Y-439000005D01*
X667755643Y-438999994D01*
X667735109Y-438752187D01*
X667735107Y-438752175D01*
X667674063Y-438511118D01*
X667574173Y-438283393D01*
X667438166Y-438075217D01*
X667286866Y-437910862D01*
X667269744Y-437892262D01*
X667073509Y-437739526D01*
X667073507Y-437739525D01*
X667073506Y-437739524D01*
X666854811Y-437621172D01*
X666854802Y-437621169D01*
X666619616Y-437540429D01*
X666374335Y-437499500D01*
X666125665Y-437499500D01*
X665880383Y-437540429D01*
X665645197Y-437621169D01*
X665645188Y-437621172D01*
X665426493Y-437739524D01*
X665230257Y-437892261D01*
X665061833Y-438075217D01*
X664925826Y-438283393D01*
X664825936Y-438511118D01*
X664764892Y-438752175D01*
X664764890Y-438752187D01*
X664744357Y-438999994D01*
X664744357Y-439000005D01*
X658750500Y-439000005D01*
X658750500Y-430374500D01*
X658770185Y-430307461D01*
X658822989Y-430261706D01*
X658874500Y-430250500D01*
X737875500Y-430250500D01*
X737942539Y-430270185D01*
G37*
G04 #@! TD.AperFunction*
M02*
