M48
; DRILL file {KiCad 7.0.8} date Fri Dec 22 21:17:53 2023
; FORMAT={-:-/ absolute / metric / decimal}
; #@! TF.CreationDate,2023-12-22T21:17:53-07:00
; #@! TF.GenerationSoftware,Kicad,Pcbnew,7.0.8
; #@! TF.FileFunction,Plated,1,2,PTH
FMAT,2
METRIC
; #@! TA.AperFunction,Plated,PTH,ViaDrill
T1C0.400
; #@! TA.AperFunction,Plated,PTH,ComponentDrill
T2C0.750
; #@! TA.AperFunction,Plated,PTH,ComponentDrill
T3C0.800
; #@! TA.AperFunction,Plated,PTH,ComponentDrill
T4C0.900
; #@! TA.AperFunction,Plated,PTH,ComponentDrill
T5C1.000
; #@! TA.AperFunction,Plated,PTH,ComponentDrill
T6C1.100
%
G90
G05
T1
X326.0Y-479.25
X326.5Y-417.25
X358.055Y-434.53
X359.055Y-410.53
X409.615Y-447.73
X417.555Y-426.28
X453.225Y-446.9
X455.725Y-410.23
X514.645Y-410.23
X526.98Y-445.53
X549.25Y-435.0
X550.25Y-411.0
X600.81Y-448.2
X608.75Y-426.75
X644.42Y-447.37
X646.92Y-410.7
X705.84Y-410.7
X718.175Y-446.0
T2
X394.445Y-448.53
X394.445Y-449.8
X394.445Y-451.07
X394.445Y-454.01
X394.445Y-455.28
X394.445Y-456.55
X401.305Y-448.51
X401.305Y-449.78
X401.305Y-451.05
X416.075Y-481.5
X416.075Y-482.77
X416.075Y-484.04
X416.075Y-486.98
X416.075Y-488.25
X416.075Y-489.52
X422.935Y-481.48
X422.935Y-482.75
X422.935Y-484.02
X438.055Y-447.7
X438.055Y-448.97
X438.055Y-450.24
X438.055Y-453.18
X438.055Y-454.45
X438.055Y-455.72
X440.555Y-411.03
X440.555Y-412.3
X440.555Y-413.57
X440.555Y-416.51
X440.555Y-417.78
X440.555Y-419.05
X444.915Y-447.68
X444.915Y-448.95
X444.915Y-450.22
X447.415Y-411.01
X447.415Y-412.28
X447.415Y-413.55
X496.805Y-411.53
X496.805Y-412.8
X496.805Y-414.07
X496.805Y-417.01
X496.805Y-418.28
X496.805Y-419.55
X503.665Y-411.51
X503.665Y-412.78
X503.665Y-414.05
X509.14Y-446.83
X509.14Y-448.1
X509.14Y-449.37
X509.14Y-452.31
X509.14Y-453.58
X509.14Y-454.85
X516.0Y-446.81
X516.0Y-448.08
X516.0Y-449.35
X522.0Y-480.67
X522.0Y-481.94
X522.0Y-483.21
X522.0Y-486.15
X522.0Y-487.42
X522.0Y-488.69
X528.86Y-480.65
X528.86Y-481.92
X528.86Y-483.19
X585.64Y-449.0
X585.64Y-450.27
X585.64Y-451.54
X585.64Y-454.48
X585.64Y-455.75
X585.64Y-457.02
X592.5Y-448.98
X592.5Y-450.25
X592.5Y-451.52
X629.25Y-448.17
X629.25Y-449.44
X629.25Y-450.71
X629.25Y-453.65
X629.25Y-454.92
X629.25Y-456.19
X631.75Y-411.5
X631.75Y-412.77
X631.75Y-414.04
X631.75Y-416.98
X631.75Y-418.25
X631.75Y-419.52
X636.11Y-448.15
X636.11Y-449.42
X636.11Y-450.69
X638.61Y-411.48
X638.61Y-412.75
X638.61Y-414.02
X688.0Y-412.0
X688.0Y-413.27
X688.0Y-414.54
X688.0Y-417.48
X688.0Y-418.75
X688.0Y-420.02
X694.86Y-411.98
X694.86Y-413.25
X694.86Y-414.52
X700.335Y-447.3
X700.335Y-448.57
X700.335Y-449.84
X700.335Y-452.78
X700.335Y-454.05
X700.335Y-455.32
X707.195Y-447.28
X707.195Y-448.55
X707.195Y-449.82
T3
X373.955Y-439.98
X373.955Y-452.48
X384.115Y-439.98
X384.115Y-452.48
X394.445Y-435.45
X394.445Y-445.61
X395.585Y-472.95
X395.585Y-485.45
X405.745Y-472.95
X405.745Y-485.45
X416.075Y-468.42
X416.075Y-478.58
X417.565Y-439.15
X417.565Y-451.65
X420.065Y-402.48
X420.065Y-414.98
X427.725Y-439.15
X427.725Y-451.65
X430.225Y-402.48
X430.225Y-414.98
X438.055Y-434.62
X438.055Y-444.78
X440.555Y-397.95
X440.555Y-408.11
X476.315Y-402.98
X476.315Y-415.48
X486.475Y-402.98
X486.475Y-415.48
X488.65Y-438.28
X488.65Y-450.78
X496.805Y-398.45
X496.805Y-408.61
X498.81Y-438.28
X498.81Y-450.78
X501.51Y-472.12
X501.51Y-484.62
X509.14Y-433.75
X509.14Y-443.91
X511.67Y-472.12
X511.67Y-484.62
X522.0Y-467.59
X522.0Y-477.75
X565.15Y-440.45
X565.15Y-452.95
X575.31Y-440.45
X575.31Y-452.95
X585.64Y-435.92
X585.64Y-446.08
X608.76Y-439.62
X608.76Y-452.12
X611.26Y-402.95
X611.26Y-415.45
X618.92Y-439.62
X618.92Y-452.12
X621.42Y-402.95
X621.42Y-415.45
X629.25Y-435.09
X629.25Y-445.25
X631.75Y-398.42
X631.75Y-408.58
X667.51Y-403.45
X667.51Y-415.95
X677.67Y-403.45
X677.67Y-415.95
X679.845Y-438.75
X679.845Y-451.25
X688.0Y-398.92
X688.0Y-409.08
X690.005Y-438.75
X690.005Y-451.25
X700.335Y-434.22
X700.335Y-444.38
X734.0Y-394.42
X734.0Y-404.58
X736.0Y-429.67
X736.0Y-439.83
T4
X733.235Y-446.25
X734.0Y-408.46
X734.0Y-411.0
X735.775Y-446.25
T5
X335.0Y-372.25
X337.54Y-372.25
T6
X315.0Y-410.75
X315.0Y-417.25
X316.75Y-478.0
X316.75Y-484.5
X319.5Y-410.75
X319.5Y-417.25
X321.25Y-478.0
X321.25Y-484.5
T0
M30
