G04 #@! TF.GenerationSoftware,KiCad,Pcbnew,7.0.8*
G04 #@! TF.CreationDate,2023-12-22T21:50:32-07:00*
G04 #@! TF.ProjectId,Sandbox,53616e64-626f-4782-9e6b-696361645f70,rev?*
G04 #@! TF.SameCoordinates,Original*
G04 #@! TF.FileFunction,Legend,Bot*
G04 #@! TF.FilePolarity,Positive*
%FSLAX46Y46*%
G04 Gerber Fmt 4.6, Leading zero omitted, Abs format (unit mm)*
G04 Created by KiCad (PCBNEW 7.0.8) date 2023-12-22 21:50:32*
%MOMM*%
%LPD*%
G01*
G04 APERTURE LIST*
%ADD10C,0.350000*%
%ADD11R,1.500000X1.050000*%
%ADD12O,1.500000X1.050000*%
%ADD13C,2.000000*%
%ADD14C,1.600000*%
%ADD15O,1.600000X1.600000*%
%ADD16R,1.800000X1.800000*%
%ADD17C,1.800000*%
G04 APERTURE END LIST*
D10*
X675134657Y-435194548D02*
X672134657Y-435194548D01*
X672134657Y-435194548D02*
X675134657Y-436908834D01*
X675134657Y-436908834D02*
X672134657Y-436908834D01*
X674277514Y-438194548D02*
X674277514Y-439623120D01*
X675134657Y-437908834D02*
X672134657Y-438908834D01*
X672134657Y-438908834D02*
X675134657Y-439908834D01*
X675134657Y-440908834D02*
X672134657Y-440908834D01*
X672134657Y-440908834D02*
X675134657Y-442623120D01*
X675134657Y-442623120D02*
X672134657Y-442623120D01*
X675134657Y-444051691D02*
X672134657Y-444051691D01*
X672134657Y-444051691D02*
X672134657Y-444765977D01*
X672134657Y-444765977D02*
X672277514Y-445194548D01*
X672277514Y-445194548D02*
X672563228Y-445480263D01*
X672563228Y-445480263D02*
X672848942Y-445623120D01*
X672848942Y-445623120D02*
X673420371Y-445765977D01*
X673420371Y-445765977D02*
X673848942Y-445765977D01*
X673848942Y-445765977D02*
X674420371Y-445623120D01*
X674420371Y-445623120D02*
X674706085Y-445480263D01*
X674706085Y-445480263D02*
X674991800Y-445194548D01*
X674991800Y-445194548D02*
X675134657Y-444765977D01*
X675134657Y-444765977D02*
X675134657Y-444051691D01*
X672277514Y-450908834D02*
X672134657Y-450623120D01*
X672134657Y-450623120D02*
X672134657Y-450194548D01*
X672134657Y-450194548D02*
X672277514Y-449765977D01*
X672277514Y-449765977D02*
X672563228Y-449480262D01*
X672563228Y-449480262D02*
X672848942Y-449337405D01*
X672848942Y-449337405D02*
X673420371Y-449194548D01*
X673420371Y-449194548D02*
X673848942Y-449194548D01*
X673848942Y-449194548D02*
X674420371Y-449337405D01*
X674420371Y-449337405D02*
X674706085Y-449480262D01*
X674706085Y-449480262D02*
X674991800Y-449765977D01*
X674991800Y-449765977D02*
X675134657Y-450194548D01*
X675134657Y-450194548D02*
X675134657Y-450480262D01*
X675134657Y-450480262D02*
X674991800Y-450908834D01*
X674991800Y-450908834D02*
X674848942Y-451051691D01*
X674848942Y-451051691D02*
X673848942Y-451051691D01*
X673848942Y-451051691D02*
X673848942Y-450480262D01*
X674277514Y-452194548D02*
X674277514Y-453623120D01*
X675134657Y-451908834D02*
X672134657Y-452908834D01*
X672134657Y-452908834D02*
X675134657Y-453908834D01*
X672134657Y-454480263D02*
X672134657Y-456194549D01*
X675134657Y-455337406D02*
X672134657Y-455337406D01*
X673563228Y-457194548D02*
X673563228Y-458194548D01*
X675134657Y-458623120D02*
X675134657Y-457194548D01*
X675134657Y-457194548D02*
X672134657Y-457194548D01*
X672134657Y-457194548D02*
X672134657Y-458623120D01*
X679107514Y-435051691D02*
X679107514Y-436480263D01*
X679964657Y-434765977D02*
X676964657Y-435765977D01*
X676964657Y-435765977D02*
X679964657Y-436765977D01*
X680964657Y-440765977D02*
X676678942Y-440765977D01*
X678393228Y-446194548D02*
X678536085Y-446623120D01*
X678536085Y-446623120D02*
X678678942Y-446765977D01*
X678678942Y-446765977D02*
X678964657Y-446908834D01*
X678964657Y-446908834D02*
X679393228Y-446908834D01*
X679393228Y-446908834D02*
X679678942Y-446765977D01*
X679678942Y-446765977D02*
X679821800Y-446623120D01*
X679821800Y-446623120D02*
X679964657Y-446337405D01*
X679964657Y-446337405D02*
X679964657Y-445194548D01*
X679964657Y-445194548D02*
X676964657Y-445194548D01*
X676964657Y-445194548D02*
X676964657Y-446194548D01*
X676964657Y-446194548D02*
X677107514Y-446480263D01*
X677107514Y-446480263D02*
X677250371Y-446623120D01*
X677250371Y-446623120D02*
X677536085Y-446765977D01*
X677536085Y-446765977D02*
X677821800Y-446765977D01*
X677821800Y-446765977D02*
X678107514Y-446623120D01*
X678107514Y-446623120D02*
X678250371Y-446480263D01*
X678250371Y-446480263D02*
X678393228Y-446194548D01*
X678393228Y-446194548D02*
X678393228Y-445194548D01*
X680964657Y-451194548D02*
X676678942Y-451194548D01*
X679678942Y-457337405D02*
X679821800Y-457194548D01*
X679821800Y-457194548D02*
X679964657Y-456765976D01*
X679964657Y-456765976D02*
X679964657Y-456480262D01*
X679964657Y-456480262D02*
X679821800Y-456051691D01*
X679821800Y-456051691D02*
X679536085Y-455765976D01*
X679536085Y-455765976D02*
X679250371Y-455623119D01*
X679250371Y-455623119D02*
X678678942Y-455480262D01*
X678678942Y-455480262D02*
X678250371Y-455480262D01*
X678250371Y-455480262D02*
X677678942Y-455623119D01*
X677678942Y-455623119D02*
X677393228Y-455765976D01*
X677393228Y-455765976D02*
X677107514Y-456051691D01*
X677107514Y-456051691D02*
X676964657Y-456480262D01*
X676964657Y-456480262D02*
X676964657Y-456765976D01*
X676964657Y-456765976D02*
X677107514Y-457194548D01*
X677107514Y-457194548D02*
X677250371Y-457337405D01*
X683651800Y-435194548D02*
X683651800Y-437480263D01*
X683651800Y-438908834D02*
X683651800Y-441194549D01*
X683651800Y-442623120D02*
X683651800Y-444908835D01*
X683651800Y-446337406D02*
X683651800Y-448623121D01*
X683651800Y-450051692D02*
X683651800Y-452337407D01*
X683651800Y-453765978D02*
X683651800Y-456051693D01*
X686624657Y-435765977D02*
X686624657Y-436051691D01*
X686624657Y-436051691D02*
X686767514Y-436337405D01*
X686767514Y-436337405D02*
X686910371Y-436480263D01*
X686910371Y-436480263D02*
X687196085Y-436623120D01*
X687196085Y-436623120D02*
X687767514Y-436765977D01*
X687767514Y-436765977D02*
X688481800Y-436765977D01*
X688481800Y-436765977D02*
X689053228Y-436623120D01*
X689053228Y-436623120D02*
X689338942Y-436480263D01*
X689338942Y-436480263D02*
X689481800Y-436337405D01*
X689481800Y-436337405D02*
X689624657Y-436051691D01*
X689624657Y-436051691D02*
X689624657Y-435765977D01*
X689624657Y-435765977D02*
X689481800Y-435480263D01*
X689481800Y-435480263D02*
X689338942Y-435337405D01*
X689338942Y-435337405D02*
X689053228Y-435194548D01*
X689053228Y-435194548D02*
X688481800Y-435051691D01*
X688481800Y-435051691D02*
X687767514Y-435051691D01*
X687767514Y-435051691D02*
X687196085Y-435194548D01*
X687196085Y-435194548D02*
X686910371Y-435337405D01*
X686910371Y-435337405D02*
X686767514Y-435480263D01*
X686767514Y-435480263D02*
X686624657Y-435765977D01*
X690624657Y-441051691D02*
X686338942Y-441051691D01*
X686624657Y-446051691D02*
X686624657Y-446337405D01*
X686624657Y-446337405D02*
X686767514Y-446623119D01*
X686767514Y-446623119D02*
X686910371Y-446765977D01*
X686910371Y-446765977D02*
X687196085Y-446908834D01*
X687196085Y-446908834D02*
X687767514Y-447051691D01*
X687767514Y-447051691D02*
X688481800Y-447051691D01*
X688481800Y-447051691D02*
X689053228Y-446908834D01*
X689053228Y-446908834D02*
X689338942Y-446765977D01*
X689338942Y-446765977D02*
X689481800Y-446623119D01*
X689481800Y-446623119D02*
X689624657Y-446337405D01*
X689624657Y-446337405D02*
X689624657Y-446051691D01*
X689624657Y-446051691D02*
X689481800Y-445765977D01*
X689481800Y-445765977D02*
X689338942Y-445623119D01*
X689338942Y-445623119D02*
X689053228Y-445480262D01*
X689053228Y-445480262D02*
X688481800Y-445337405D01*
X688481800Y-445337405D02*
X687767514Y-445337405D01*
X687767514Y-445337405D02*
X687196085Y-445480262D01*
X687196085Y-445480262D02*
X686910371Y-445623119D01*
X686910371Y-445623119D02*
X686767514Y-445765977D01*
X686767514Y-445765977D02*
X686624657Y-446051691D01*
X690624657Y-451337405D02*
X686338942Y-451337405D01*
X689624657Y-457337405D02*
X689624657Y-455623119D01*
X689624657Y-456480262D02*
X686624657Y-456480262D01*
X686624657Y-456480262D02*
X687053228Y-456194548D01*
X687053228Y-456194548D02*
X687338942Y-455908833D01*
X687338942Y-455908833D02*
X687481800Y-455623119D01*
X691454657Y-435765977D02*
X691454657Y-436051691D01*
X691454657Y-436051691D02*
X691597514Y-436337405D01*
X691597514Y-436337405D02*
X691740371Y-436480263D01*
X691740371Y-436480263D02*
X692026085Y-436623120D01*
X692026085Y-436623120D02*
X692597514Y-436765977D01*
X692597514Y-436765977D02*
X693311800Y-436765977D01*
X693311800Y-436765977D02*
X693883228Y-436623120D01*
X693883228Y-436623120D02*
X694168942Y-436480263D01*
X694168942Y-436480263D02*
X694311800Y-436337405D01*
X694311800Y-436337405D02*
X694454657Y-436051691D01*
X694454657Y-436051691D02*
X694454657Y-435765977D01*
X694454657Y-435765977D02*
X694311800Y-435480263D01*
X694311800Y-435480263D02*
X694168942Y-435337405D01*
X694168942Y-435337405D02*
X693883228Y-435194548D01*
X693883228Y-435194548D02*
X693311800Y-435051691D01*
X693311800Y-435051691D02*
X692597514Y-435051691D01*
X692597514Y-435051691D02*
X692026085Y-435194548D01*
X692026085Y-435194548D02*
X691740371Y-435337405D01*
X691740371Y-435337405D02*
X691597514Y-435480263D01*
X691597514Y-435480263D02*
X691454657Y-435765977D01*
X695454657Y-441051691D02*
X691168942Y-441051691D01*
X694454657Y-447051691D02*
X694454657Y-445337405D01*
X694454657Y-446194548D02*
X691454657Y-446194548D01*
X691454657Y-446194548D02*
X691883228Y-445908834D01*
X691883228Y-445908834D02*
X692168942Y-445623119D01*
X692168942Y-445623119D02*
X692311800Y-445337405D01*
X695454657Y-451337405D02*
X691168942Y-451337405D01*
X694454657Y-457337405D02*
X694454657Y-455623119D01*
X694454657Y-456480262D02*
X691454657Y-456480262D01*
X691454657Y-456480262D02*
X691883228Y-456194548D01*
X691883228Y-456194548D02*
X692168942Y-455908833D01*
X692168942Y-455908833D02*
X692311800Y-455623119D01*
X699284657Y-436765977D02*
X699284657Y-435051691D01*
X699284657Y-435908834D02*
X696284657Y-435908834D01*
X696284657Y-435908834D02*
X696713228Y-435623120D01*
X696713228Y-435623120D02*
X696998942Y-435337405D01*
X696998942Y-435337405D02*
X697141800Y-435051691D01*
X700284657Y-441051691D02*
X695998942Y-441051691D01*
X696284657Y-446051691D02*
X696284657Y-446337405D01*
X696284657Y-446337405D02*
X696427514Y-446623119D01*
X696427514Y-446623119D02*
X696570371Y-446765977D01*
X696570371Y-446765977D02*
X696856085Y-446908834D01*
X696856085Y-446908834D02*
X697427514Y-447051691D01*
X697427514Y-447051691D02*
X698141800Y-447051691D01*
X698141800Y-447051691D02*
X698713228Y-446908834D01*
X698713228Y-446908834D02*
X698998942Y-446765977D01*
X698998942Y-446765977D02*
X699141800Y-446623119D01*
X699141800Y-446623119D02*
X699284657Y-446337405D01*
X699284657Y-446337405D02*
X699284657Y-446051691D01*
X699284657Y-446051691D02*
X699141800Y-445765977D01*
X699141800Y-445765977D02*
X698998942Y-445623119D01*
X698998942Y-445623119D02*
X698713228Y-445480262D01*
X698713228Y-445480262D02*
X698141800Y-445337405D01*
X698141800Y-445337405D02*
X697427514Y-445337405D01*
X697427514Y-445337405D02*
X696856085Y-445480262D01*
X696856085Y-445480262D02*
X696570371Y-445623119D01*
X696570371Y-445623119D02*
X696427514Y-445765977D01*
X696427514Y-445765977D02*
X696284657Y-446051691D01*
X700284657Y-451337405D02*
X695998942Y-451337405D01*
X699284657Y-457337405D02*
X699284657Y-455623119D01*
X699284657Y-456480262D02*
X696284657Y-456480262D01*
X696284657Y-456480262D02*
X696713228Y-456194548D01*
X696713228Y-456194548D02*
X696998942Y-455908833D01*
X696998942Y-455908833D02*
X697141800Y-455623119D01*
X704114657Y-436765977D02*
X704114657Y-435051691D01*
X704114657Y-435908834D02*
X701114657Y-435908834D01*
X701114657Y-435908834D02*
X701543228Y-435623120D01*
X701543228Y-435623120D02*
X701828942Y-435337405D01*
X701828942Y-435337405D02*
X701971800Y-435051691D01*
X705114657Y-441051691D02*
X700828942Y-441051691D01*
X704114657Y-447051691D02*
X704114657Y-445337405D01*
X704114657Y-446194548D02*
X701114657Y-446194548D01*
X701114657Y-446194548D02*
X701543228Y-445908834D01*
X701543228Y-445908834D02*
X701828942Y-445623119D01*
X701828942Y-445623119D02*
X701971800Y-445337405D01*
X705114657Y-451337405D02*
X700828942Y-451337405D01*
X701114657Y-456337405D02*
X701114657Y-456623119D01*
X701114657Y-456623119D02*
X701257514Y-456908833D01*
X701257514Y-456908833D02*
X701400371Y-457051691D01*
X701400371Y-457051691D02*
X701686085Y-457194548D01*
X701686085Y-457194548D02*
X702257514Y-457337405D01*
X702257514Y-457337405D02*
X702971800Y-457337405D01*
X702971800Y-457337405D02*
X703543228Y-457194548D01*
X703543228Y-457194548D02*
X703828942Y-457051691D01*
X703828942Y-457051691D02*
X703971800Y-456908833D01*
X703971800Y-456908833D02*
X704114657Y-456623119D01*
X704114657Y-456623119D02*
X704114657Y-456337405D01*
X704114657Y-456337405D02*
X703971800Y-456051691D01*
X703971800Y-456051691D02*
X703828942Y-455908833D01*
X703828942Y-455908833D02*
X703543228Y-455765976D01*
X703543228Y-455765976D02*
X702971800Y-455623119D01*
X702971800Y-455623119D02*
X702257514Y-455623119D01*
X702257514Y-455623119D02*
X701686085Y-455765976D01*
X701686085Y-455765976D02*
X701400371Y-455908833D01*
X701400371Y-455908833D02*
X701257514Y-456051691D01*
X701257514Y-456051691D02*
X701114657Y-456337405D01*
%LPC*%
D11*
X700335000Y-449840000D03*
D12*
X700335000Y-448570000D03*
X700335000Y-447300000D03*
D13*
X666250000Y-434500000D03*
X672750000Y-434500000D03*
X666250000Y-439000000D03*
X672750000Y-439000000D03*
D14*
X700335000Y-434220000D03*
D15*
X700335000Y-444380000D03*
D13*
X665750000Y-451500000D03*
X672250000Y-451500000D03*
X665750000Y-456000000D03*
X672250000Y-456000000D03*
D14*
X679845001Y-451250000D03*
D15*
X690005001Y-451250000D03*
D14*
X725670000Y-446000000D03*
D15*
X735830000Y-446000000D03*
D14*
X679845001Y-438750001D03*
D15*
X690005001Y-438750001D03*
D11*
X700335000Y-455320000D03*
D12*
X700335000Y-454050000D03*
X700335000Y-452780000D03*
D16*
X722250000Y-445750000D03*
D17*
X719710000Y-445750000D03*
D11*
X707195000Y-449820000D03*
D12*
X707195000Y-448550000D03*
X707195000Y-447280000D03*
%LPD*%
M02*
