%TF.GenerationSoftware,KiCad,Pcbnew,7.0.8*%
%TF.CreationDate,2023-12-22T21:50:36-07:00*%
%TF.ProjectId,Sandbox,53616e64-626f-4782-9e6b-696361645f70,rev?*%
%TF.SameCoordinates,Original*%
%TF.FileFunction,Drillmap*%
%TF.FilePolarity,Positive*%
%FSLAX45Y45*%
G04 Gerber Fmt 4.5, Leading zero omitted, Abs format (unit mm)*
G04 Created by KiCad (PCBNEW 7.0.8) date 2023-12-22 21:50:36*
%MOMM*%
%LPD*%
G01*
G04 APERTURE LIST*
%ADD10C,0.100000*%
%ADD11C,0.200000*%
%ADD12C,0.040000*%
%ADD13C,0.075000*%
%ADD14C,0.080000*%
%ADD15C,0.090000*%
%ADD16C,0.110000*%
G04 APERTURE END LIST*
D10*
X65875000Y-43025000D02*
X73800000Y-43025000D01*
X73800000Y-46300000D01*
X65875000Y-46300000D01*
X65875000Y-43025000D01*
D11*
D12*
X71580000Y-44580000D02*
X71620000Y-44620000D01*
X71620000Y-44580000D02*
X71580000Y-44620000D01*
D13*
X70071000Y-44730000D02*
G75*
G03*
X70071000Y-44730000I-37500J0D01*
G01*
X70071000Y-44857000D02*
G75*
G03*
X70071000Y-44857000I-37500J0D01*
G01*
X70071000Y-44984000D02*
G75*
G03*
X70071000Y-44984000I-37500J0D01*
G01*
X70071000Y-45278000D02*
G75*
G03*
X70071000Y-45278000I-37500J0D01*
G01*
X70071000Y-45405000D02*
G75*
G03*
X70071000Y-45405000I-37500J0D01*
G01*
X70071000Y-45532000D02*
G75*
G03*
X70071000Y-45532000I-37500J0D01*
G01*
X70757000Y-44728000D02*
G75*
G03*
X70757000Y-44728000I-37500J0D01*
G01*
X70757000Y-44855000D02*
G75*
G03*
X70757000Y-44855000I-37500J0D01*
G01*
X70757000Y-44982000D02*
G75*
G03*
X70757000Y-44982000I-37500J0D01*
G01*
D14*
X67984500Y-43835000D02*
X67984500Y-43915000D01*
X67944500Y-43875000D02*
X68024500Y-43875000D01*
X67984500Y-45085000D02*
X67984500Y-45165000D01*
X67944500Y-45125000D02*
X68024500Y-45125000D01*
X69000500Y-43835000D02*
X69000500Y-43915000D01*
X68960500Y-43875000D02*
X69040500Y-43875000D01*
X69000500Y-45085000D02*
X69000500Y-45165000D01*
X68960500Y-45125000D02*
X69040500Y-45125000D01*
X70033500Y-43382000D02*
X70033500Y-43462000D01*
X69993500Y-43422000D02*
X70073500Y-43422000D01*
X70033500Y-44398000D02*
X70033500Y-44478000D01*
X69993500Y-44438000D02*
X70073500Y-44438000D01*
X72567000Y-44560000D02*
X72567000Y-44640000D01*
X72527000Y-44600000D02*
X72607000Y-44600000D01*
X73583000Y-44560000D02*
X73583000Y-44640000D01*
X73543000Y-44600000D02*
X73623000Y-44600000D01*
D15*
X72002820Y-44606820D02*
X72002820Y-44543180D01*
X71939180Y-44543180D01*
X71939180Y-44606820D01*
X72002820Y-44606820D01*
X72256820Y-44606820D02*
X72256820Y-44543180D01*
X72193180Y-44543180D01*
X72193180Y-44606820D01*
X72256820Y-44606820D01*
D16*
X66575000Y-45205000D02*
X66630000Y-45150000D01*
X66575000Y-45095000D01*
X66520000Y-45150000D01*
X66575000Y-45205000D01*
X66575000Y-45655000D02*
X66630000Y-45600000D01*
X66575000Y-45545000D01*
X66520000Y-45600000D01*
X66575000Y-45655000D01*
X66625000Y-43505000D02*
X66680000Y-43450000D01*
X66625000Y-43395000D01*
X66570000Y-43450000D01*
X66625000Y-43505000D01*
X66625000Y-43955000D02*
X66680000Y-43900000D01*
X66625000Y-43845000D01*
X66570000Y-43900000D01*
X66625000Y-43955000D01*
X67225000Y-45205000D02*
X67280000Y-45150000D01*
X67225000Y-45095000D01*
X67170000Y-45150000D01*
X67225000Y-45205000D01*
X67225000Y-45655000D02*
X67280000Y-45600000D01*
X67225000Y-45545000D01*
X67170000Y-45600000D01*
X67225000Y-45655000D01*
X67275000Y-43505000D02*
X67330000Y-43450000D01*
X67275000Y-43395000D01*
X67220000Y-43450000D01*
X67275000Y-43505000D01*
X67275000Y-43955000D02*
X67330000Y-43900000D01*
X67275000Y-43845000D01*
X67220000Y-43900000D01*
X67275000Y-43955000D01*
D11*
X66130777Y-46616484D02*
X66130777Y-46416484D01*
X66130777Y-46416484D02*
X66178396Y-46416484D01*
X66178396Y-46416484D02*
X66206967Y-46426008D01*
X66206967Y-46426008D02*
X66226015Y-46445055D01*
X66226015Y-46445055D02*
X66235539Y-46464103D01*
X66235539Y-46464103D02*
X66245062Y-46502198D01*
X66245062Y-46502198D02*
X66245062Y-46530769D01*
X66245062Y-46530769D02*
X66235539Y-46568865D01*
X66235539Y-46568865D02*
X66226015Y-46587912D01*
X66226015Y-46587912D02*
X66206967Y-46606960D01*
X66206967Y-46606960D02*
X66178396Y-46616484D01*
X66178396Y-46616484D02*
X66130777Y-46616484D01*
X66330777Y-46616484D02*
X66330777Y-46483150D01*
X66330777Y-46521246D02*
X66340301Y-46502198D01*
X66340301Y-46502198D02*
X66349824Y-46492674D01*
X66349824Y-46492674D02*
X66368872Y-46483150D01*
X66368872Y-46483150D02*
X66387920Y-46483150D01*
X66454586Y-46616484D02*
X66454586Y-46483150D01*
X66454586Y-46416484D02*
X66445062Y-46426008D01*
X66445062Y-46426008D02*
X66454586Y-46435531D01*
X66454586Y-46435531D02*
X66464110Y-46426008D01*
X66464110Y-46426008D02*
X66454586Y-46416484D01*
X66454586Y-46416484D02*
X66454586Y-46435531D01*
X66578396Y-46616484D02*
X66559348Y-46606960D01*
X66559348Y-46606960D02*
X66549824Y-46587912D01*
X66549824Y-46587912D02*
X66549824Y-46416484D01*
X66683158Y-46616484D02*
X66664110Y-46606960D01*
X66664110Y-46606960D02*
X66654586Y-46587912D01*
X66654586Y-46587912D02*
X66654586Y-46416484D01*
X66911729Y-46616484D02*
X66911729Y-46416484D01*
X66911729Y-46416484D02*
X66978396Y-46559341D01*
X66978396Y-46559341D02*
X67045062Y-46416484D01*
X67045062Y-46416484D02*
X67045062Y-46616484D01*
X67226015Y-46616484D02*
X67226015Y-46511722D01*
X67226015Y-46511722D02*
X67216491Y-46492674D01*
X67216491Y-46492674D02*
X67197444Y-46483150D01*
X67197444Y-46483150D02*
X67159348Y-46483150D01*
X67159348Y-46483150D02*
X67140301Y-46492674D01*
X67226015Y-46606960D02*
X67206967Y-46616484D01*
X67206967Y-46616484D02*
X67159348Y-46616484D01*
X67159348Y-46616484D02*
X67140301Y-46606960D01*
X67140301Y-46606960D02*
X67130777Y-46587912D01*
X67130777Y-46587912D02*
X67130777Y-46568865D01*
X67130777Y-46568865D02*
X67140301Y-46549817D01*
X67140301Y-46549817D02*
X67159348Y-46540293D01*
X67159348Y-46540293D02*
X67206967Y-46540293D01*
X67206967Y-46540293D02*
X67226015Y-46530769D01*
X67321253Y-46483150D02*
X67321253Y-46683150D01*
X67321253Y-46492674D02*
X67340301Y-46483150D01*
X67340301Y-46483150D02*
X67378396Y-46483150D01*
X67378396Y-46483150D02*
X67397444Y-46492674D01*
X67397444Y-46492674D02*
X67406967Y-46502198D01*
X67406967Y-46502198D02*
X67416491Y-46521246D01*
X67416491Y-46521246D02*
X67416491Y-46578388D01*
X67416491Y-46578388D02*
X67406967Y-46597436D01*
X67406967Y-46597436D02*
X67397444Y-46606960D01*
X67397444Y-46606960D02*
X67378396Y-46616484D01*
X67378396Y-46616484D02*
X67340301Y-46616484D01*
X67340301Y-46616484D02*
X67321253Y-46606960D01*
X67502205Y-46597436D02*
X67511729Y-46606960D01*
X67511729Y-46606960D02*
X67502205Y-46616484D01*
X67502205Y-46616484D02*
X67492682Y-46606960D01*
X67492682Y-46606960D02*
X67502205Y-46597436D01*
X67502205Y-46597436D02*
X67502205Y-46616484D01*
X67502205Y-46492674D02*
X67511729Y-46502198D01*
X67511729Y-46502198D02*
X67502205Y-46511722D01*
X67502205Y-46511722D02*
X67492682Y-46502198D01*
X67492682Y-46502198D02*
X67502205Y-46492674D01*
X67502205Y-46492674D02*
X67502205Y-46511722D01*
D12*
X65830000Y-46925000D02*
X65870000Y-46965000D01*
X65870000Y-46925000D02*
X65830000Y-46965000D01*
D11*
X66168872Y-46836484D02*
X66187920Y-46836484D01*
X66187920Y-46836484D02*
X66206967Y-46846008D01*
X66206967Y-46846008D02*
X66216491Y-46855531D01*
X66216491Y-46855531D02*
X66226015Y-46874579D01*
X66226015Y-46874579D02*
X66235539Y-46912674D01*
X66235539Y-46912674D02*
X66235539Y-46960293D01*
X66235539Y-46960293D02*
X66226015Y-46998388D01*
X66226015Y-46998388D02*
X66216491Y-47017436D01*
X66216491Y-47017436D02*
X66206967Y-47026960D01*
X66206967Y-47026960D02*
X66187920Y-47036484D01*
X66187920Y-47036484D02*
X66168872Y-47036484D01*
X66168872Y-47036484D02*
X66149824Y-47026960D01*
X66149824Y-47026960D02*
X66140301Y-47017436D01*
X66140301Y-47017436D02*
X66130777Y-46998388D01*
X66130777Y-46998388D02*
X66121253Y-46960293D01*
X66121253Y-46960293D02*
X66121253Y-46912674D01*
X66121253Y-46912674D02*
X66130777Y-46874579D01*
X66130777Y-46874579D02*
X66140301Y-46855531D01*
X66140301Y-46855531D02*
X66149824Y-46846008D01*
X66149824Y-46846008D02*
X66168872Y-46836484D01*
X66321253Y-47017436D02*
X66330777Y-47026960D01*
X66330777Y-47026960D02*
X66321253Y-47036484D01*
X66321253Y-47036484D02*
X66311729Y-47026960D01*
X66311729Y-47026960D02*
X66321253Y-47017436D01*
X66321253Y-47017436D02*
X66321253Y-47036484D01*
X66502205Y-46903150D02*
X66502205Y-47036484D01*
X66454586Y-46826960D02*
X66406967Y-46969817D01*
X66406967Y-46969817D02*
X66530777Y-46969817D01*
X66645062Y-46836484D02*
X66664110Y-46836484D01*
X66664110Y-46836484D02*
X66683158Y-46846008D01*
X66683158Y-46846008D02*
X66692682Y-46855531D01*
X66692682Y-46855531D02*
X66702205Y-46874579D01*
X66702205Y-46874579D02*
X66711729Y-46912674D01*
X66711729Y-46912674D02*
X66711729Y-46960293D01*
X66711729Y-46960293D02*
X66702205Y-46998388D01*
X66702205Y-46998388D02*
X66692682Y-47017436D01*
X66692682Y-47017436D02*
X66683158Y-47026960D01*
X66683158Y-47026960D02*
X66664110Y-47036484D01*
X66664110Y-47036484D02*
X66645062Y-47036484D01*
X66645062Y-47036484D02*
X66626015Y-47026960D01*
X66626015Y-47026960D02*
X66616491Y-47017436D01*
X66616491Y-47017436D02*
X66606967Y-46998388D01*
X66606967Y-46998388D02*
X66597443Y-46960293D01*
X66597443Y-46960293D02*
X66597443Y-46912674D01*
X66597443Y-46912674D02*
X66606967Y-46874579D01*
X66606967Y-46874579D02*
X66616491Y-46855531D01*
X66616491Y-46855531D02*
X66626015Y-46846008D01*
X66626015Y-46846008D02*
X66645062Y-46836484D01*
X66835539Y-46836484D02*
X66854586Y-46836484D01*
X66854586Y-46836484D02*
X66873634Y-46846008D01*
X66873634Y-46846008D02*
X66883158Y-46855531D01*
X66883158Y-46855531D02*
X66892682Y-46874579D01*
X66892682Y-46874579D02*
X66902205Y-46912674D01*
X66902205Y-46912674D02*
X66902205Y-46960293D01*
X66902205Y-46960293D02*
X66892682Y-46998388D01*
X66892682Y-46998388D02*
X66883158Y-47017436D01*
X66883158Y-47017436D02*
X66873634Y-47026960D01*
X66873634Y-47026960D02*
X66854586Y-47036484D01*
X66854586Y-47036484D02*
X66835539Y-47036484D01*
X66835539Y-47036484D02*
X66816491Y-47026960D01*
X66816491Y-47026960D02*
X66806967Y-47017436D01*
X66806967Y-47017436D02*
X66797443Y-46998388D01*
X66797443Y-46998388D02*
X66787920Y-46960293D01*
X66787920Y-46960293D02*
X66787920Y-46912674D01*
X66787920Y-46912674D02*
X66797443Y-46874579D01*
X66797443Y-46874579D02*
X66806967Y-46855531D01*
X66806967Y-46855531D02*
X66816491Y-46846008D01*
X66816491Y-46846008D02*
X66835539Y-46836484D01*
X66987920Y-47036484D02*
X66987920Y-46903150D01*
X66987920Y-46922198D02*
X66997443Y-46912674D01*
X66997443Y-46912674D02*
X67016491Y-46903150D01*
X67016491Y-46903150D02*
X67045063Y-46903150D01*
X67045063Y-46903150D02*
X67064110Y-46912674D01*
X67064110Y-46912674D02*
X67073634Y-46931722D01*
X67073634Y-46931722D02*
X67073634Y-47036484D01*
X67073634Y-46931722D02*
X67083158Y-46912674D01*
X67083158Y-46912674D02*
X67102205Y-46903150D01*
X67102205Y-46903150D02*
X67130777Y-46903150D01*
X67130777Y-46903150D02*
X67149825Y-46912674D01*
X67149825Y-46912674D02*
X67159348Y-46931722D01*
X67159348Y-46931722D02*
X67159348Y-47036484D01*
X67254586Y-47036484D02*
X67254586Y-46903150D01*
X67254586Y-46922198D02*
X67264110Y-46912674D01*
X67264110Y-46912674D02*
X67283158Y-46903150D01*
X67283158Y-46903150D02*
X67311729Y-46903150D01*
X67311729Y-46903150D02*
X67330777Y-46912674D01*
X67330777Y-46912674D02*
X67340301Y-46931722D01*
X67340301Y-46931722D02*
X67340301Y-47036484D01*
X67340301Y-46931722D02*
X67349825Y-46912674D01*
X67349825Y-46912674D02*
X67368872Y-46903150D01*
X67368872Y-46903150D02*
X67397444Y-46903150D01*
X67397444Y-46903150D02*
X67416491Y-46912674D01*
X67416491Y-46912674D02*
X67426015Y-46931722D01*
X67426015Y-46931722D02*
X67426015Y-47036484D01*
X67816491Y-46826960D02*
X67645063Y-47084103D01*
X68073634Y-46836484D02*
X68092682Y-46836484D01*
X68092682Y-46836484D02*
X68111729Y-46846008D01*
X68111729Y-46846008D02*
X68121253Y-46855531D01*
X68121253Y-46855531D02*
X68130777Y-46874579D01*
X68130777Y-46874579D02*
X68140301Y-46912674D01*
X68140301Y-46912674D02*
X68140301Y-46960293D01*
X68140301Y-46960293D02*
X68130777Y-46998388D01*
X68130777Y-46998388D02*
X68121253Y-47017436D01*
X68121253Y-47017436D02*
X68111729Y-47026960D01*
X68111729Y-47026960D02*
X68092682Y-47036484D01*
X68092682Y-47036484D02*
X68073634Y-47036484D01*
X68073634Y-47036484D02*
X68054587Y-47026960D01*
X68054587Y-47026960D02*
X68045063Y-47017436D01*
X68045063Y-47017436D02*
X68035539Y-46998388D01*
X68035539Y-46998388D02*
X68026015Y-46960293D01*
X68026015Y-46960293D02*
X68026015Y-46912674D01*
X68026015Y-46912674D02*
X68035539Y-46874579D01*
X68035539Y-46874579D02*
X68045063Y-46855531D01*
X68045063Y-46855531D02*
X68054587Y-46846008D01*
X68054587Y-46846008D02*
X68073634Y-46836484D01*
X68226015Y-47017436D02*
X68235539Y-47026960D01*
X68235539Y-47026960D02*
X68226015Y-47036484D01*
X68226015Y-47036484D02*
X68216491Y-47026960D01*
X68216491Y-47026960D02*
X68226015Y-47017436D01*
X68226015Y-47017436D02*
X68226015Y-47036484D01*
X68359348Y-46836484D02*
X68378396Y-46836484D01*
X68378396Y-46836484D02*
X68397444Y-46846008D01*
X68397444Y-46846008D02*
X68406968Y-46855531D01*
X68406968Y-46855531D02*
X68416491Y-46874579D01*
X68416491Y-46874579D02*
X68426015Y-46912674D01*
X68426015Y-46912674D02*
X68426015Y-46960293D01*
X68426015Y-46960293D02*
X68416491Y-46998388D01*
X68416491Y-46998388D02*
X68406968Y-47017436D01*
X68406968Y-47017436D02*
X68397444Y-47026960D01*
X68397444Y-47026960D02*
X68378396Y-47036484D01*
X68378396Y-47036484D02*
X68359348Y-47036484D01*
X68359348Y-47036484D02*
X68340301Y-47026960D01*
X68340301Y-47026960D02*
X68330777Y-47017436D01*
X68330777Y-47017436D02*
X68321253Y-46998388D01*
X68321253Y-46998388D02*
X68311729Y-46960293D01*
X68311729Y-46960293D02*
X68311729Y-46912674D01*
X68311729Y-46912674D02*
X68321253Y-46874579D01*
X68321253Y-46874579D02*
X68330777Y-46855531D01*
X68330777Y-46855531D02*
X68340301Y-46846008D01*
X68340301Y-46846008D02*
X68359348Y-46836484D01*
X68616491Y-47036484D02*
X68502206Y-47036484D01*
X68559348Y-47036484D02*
X68559348Y-46836484D01*
X68559348Y-46836484D02*
X68540301Y-46865055D01*
X68540301Y-46865055D02*
X68521253Y-46884103D01*
X68521253Y-46884103D02*
X68502206Y-46893627D01*
X68797444Y-46836484D02*
X68702206Y-46836484D01*
X68702206Y-46836484D02*
X68692682Y-46931722D01*
X68692682Y-46931722D02*
X68702206Y-46922198D01*
X68702206Y-46922198D02*
X68721253Y-46912674D01*
X68721253Y-46912674D02*
X68768872Y-46912674D01*
X68768872Y-46912674D02*
X68787920Y-46922198D01*
X68787920Y-46922198D02*
X68797444Y-46931722D01*
X68797444Y-46931722D02*
X68806968Y-46950769D01*
X68806968Y-46950769D02*
X68806968Y-46998388D01*
X68806968Y-46998388D02*
X68797444Y-47017436D01*
X68797444Y-47017436D02*
X68787920Y-47026960D01*
X68787920Y-47026960D02*
X68768872Y-47036484D01*
X68768872Y-47036484D02*
X68721253Y-47036484D01*
X68721253Y-47036484D02*
X68702206Y-47026960D01*
X68702206Y-47026960D02*
X68692682Y-47017436D01*
X68873634Y-46836484D02*
X69006968Y-46836484D01*
X69006968Y-46836484D02*
X68921253Y-47036484D01*
X69073634Y-46836484D02*
X69073634Y-46874579D01*
X69149825Y-46836484D02*
X69149825Y-46874579D01*
X69445063Y-47112674D02*
X69435539Y-47103150D01*
X69435539Y-47103150D02*
X69416491Y-47074579D01*
X69416491Y-47074579D02*
X69406968Y-47055531D01*
X69406968Y-47055531D02*
X69397444Y-47026960D01*
X69397444Y-47026960D02*
X69387920Y-46979341D01*
X69387920Y-46979341D02*
X69387920Y-46941246D01*
X69387920Y-46941246D02*
X69397444Y-46893627D01*
X69397444Y-46893627D02*
X69406968Y-46865055D01*
X69406968Y-46865055D02*
X69416491Y-46846008D01*
X69416491Y-46846008D02*
X69435539Y-46817436D01*
X69435539Y-46817436D02*
X69445063Y-46807912D01*
X69626015Y-47036484D02*
X69511730Y-47036484D01*
X69568872Y-47036484D02*
X69568872Y-46836484D01*
X69568872Y-46836484D02*
X69549825Y-46865055D01*
X69549825Y-46865055D02*
X69530777Y-46884103D01*
X69530777Y-46884103D02*
X69511730Y-46893627D01*
X69864111Y-47036484D02*
X69864111Y-46836484D01*
X69949825Y-47036484D02*
X69949825Y-46931722D01*
X69949825Y-46931722D02*
X69940301Y-46912674D01*
X69940301Y-46912674D02*
X69921253Y-46903150D01*
X69921253Y-46903150D02*
X69892682Y-46903150D01*
X69892682Y-46903150D02*
X69873634Y-46912674D01*
X69873634Y-46912674D02*
X69864111Y-46922198D01*
X70073634Y-47036484D02*
X70054587Y-47026960D01*
X70054587Y-47026960D02*
X70045063Y-47017436D01*
X70045063Y-47017436D02*
X70035539Y-46998388D01*
X70035539Y-46998388D02*
X70035539Y-46941246D01*
X70035539Y-46941246D02*
X70045063Y-46922198D01*
X70045063Y-46922198D02*
X70054587Y-46912674D01*
X70054587Y-46912674D02*
X70073634Y-46903150D01*
X70073634Y-46903150D02*
X70102206Y-46903150D01*
X70102206Y-46903150D02*
X70121253Y-46912674D01*
X70121253Y-46912674D02*
X70130777Y-46922198D01*
X70130777Y-46922198D02*
X70140301Y-46941246D01*
X70140301Y-46941246D02*
X70140301Y-46998388D01*
X70140301Y-46998388D02*
X70130777Y-47017436D01*
X70130777Y-47017436D02*
X70121253Y-47026960D01*
X70121253Y-47026960D02*
X70102206Y-47036484D01*
X70102206Y-47036484D02*
X70073634Y-47036484D01*
X70254587Y-47036484D02*
X70235539Y-47026960D01*
X70235539Y-47026960D02*
X70226015Y-47007912D01*
X70226015Y-47007912D02*
X70226015Y-46836484D01*
X70406968Y-47026960D02*
X70387920Y-47036484D01*
X70387920Y-47036484D02*
X70349825Y-47036484D01*
X70349825Y-47036484D02*
X70330777Y-47026960D01*
X70330777Y-47026960D02*
X70321253Y-47007912D01*
X70321253Y-47007912D02*
X70321253Y-46931722D01*
X70321253Y-46931722D02*
X70330777Y-46912674D01*
X70330777Y-46912674D02*
X70349825Y-46903150D01*
X70349825Y-46903150D02*
X70387920Y-46903150D01*
X70387920Y-46903150D02*
X70406968Y-46912674D01*
X70406968Y-46912674D02*
X70416492Y-46931722D01*
X70416492Y-46931722D02*
X70416492Y-46950769D01*
X70416492Y-46950769D02*
X70321253Y-46969817D01*
X70483158Y-47112674D02*
X70492682Y-47103150D01*
X70492682Y-47103150D02*
X70511730Y-47074579D01*
X70511730Y-47074579D02*
X70521253Y-47055531D01*
X70521253Y-47055531D02*
X70530777Y-47026960D01*
X70530777Y-47026960D02*
X70540301Y-46979341D01*
X70540301Y-46979341D02*
X70540301Y-46941246D01*
X70540301Y-46941246D02*
X70530777Y-46893627D01*
X70530777Y-46893627D02*
X70521253Y-46865055D01*
X70521253Y-46865055D02*
X70511730Y-46846008D01*
X70511730Y-46846008D02*
X70492682Y-46817436D01*
X70492682Y-46817436D02*
X70483158Y-46807912D01*
D13*
X65870000Y-47209000D02*
G75*
G03*
X65870000Y-47209000I-37500J0D01*
G01*
D11*
X66168872Y-47100484D02*
X66187920Y-47100484D01*
X66187920Y-47100484D02*
X66206967Y-47110008D01*
X66206967Y-47110008D02*
X66216491Y-47119531D01*
X66216491Y-47119531D02*
X66226015Y-47138579D01*
X66226015Y-47138579D02*
X66235539Y-47176674D01*
X66235539Y-47176674D02*
X66235539Y-47224293D01*
X66235539Y-47224293D02*
X66226015Y-47262388D01*
X66226015Y-47262388D02*
X66216491Y-47281436D01*
X66216491Y-47281436D02*
X66206967Y-47290960D01*
X66206967Y-47290960D02*
X66187920Y-47300484D01*
X66187920Y-47300484D02*
X66168872Y-47300484D01*
X66168872Y-47300484D02*
X66149824Y-47290960D01*
X66149824Y-47290960D02*
X66140301Y-47281436D01*
X66140301Y-47281436D02*
X66130777Y-47262388D01*
X66130777Y-47262388D02*
X66121253Y-47224293D01*
X66121253Y-47224293D02*
X66121253Y-47176674D01*
X66121253Y-47176674D02*
X66130777Y-47138579D01*
X66130777Y-47138579D02*
X66140301Y-47119531D01*
X66140301Y-47119531D02*
X66149824Y-47110008D01*
X66149824Y-47110008D02*
X66168872Y-47100484D01*
X66321253Y-47281436D02*
X66330777Y-47290960D01*
X66330777Y-47290960D02*
X66321253Y-47300484D01*
X66321253Y-47300484D02*
X66311729Y-47290960D01*
X66311729Y-47290960D02*
X66321253Y-47281436D01*
X66321253Y-47281436D02*
X66321253Y-47300484D01*
X66397443Y-47100484D02*
X66530777Y-47100484D01*
X66530777Y-47100484D02*
X66445062Y-47300484D01*
X66702205Y-47100484D02*
X66606967Y-47100484D01*
X66606967Y-47100484D02*
X66597443Y-47195722D01*
X66597443Y-47195722D02*
X66606967Y-47186198D01*
X66606967Y-47186198D02*
X66626015Y-47176674D01*
X66626015Y-47176674D02*
X66673634Y-47176674D01*
X66673634Y-47176674D02*
X66692682Y-47186198D01*
X66692682Y-47186198D02*
X66702205Y-47195722D01*
X66702205Y-47195722D02*
X66711729Y-47214769D01*
X66711729Y-47214769D02*
X66711729Y-47262388D01*
X66711729Y-47262388D02*
X66702205Y-47281436D01*
X66702205Y-47281436D02*
X66692682Y-47290960D01*
X66692682Y-47290960D02*
X66673634Y-47300484D01*
X66673634Y-47300484D02*
X66626015Y-47300484D01*
X66626015Y-47300484D02*
X66606967Y-47290960D01*
X66606967Y-47290960D02*
X66597443Y-47281436D01*
X66835539Y-47100484D02*
X66854586Y-47100484D01*
X66854586Y-47100484D02*
X66873634Y-47110008D01*
X66873634Y-47110008D02*
X66883158Y-47119531D01*
X66883158Y-47119531D02*
X66892682Y-47138579D01*
X66892682Y-47138579D02*
X66902205Y-47176674D01*
X66902205Y-47176674D02*
X66902205Y-47224293D01*
X66902205Y-47224293D02*
X66892682Y-47262388D01*
X66892682Y-47262388D02*
X66883158Y-47281436D01*
X66883158Y-47281436D02*
X66873634Y-47290960D01*
X66873634Y-47290960D02*
X66854586Y-47300484D01*
X66854586Y-47300484D02*
X66835539Y-47300484D01*
X66835539Y-47300484D02*
X66816491Y-47290960D01*
X66816491Y-47290960D02*
X66806967Y-47281436D01*
X66806967Y-47281436D02*
X66797443Y-47262388D01*
X66797443Y-47262388D02*
X66787920Y-47224293D01*
X66787920Y-47224293D02*
X66787920Y-47176674D01*
X66787920Y-47176674D02*
X66797443Y-47138579D01*
X66797443Y-47138579D02*
X66806967Y-47119531D01*
X66806967Y-47119531D02*
X66816491Y-47110008D01*
X66816491Y-47110008D02*
X66835539Y-47100484D01*
X66987920Y-47300484D02*
X66987920Y-47167150D01*
X66987920Y-47186198D02*
X66997443Y-47176674D01*
X66997443Y-47176674D02*
X67016491Y-47167150D01*
X67016491Y-47167150D02*
X67045063Y-47167150D01*
X67045063Y-47167150D02*
X67064110Y-47176674D01*
X67064110Y-47176674D02*
X67073634Y-47195722D01*
X67073634Y-47195722D02*
X67073634Y-47300484D01*
X67073634Y-47195722D02*
X67083158Y-47176674D01*
X67083158Y-47176674D02*
X67102205Y-47167150D01*
X67102205Y-47167150D02*
X67130777Y-47167150D01*
X67130777Y-47167150D02*
X67149825Y-47176674D01*
X67149825Y-47176674D02*
X67159348Y-47195722D01*
X67159348Y-47195722D02*
X67159348Y-47300484D01*
X67254586Y-47300484D02*
X67254586Y-47167150D01*
X67254586Y-47186198D02*
X67264110Y-47176674D01*
X67264110Y-47176674D02*
X67283158Y-47167150D01*
X67283158Y-47167150D02*
X67311729Y-47167150D01*
X67311729Y-47167150D02*
X67330777Y-47176674D01*
X67330777Y-47176674D02*
X67340301Y-47195722D01*
X67340301Y-47195722D02*
X67340301Y-47300484D01*
X67340301Y-47195722D02*
X67349825Y-47176674D01*
X67349825Y-47176674D02*
X67368872Y-47167150D01*
X67368872Y-47167150D02*
X67397444Y-47167150D01*
X67397444Y-47167150D02*
X67416491Y-47176674D01*
X67416491Y-47176674D02*
X67426015Y-47195722D01*
X67426015Y-47195722D02*
X67426015Y-47300484D01*
X67816491Y-47090960D02*
X67645063Y-47348103D01*
X68073634Y-47100484D02*
X68092682Y-47100484D01*
X68092682Y-47100484D02*
X68111729Y-47110008D01*
X68111729Y-47110008D02*
X68121253Y-47119531D01*
X68121253Y-47119531D02*
X68130777Y-47138579D01*
X68130777Y-47138579D02*
X68140301Y-47176674D01*
X68140301Y-47176674D02*
X68140301Y-47224293D01*
X68140301Y-47224293D02*
X68130777Y-47262388D01*
X68130777Y-47262388D02*
X68121253Y-47281436D01*
X68121253Y-47281436D02*
X68111729Y-47290960D01*
X68111729Y-47290960D02*
X68092682Y-47300484D01*
X68092682Y-47300484D02*
X68073634Y-47300484D01*
X68073634Y-47300484D02*
X68054587Y-47290960D01*
X68054587Y-47290960D02*
X68045063Y-47281436D01*
X68045063Y-47281436D02*
X68035539Y-47262388D01*
X68035539Y-47262388D02*
X68026015Y-47224293D01*
X68026015Y-47224293D02*
X68026015Y-47176674D01*
X68026015Y-47176674D02*
X68035539Y-47138579D01*
X68035539Y-47138579D02*
X68045063Y-47119531D01*
X68045063Y-47119531D02*
X68054587Y-47110008D01*
X68054587Y-47110008D02*
X68073634Y-47100484D01*
X68226015Y-47281436D02*
X68235539Y-47290960D01*
X68235539Y-47290960D02*
X68226015Y-47300484D01*
X68226015Y-47300484D02*
X68216491Y-47290960D01*
X68216491Y-47290960D02*
X68226015Y-47281436D01*
X68226015Y-47281436D02*
X68226015Y-47300484D01*
X68359348Y-47100484D02*
X68378396Y-47100484D01*
X68378396Y-47100484D02*
X68397444Y-47110008D01*
X68397444Y-47110008D02*
X68406968Y-47119531D01*
X68406968Y-47119531D02*
X68416491Y-47138579D01*
X68416491Y-47138579D02*
X68426015Y-47176674D01*
X68426015Y-47176674D02*
X68426015Y-47224293D01*
X68426015Y-47224293D02*
X68416491Y-47262388D01*
X68416491Y-47262388D02*
X68406968Y-47281436D01*
X68406968Y-47281436D02*
X68397444Y-47290960D01*
X68397444Y-47290960D02*
X68378396Y-47300484D01*
X68378396Y-47300484D02*
X68359348Y-47300484D01*
X68359348Y-47300484D02*
X68340301Y-47290960D01*
X68340301Y-47290960D02*
X68330777Y-47281436D01*
X68330777Y-47281436D02*
X68321253Y-47262388D01*
X68321253Y-47262388D02*
X68311729Y-47224293D01*
X68311729Y-47224293D02*
X68311729Y-47176674D01*
X68311729Y-47176674D02*
X68321253Y-47138579D01*
X68321253Y-47138579D02*
X68330777Y-47119531D01*
X68330777Y-47119531D02*
X68340301Y-47110008D01*
X68340301Y-47110008D02*
X68359348Y-47100484D01*
X68502206Y-47119531D02*
X68511729Y-47110008D01*
X68511729Y-47110008D02*
X68530777Y-47100484D01*
X68530777Y-47100484D02*
X68578396Y-47100484D01*
X68578396Y-47100484D02*
X68597444Y-47110008D01*
X68597444Y-47110008D02*
X68606968Y-47119531D01*
X68606968Y-47119531D02*
X68616491Y-47138579D01*
X68616491Y-47138579D02*
X68616491Y-47157627D01*
X68616491Y-47157627D02*
X68606968Y-47186198D01*
X68606968Y-47186198D02*
X68492682Y-47300484D01*
X68492682Y-47300484D02*
X68616491Y-47300484D01*
X68711729Y-47300484D02*
X68749825Y-47300484D01*
X68749825Y-47300484D02*
X68768872Y-47290960D01*
X68768872Y-47290960D02*
X68778396Y-47281436D01*
X68778396Y-47281436D02*
X68797444Y-47252865D01*
X68797444Y-47252865D02*
X68806968Y-47214769D01*
X68806968Y-47214769D02*
X68806968Y-47138579D01*
X68806968Y-47138579D02*
X68797444Y-47119531D01*
X68797444Y-47119531D02*
X68787920Y-47110008D01*
X68787920Y-47110008D02*
X68768872Y-47100484D01*
X68768872Y-47100484D02*
X68730777Y-47100484D01*
X68730777Y-47100484D02*
X68711729Y-47110008D01*
X68711729Y-47110008D02*
X68702206Y-47119531D01*
X68702206Y-47119531D02*
X68692682Y-47138579D01*
X68692682Y-47138579D02*
X68692682Y-47186198D01*
X68692682Y-47186198D02*
X68702206Y-47205246D01*
X68702206Y-47205246D02*
X68711729Y-47214769D01*
X68711729Y-47214769D02*
X68730777Y-47224293D01*
X68730777Y-47224293D02*
X68768872Y-47224293D01*
X68768872Y-47224293D02*
X68787920Y-47214769D01*
X68787920Y-47214769D02*
X68797444Y-47205246D01*
X68797444Y-47205246D02*
X68806968Y-47186198D01*
X68987920Y-47100484D02*
X68892682Y-47100484D01*
X68892682Y-47100484D02*
X68883158Y-47195722D01*
X68883158Y-47195722D02*
X68892682Y-47186198D01*
X68892682Y-47186198D02*
X68911729Y-47176674D01*
X68911729Y-47176674D02*
X68959349Y-47176674D01*
X68959349Y-47176674D02*
X68978396Y-47186198D01*
X68978396Y-47186198D02*
X68987920Y-47195722D01*
X68987920Y-47195722D02*
X68997444Y-47214769D01*
X68997444Y-47214769D02*
X68997444Y-47262388D01*
X68997444Y-47262388D02*
X68987920Y-47281436D01*
X68987920Y-47281436D02*
X68978396Y-47290960D01*
X68978396Y-47290960D02*
X68959349Y-47300484D01*
X68959349Y-47300484D02*
X68911729Y-47300484D01*
X68911729Y-47300484D02*
X68892682Y-47290960D01*
X68892682Y-47290960D02*
X68883158Y-47281436D01*
X69073634Y-47100484D02*
X69073634Y-47138579D01*
X69149825Y-47100484D02*
X69149825Y-47138579D01*
X69445063Y-47376674D02*
X69435539Y-47367150D01*
X69435539Y-47367150D02*
X69416491Y-47338579D01*
X69416491Y-47338579D02*
X69406968Y-47319531D01*
X69406968Y-47319531D02*
X69397444Y-47290960D01*
X69397444Y-47290960D02*
X69387920Y-47243341D01*
X69387920Y-47243341D02*
X69387920Y-47205246D01*
X69387920Y-47205246D02*
X69397444Y-47157627D01*
X69397444Y-47157627D02*
X69406968Y-47129055D01*
X69406968Y-47129055D02*
X69416491Y-47110008D01*
X69416491Y-47110008D02*
X69435539Y-47081436D01*
X69435539Y-47081436D02*
X69445063Y-47071912D01*
X69530777Y-47300484D02*
X69568872Y-47300484D01*
X69568872Y-47300484D02*
X69587920Y-47290960D01*
X69587920Y-47290960D02*
X69597444Y-47281436D01*
X69597444Y-47281436D02*
X69616491Y-47252865D01*
X69616491Y-47252865D02*
X69626015Y-47214769D01*
X69626015Y-47214769D02*
X69626015Y-47138579D01*
X69626015Y-47138579D02*
X69616491Y-47119531D01*
X69616491Y-47119531D02*
X69606968Y-47110008D01*
X69606968Y-47110008D02*
X69587920Y-47100484D01*
X69587920Y-47100484D02*
X69549825Y-47100484D01*
X69549825Y-47100484D02*
X69530777Y-47110008D01*
X69530777Y-47110008D02*
X69521253Y-47119531D01*
X69521253Y-47119531D02*
X69511730Y-47138579D01*
X69511730Y-47138579D02*
X69511730Y-47186198D01*
X69511730Y-47186198D02*
X69521253Y-47205246D01*
X69521253Y-47205246D02*
X69530777Y-47214769D01*
X69530777Y-47214769D02*
X69549825Y-47224293D01*
X69549825Y-47224293D02*
X69587920Y-47224293D01*
X69587920Y-47224293D02*
X69606968Y-47214769D01*
X69606968Y-47214769D02*
X69616491Y-47205246D01*
X69616491Y-47205246D02*
X69626015Y-47186198D01*
X69864111Y-47300484D02*
X69864111Y-47100484D01*
X69949825Y-47300484D02*
X69949825Y-47195722D01*
X69949825Y-47195722D02*
X69940301Y-47176674D01*
X69940301Y-47176674D02*
X69921253Y-47167150D01*
X69921253Y-47167150D02*
X69892682Y-47167150D01*
X69892682Y-47167150D02*
X69873634Y-47176674D01*
X69873634Y-47176674D02*
X69864111Y-47186198D01*
X70073634Y-47300484D02*
X70054587Y-47290960D01*
X70054587Y-47290960D02*
X70045063Y-47281436D01*
X70045063Y-47281436D02*
X70035539Y-47262388D01*
X70035539Y-47262388D02*
X70035539Y-47205246D01*
X70035539Y-47205246D02*
X70045063Y-47186198D01*
X70045063Y-47186198D02*
X70054587Y-47176674D01*
X70054587Y-47176674D02*
X70073634Y-47167150D01*
X70073634Y-47167150D02*
X70102206Y-47167150D01*
X70102206Y-47167150D02*
X70121253Y-47176674D01*
X70121253Y-47176674D02*
X70130777Y-47186198D01*
X70130777Y-47186198D02*
X70140301Y-47205246D01*
X70140301Y-47205246D02*
X70140301Y-47262388D01*
X70140301Y-47262388D02*
X70130777Y-47281436D01*
X70130777Y-47281436D02*
X70121253Y-47290960D01*
X70121253Y-47290960D02*
X70102206Y-47300484D01*
X70102206Y-47300484D02*
X70073634Y-47300484D01*
X70254587Y-47300484D02*
X70235539Y-47290960D01*
X70235539Y-47290960D02*
X70226015Y-47271912D01*
X70226015Y-47271912D02*
X70226015Y-47100484D01*
X70406968Y-47290960D02*
X70387920Y-47300484D01*
X70387920Y-47300484D02*
X70349825Y-47300484D01*
X70349825Y-47300484D02*
X70330777Y-47290960D01*
X70330777Y-47290960D02*
X70321253Y-47271912D01*
X70321253Y-47271912D02*
X70321253Y-47195722D01*
X70321253Y-47195722D02*
X70330777Y-47176674D01*
X70330777Y-47176674D02*
X70349825Y-47167150D01*
X70349825Y-47167150D02*
X70387920Y-47167150D01*
X70387920Y-47167150D02*
X70406968Y-47176674D01*
X70406968Y-47176674D02*
X70416492Y-47195722D01*
X70416492Y-47195722D02*
X70416492Y-47214769D01*
X70416492Y-47214769D02*
X70321253Y-47233817D01*
X70492682Y-47290960D02*
X70511730Y-47300484D01*
X70511730Y-47300484D02*
X70549825Y-47300484D01*
X70549825Y-47300484D02*
X70568873Y-47290960D01*
X70568873Y-47290960D02*
X70578396Y-47271912D01*
X70578396Y-47271912D02*
X70578396Y-47262388D01*
X70578396Y-47262388D02*
X70568873Y-47243341D01*
X70568873Y-47243341D02*
X70549825Y-47233817D01*
X70549825Y-47233817D02*
X70521253Y-47233817D01*
X70521253Y-47233817D02*
X70502206Y-47224293D01*
X70502206Y-47224293D02*
X70492682Y-47205246D01*
X70492682Y-47205246D02*
X70492682Y-47195722D01*
X70492682Y-47195722D02*
X70502206Y-47176674D01*
X70502206Y-47176674D02*
X70521253Y-47167150D01*
X70521253Y-47167150D02*
X70549825Y-47167150D01*
X70549825Y-47167150D02*
X70568873Y-47176674D01*
X70645063Y-47376674D02*
X70654587Y-47367150D01*
X70654587Y-47367150D02*
X70673634Y-47338579D01*
X70673634Y-47338579D02*
X70683158Y-47319531D01*
X70683158Y-47319531D02*
X70692682Y-47290960D01*
X70692682Y-47290960D02*
X70702206Y-47243341D01*
X70702206Y-47243341D02*
X70702206Y-47205246D01*
X70702206Y-47205246D02*
X70692682Y-47157627D01*
X70692682Y-47157627D02*
X70683158Y-47129055D01*
X70683158Y-47129055D02*
X70673634Y-47110008D01*
X70673634Y-47110008D02*
X70654587Y-47081436D01*
X70654587Y-47081436D02*
X70645063Y-47071912D01*
D14*
X65830000Y-47433000D02*
X65830000Y-47513000D01*
X65790000Y-47473000D02*
X65870000Y-47473000D01*
D11*
X66168872Y-47364484D02*
X66187920Y-47364484D01*
X66187920Y-47364484D02*
X66206967Y-47374008D01*
X66206967Y-47374008D02*
X66216491Y-47383531D01*
X66216491Y-47383531D02*
X66226015Y-47402579D01*
X66226015Y-47402579D02*
X66235539Y-47440674D01*
X66235539Y-47440674D02*
X66235539Y-47488293D01*
X66235539Y-47488293D02*
X66226015Y-47526388D01*
X66226015Y-47526388D02*
X66216491Y-47545436D01*
X66216491Y-47545436D02*
X66206967Y-47554960D01*
X66206967Y-47554960D02*
X66187920Y-47564484D01*
X66187920Y-47564484D02*
X66168872Y-47564484D01*
X66168872Y-47564484D02*
X66149824Y-47554960D01*
X66149824Y-47554960D02*
X66140301Y-47545436D01*
X66140301Y-47545436D02*
X66130777Y-47526388D01*
X66130777Y-47526388D02*
X66121253Y-47488293D01*
X66121253Y-47488293D02*
X66121253Y-47440674D01*
X66121253Y-47440674D02*
X66130777Y-47402579D01*
X66130777Y-47402579D02*
X66140301Y-47383531D01*
X66140301Y-47383531D02*
X66149824Y-47374008D01*
X66149824Y-47374008D02*
X66168872Y-47364484D01*
X66321253Y-47545436D02*
X66330777Y-47554960D01*
X66330777Y-47554960D02*
X66321253Y-47564484D01*
X66321253Y-47564484D02*
X66311729Y-47554960D01*
X66311729Y-47554960D02*
X66321253Y-47545436D01*
X66321253Y-47545436D02*
X66321253Y-47564484D01*
X66445062Y-47450198D02*
X66426015Y-47440674D01*
X66426015Y-47440674D02*
X66416491Y-47431150D01*
X66416491Y-47431150D02*
X66406967Y-47412103D01*
X66406967Y-47412103D02*
X66406967Y-47402579D01*
X66406967Y-47402579D02*
X66416491Y-47383531D01*
X66416491Y-47383531D02*
X66426015Y-47374008D01*
X66426015Y-47374008D02*
X66445062Y-47364484D01*
X66445062Y-47364484D02*
X66483158Y-47364484D01*
X66483158Y-47364484D02*
X66502205Y-47374008D01*
X66502205Y-47374008D02*
X66511729Y-47383531D01*
X66511729Y-47383531D02*
X66521253Y-47402579D01*
X66521253Y-47402579D02*
X66521253Y-47412103D01*
X66521253Y-47412103D02*
X66511729Y-47431150D01*
X66511729Y-47431150D02*
X66502205Y-47440674D01*
X66502205Y-47440674D02*
X66483158Y-47450198D01*
X66483158Y-47450198D02*
X66445062Y-47450198D01*
X66445062Y-47450198D02*
X66426015Y-47459722D01*
X66426015Y-47459722D02*
X66416491Y-47469246D01*
X66416491Y-47469246D02*
X66406967Y-47488293D01*
X66406967Y-47488293D02*
X66406967Y-47526388D01*
X66406967Y-47526388D02*
X66416491Y-47545436D01*
X66416491Y-47545436D02*
X66426015Y-47554960D01*
X66426015Y-47554960D02*
X66445062Y-47564484D01*
X66445062Y-47564484D02*
X66483158Y-47564484D01*
X66483158Y-47564484D02*
X66502205Y-47554960D01*
X66502205Y-47554960D02*
X66511729Y-47545436D01*
X66511729Y-47545436D02*
X66521253Y-47526388D01*
X66521253Y-47526388D02*
X66521253Y-47488293D01*
X66521253Y-47488293D02*
X66511729Y-47469246D01*
X66511729Y-47469246D02*
X66502205Y-47459722D01*
X66502205Y-47459722D02*
X66483158Y-47450198D01*
X66645062Y-47364484D02*
X66664110Y-47364484D01*
X66664110Y-47364484D02*
X66683158Y-47374008D01*
X66683158Y-47374008D02*
X66692682Y-47383531D01*
X66692682Y-47383531D02*
X66702205Y-47402579D01*
X66702205Y-47402579D02*
X66711729Y-47440674D01*
X66711729Y-47440674D02*
X66711729Y-47488293D01*
X66711729Y-47488293D02*
X66702205Y-47526388D01*
X66702205Y-47526388D02*
X66692682Y-47545436D01*
X66692682Y-47545436D02*
X66683158Y-47554960D01*
X66683158Y-47554960D02*
X66664110Y-47564484D01*
X66664110Y-47564484D02*
X66645062Y-47564484D01*
X66645062Y-47564484D02*
X66626015Y-47554960D01*
X66626015Y-47554960D02*
X66616491Y-47545436D01*
X66616491Y-47545436D02*
X66606967Y-47526388D01*
X66606967Y-47526388D02*
X66597443Y-47488293D01*
X66597443Y-47488293D02*
X66597443Y-47440674D01*
X66597443Y-47440674D02*
X66606967Y-47402579D01*
X66606967Y-47402579D02*
X66616491Y-47383531D01*
X66616491Y-47383531D02*
X66626015Y-47374008D01*
X66626015Y-47374008D02*
X66645062Y-47364484D01*
X66835539Y-47364484D02*
X66854586Y-47364484D01*
X66854586Y-47364484D02*
X66873634Y-47374008D01*
X66873634Y-47374008D02*
X66883158Y-47383531D01*
X66883158Y-47383531D02*
X66892682Y-47402579D01*
X66892682Y-47402579D02*
X66902205Y-47440674D01*
X66902205Y-47440674D02*
X66902205Y-47488293D01*
X66902205Y-47488293D02*
X66892682Y-47526388D01*
X66892682Y-47526388D02*
X66883158Y-47545436D01*
X66883158Y-47545436D02*
X66873634Y-47554960D01*
X66873634Y-47554960D02*
X66854586Y-47564484D01*
X66854586Y-47564484D02*
X66835539Y-47564484D01*
X66835539Y-47564484D02*
X66816491Y-47554960D01*
X66816491Y-47554960D02*
X66806967Y-47545436D01*
X66806967Y-47545436D02*
X66797443Y-47526388D01*
X66797443Y-47526388D02*
X66787920Y-47488293D01*
X66787920Y-47488293D02*
X66787920Y-47440674D01*
X66787920Y-47440674D02*
X66797443Y-47402579D01*
X66797443Y-47402579D02*
X66806967Y-47383531D01*
X66806967Y-47383531D02*
X66816491Y-47374008D01*
X66816491Y-47374008D02*
X66835539Y-47364484D01*
X66987920Y-47564484D02*
X66987920Y-47431150D01*
X66987920Y-47450198D02*
X66997443Y-47440674D01*
X66997443Y-47440674D02*
X67016491Y-47431150D01*
X67016491Y-47431150D02*
X67045063Y-47431150D01*
X67045063Y-47431150D02*
X67064110Y-47440674D01*
X67064110Y-47440674D02*
X67073634Y-47459722D01*
X67073634Y-47459722D02*
X67073634Y-47564484D01*
X67073634Y-47459722D02*
X67083158Y-47440674D01*
X67083158Y-47440674D02*
X67102205Y-47431150D01*
X67102205Y-47431150D02*
X67130777Y-47431150D01*
X67130777Y-47431150D02*
X67149825Y-47440674D01*
X67149825Y-47440674D02*
X67159348Y-47459722D01*
X67159348Y-47459722D02*
X67159348Y-47564484D01*
X67254586Y-47564484D02*
X67254586Y-47431150D01*
X67254586Y-47450198D02*
X67264110Y-47440674D01*
X67264110Y-47440674D02*
X67283158Y-47431150D01*
X67283158Y-47431150D02*
X67311729Y-47431150D01*
X67311729Y-47431150D02*
X67330777Y-47440674D01*
X67330777Y-47440674D02*
X67340301Y-47459722D01*
X67340301Y-47459722D02*
X67340301Y-47564484D01*
X67340301Y-47459722D02*
X67349825Y-47440674D01*
X67349825Y-47440674D02*
X67368872Y-47431150D01*
X67368872Y-47431150D02*
X67397444Y-47431150D01*
X67397444Y-47431150D02*
X67416491Y-47440674D01*
X67416491Y-47440674D02*
X67426015Y-47459722D01*
X67426015Y-47459722D02*
X67426015Y-47564484D01*
X67816491Y-47354960D02*
X67645063Y-47612103D01*
X68073634Y-47364484D02*
X68092682Y-47364484D01*
X68092682Y-47364484D02*
X68111729Y-47374008D01*
X68111729Y-47374008D02*
X68121253Y-47383531D01*
X68121253Y-47383531D02*
X68130777Y-47402579D01*
X68130777Y-47402579D02*
X68140301Y-47440674D01*
X68140301Y-47440674D02*
X68140301Y-47488293D01*
X68140301Y-47488293D02*
X68130777Y-47526388D01*
X68130777Y-47526388D02*
X68121253Y-47545436D01*
X68121253Y-47545436D02*
X68111729Y-47554960D01*
X68111729Y-47554960D02*
X68092682Y-47564484D01*
X68092682Y-47564484D02*
X68073634Y-47564484D01*
X68073634Y-47564484D02*
X68054587Y-47554960D01*
X68054587Y-47554960D02*
X68045063Y-47545436D01*
X68045063Y-47545436D02*
X68035539Y-47526388D01*
X68035539Y-47526388D02*
X68026015Y-47488293D01*
X68026015Y-47488293D02*
X68026015Y-47440674D01*
X68026015Y-47440674D02*
X68035539Y-47402579D01*
X68035539Y-47402579D02*
X68045063Y-47383531D01*
X68045063Y-47383531D02*
X68054587Y-47374008D01*
X68054587Y-47374008D02*
X68073634Y-47364484D01*
X68226015Y-47545436D02*
X68235539Y-47554960D01*
X68235539Y-47554960D02*
X68226015Y-47564484D01*
X68226015Y-47564484D02*
X68216491Y-47554960D01*
X68216491Y-47554960D02*
X68226015Y-47545436D01*
X68226015Y-47545436D02*
X68226015Y-47564484D01*
X68359348Y-47364484D02*
X68378396Y-47364484D01*
X68378396Y-47364484D02*
X68397444Y-47374008D01*
X68397444Y-47374008D02*
X68406968Y-47383531D01*
X68406968Y-47383531D02*
X68416491Y-47402579D01*
X68416491Y-47402579D02*
X68426015Y-47440674D01*
X68426015Y-47440674D02*
X68426015Y-47488293D01*
X68426015Y-47488293D02*
X68416491Y-47526388D01*
X68416491Y-47526388D02*
X68406968Y-47545436D01*
X68406968Y-47545436D02*
X68397444Y-47554960D01*
X68397444Y-47554960D02*
X68378396Y-47564484D01*
X68378396Y-47564484D02*
X68359348Y-47564484D01*
X68359348Y-47564484D02*
X68340301Y-47554960D01*
X68340301Y-47554960D02*
X68330777Y-47545436D01*
X68330777Y-47545436D02*
X68321253Y-47526388D01*
X68321253Y-47526388D02*
X68311729Y-47488293D01*
X68311729Y-47488293D02*
X68311729Y-47440674D01*
X68311729Y-47440674D02*
X68321253Y-47402579D01*
X68321253Y-47402579D02*
X68330777Y-47383531D01*
X68330777Y-47383531D02*
X68340301Y-47374008D01*
X68340301Y-47374008D02*
X68359348Y-47364484D01*
X68492682Y-47364484D02*
X68616491Y-47364484D01*
X68616491Y-47364484D02*
X68549825Y-47440674D01*
X68549825Y-47440674D02*
X68578396Y-47440674D01*
X68578396Y-47440674D02*
X68597444Y-47450198D01*
X68597444Y-47450198D02*
X68606968Y-47459722D01*
X68606968Y-47459722D02*
X68616491Y-47478769D01*
X68616491Y-47478769D02*
X68616491Y-47526388D01*
X68616491Y-47526388D02*
X68606968Y-47545436D01*
X68606968Y-47545436D02*
X68597444Y-47554960D01*
X68597444Y-47554960D02*
X68578396Y-47564484D01*
X68578396Y-47564484D02*
X68521253Y-47564484D01*
X68521253Y-47564484D02*
X68502206Y-47554960D01*
X68502206Y-47554960D02*
X68492682Y-47545436D01*
X68806968Y-47564484D02*
X68692682Y-47564484D01*
X68749825Y-47564484D02*
X68749825Y-47364484D01*
X68749825Y-47364484D02*
X68730777Y-47393055D01*
X68730777Y-47393055D02*
X68711729Y-47412103D01*
X68711729Y-47412103D02*
X68692682Y-47421627D01*
X68987920Y-47364484D02*
X68892682Y-47364484D01*
X68892682Y-47364484D02*
X68883158Y-47459722D01*
X68883158Y-47459722D02*
X68892682Y-47450198D01*
X68892682Y-47450198D02*
X68911729Y-47440674D01*
X68911729Y-47440674D02*
X68959349Y-47440674D01*
X68959349Y-47440674D02*
X68978396Y-47450198D01*
X68978396Y-47450198D02*
X68987920Y-47459722D01*
X68987920Y-47459722D02*
X68997444Y-47478769D01*
X68997444Y-47478769D02*
X68997444Y-47526388D01*
X68997444Y-47526388D02*
X68987920Y-47545436D01*
X68987920Y-47545436D02*
X68978396Y-47554960D01*
X68978396Y-47554960D02*
X68959349Y-47564484D01*
X68959349Y-47564484D02*
X68911729Y-47564484D01*
X68911729Y-47564484D02*
X68892682Y-47554960D01*
X68892682Y-47554960D02*
X68883158Y-47545436D01*
X69073634Y-47364484D02*
X69073634Y-47402579D01*
X69149825Y-47364484D02*
X69149825Y-47402579D01*
X69445063Y-47640674D02*
X69435539Y-47631150D01*
X69435539Y-47631150D02*
X69416491Y-47602579D01*
X69416491Y-47602579D02*
X69406968Y-47583531D01*
X69406968Y-47583531D02*
X69397444Y-47554960D01*
X69397444Y-47554960D02*
X69387920Y-47507341D01*
X69387920Y-47507341D02*
X69387920Y-47469246D01*
X69387920Y-47469246D02*
X69397444Y-47421627D01*
X69397444Y-47421627D02*
X69406968Y-47393055D01*
X69406968Y-47393055D02*
X69416491Y-47374008D01*
X69416491Y-47374008D02*
X69435539Y-47345436D01*
X69435539Y-47345436D02*
X69445063Y-47335912D01*
X69549825Y-47450198D02*
X69530777Y-47440674D01*
X69530777Y-47440674D02*
X69521253Y-47431150D01*
X69521253Y-47431150D02*
X69511730Y-47412103D01*
X69511730Y-47412103D02*
X69511730Y-47402579D01*
X69511730Y-47402579D02*
X69521253Y-47383531D01*
X69521253Y-47383531D02*
X69530777Y-47374008D01*
X69530777Y-47374008D02*
X69549825Y-47364484D01*
X69549825Y-47364484D02*
X69587920Y-47364484D01*
X69587920Y-47364484D02*
X69606968Y-47374008D01*
X69606968Y-47374008D02*
X69616491Y-47383531D01*
X69616491Y-47383531D02*
X69626015Y-47402579D01*
X69626015Y-47402579D02*
X69626015Y-47412103D01*
X69626015Y-47412103D02*
X69616491Y-47431150D01*
X69616491Y-47431150D02*
X69606968Y-47440674D01*
X69606968Y-47440674D02*
X69587920Y-47450198D01*
X69587920Y-47450198D02*
X69549825Y-47450198D01*
X69549825Y-47450198D02*
X69530777Y-47459722D01*
X69530777Y-47459722D02*
X69521253Y-47469246D01*
X69521253Y-47469246D02*
X69511730Y-47488293D01*
X69511730Y-47488293D02*
X69511730Y-47526388D01*
X69511730Y-47526388D02*
X69521253Y-47545436D01*
X69521253Y-47545436D02*
X69530777Y-47554960D01*
X69530777Y-47554960D02*
X69549825Y-47564484D01*
X69549825Y-47564484D02*
X69587920Y-47564484D01*
X69587920Y-47564484D02*
X69606968Y-47554960D01*
X69606968Y-47554960D02*
X69616491Y-47545436D01*
X69616491Y-47545436D02*
X69626015Y-47526388D01*
X69626015Y-47526388D02*
X69626015Y-47488293D01*
X69626015Y-47488293D02*
X69616491Y-47469246D01*
X69616491Y-47469246D02*
X69606968Y-47459722D01*
X69606968Y-47459722D02*
X69587920Y-47450198D01*
X69864111Y-47564484D02*
X69864111Y-47364484D01*
X69949825Y-47564484D02*
X69949825Y-47459722D01*
X69949825Y-47459722D02*
X69940301Y-47440674D01*
X69940301Y-47440674D02*
X69921253Y-47431150D01*
X69921253Y-47431150D02*
X69892682Y-47431150D01*
X69892682Y-47431150D02*
X69873634Y-47440674D01*
X69873634Y-47440674D02*
X69864111Y-47450198D01*
X70073634Y-47564484D02*
X70054587Y-47554960D01*
X70054587Y-47554960D02*
X70045063Y-47545436D01*
X70045063Y-47545436D02*
X70035539Y-47526388D01*
X70035539Y-47526388D02*
X70035539Y-47469246D01*
X70035539Y-47469246D02*
X70045063Y-47450198D01*
X70045063Y-47450198D02*
X70054587Y-47440674D01*
X70054587Y-47440674D02*
X70073634Y-47431150D01*
X70073634Y-47431150D02*
X70102206Y-47431150D01*
X70102206Y-47431150D02*
X70121253Y-47440674D01*
X70121253Y-47440674D02*
X70130777Y-47450198D01*
X70130777Y-47450198D02*
X70140301Y-47469246D01*
X70140301Y-47469246D02*
X70140301Y-47526388D01*
X70140301Y-47526388D02*
X70130777Y-47545436D01*
X70130777Y-47545436D02*
X70121253Y-47554960D01*
X70121253Y-47554960D02*
X70102206Y-47564484D01*
X70102206Y-47564484D02*
X70073634Y-47564484D01*
X70254587Y-47564484D02*
X70235539Y-47554960D01*
X70235539Y-47554960D02*
X70226015Y-47535912D01*
X70226015Y-47535912D02*
X70226015Y-47364484D01*
X70406968Y-47554960D02*
X70387920Y-47564484D01*
X70387920Y-47564484D02*
X70349825Y-47564484D01*
X70349825Y-47564484D02*
X70330777Y-47554960D01*
X70330777Y-47554960D02*
X70321253Y-47535912D01*
X70321253Y-47535912D02*
X70321253Y-47459722D01*
X70321253Y-47459722D02*
X70330777Y-47440674D01*
X70330777Y-47440674D02*
X70349825Y-47431150D01*
X70349825Y-47431150D02*
X70387920Y-47431150D01*
X70387920Y-47431150D02*
X70406968Y-47440674D01*
X70406968Y-47440674D02*
X70416492Y-47459722D01*
X70416492Y-47459722D02*
X70416492Y-47478769D01*
X70416492Y-47478769D02*
X70321253Y-47497817D01*
X70492682Y-47554960D02*
X70511730Y-47564484D01*
X70511730Y-47564484D02*
X70549825Y-47564484D01*
X70549825Y-47564484D02*
X70568873Y-47554960D01*
X70568873Y-47554960D02*
X70578396Y-47535912D01*
X70578396Y-47535912D02*
X70578396Y-47526388D01*
X70578396Y-47526388D02*
X70568873Y-47507341D01*
X70568873Y-47507341D02*
X70549825Y-47497817D01*
X70549825Y-47497817D02*
X70521253Y-47497817D01*
X70521253Y-47497817D02*
X70502206Y-47488293D01*
X70502206Y-47488293D02*
X70492682Y-47469246D01*
X70492682Y-47469246D02*
X70492682Y-47459722D01*
X70492682Y-47459722D02*
X70502206Y-47440674D01*
X70502206Y-47440674D02*
X70521253Y-47431150D01*
X70521253Y-47431150D02*
X70549825Y-47431150D01*
X70549825Y-47431150D02*
X70568873Y-47440674D01*
X70645063Y-47640674D02*
X70654587Y-47631150D01*
X70654587Y-47631150D02*
X70673634Y-47602579D01*
X70673634Y-47602579D02*
X70683158Y-47583531D01*
X70683158Y-47583531D02*
X70692682Y-47554960D01*
X70692682Y-47554960D02*
X70702206Y-47507341D01*
X70702206Y-47507341D02*
X70702206Y-47469246D01*
X70702206Y-47469246D02*
X70692682Y-47421627D01*
X70692682Y-47421627D02*
X70683158Y-47393055D01*
X70683158Y-47393055D02*
X70673634Y-47374008D01*
X70673634Y-47374008D02*
X70654587Y-47345436D01*
X70654587Y-47345436D02*
X70645063Y-47335912D01*
D15*
X65856820Y-47768820D02*
X65856820Y-47705180D01*
X65793180Y-47705180D01*
X65793180Y-47768820D01*
X65856820Y-47768820D01*
D11*
X66168872Y-47628484D02*
X66187920Y-47628484D01*
X66187920Y-47628484D02*
X66206967Y-47638008D01*
X66206967Y-47638008D02*
X66216491Y-47647531D01*
X66216491Y-47647531D02*
X66226015Y-47666579D01*
X66226015Y-47666579D02*
X66235539Y-47704674D01*
X66235539Y-47704674D02*
X66235539Y-47752293D01*
X66235539Y-47752293D02*
X66226015Y-47790388D01*
X66226015Y-47790388D02*
X66216491Y-47809436D01*
X66216491Y-47809436D02*
X66206967Y-47818960D01*
X66206967Y-47818960D02*
X66187920Y-47828484D01*
X66187920Y-47828484D02*
X66168872Y-47828484D01*
X66168872Y-47828484D02*
X66149824Y-47818960D01*
X66149824Y-47818960D02*
X66140301Y-47809436D01*
X66140301Y-47809436D02*
X66130777Y-47790388D01*
X66130777Y-47790388D02*
X66121253Y-47752293D01*
X66121253Y-47752293D02*
X66121253Y-47704674D01*
X66121253Y-47704674D02*
X66130777Y-47666579D01*
X66130777Y-47666579D02*
X66140301Y-47647531D01*
X66140301Y-47647531D02*
X66149824Y-47638008D01*
X66149824Y-47638008D02*
X66168872Y-47628484D01*
X66321253Y-47809436D02*
X66330777Y-47818960D01*
X66330777Y-47818960D02*
X66321253Y-47828484D01*
X66321253Y-47828484D02*
X66311729Y-47818960D01*
X66311729Y-47818960D02*
X66321253Y-47809436D01*
X66321253Y-47809436D02*
X66321253Y-47828484D01*
X66426015Y-47828484D02*
X66464110Y-47828484D01*
X66464110Y-47828484D02*
X66483158Y-47818960D01*
X66483158Y-47818960D02*
X66492682Y-47809436D01*
X66492682Y-47809436D02*
X66511729Y-47780865D01*
X66511729Y-47780865D02*
X66521253Y-47742769D01*
X66521253Y-47742769D02*
X66521253Y-47666579D01*
X66521253Y-47666579D02*
X66511729Y-47647531D01*
X66511729Y-47647531D02*
X66502205Y-47638008D01*
X66502205Y-47638008D02*
X66483158Y-47628484D01*
X66483158Y-47628484D02*
X66445062Y-47628484D01*
X66445062Y-47628484D02*
X66426015Y-47638008D01*
X66426015Y-47638008D02*
X66416491Y-47647531D01*
X66416491Y-47647531D02*
X66406967Y-47666579D01*
X66406967Y-47666579D02*
X66406967Y-47714198D01*
X66406967Y-47714198D02*
X66416491Y-47733246D01*
X66416491Y-47733246D02*
X66426015Y-47742769D01*
X66426015Y-47742769D02*
X66445062Y-47752293D01*
X66445062Y-47752293D02*
X66483158Y-47752293D01*
X66483158Y-47752293D02*
X66502205Y-47742769D01*
X66502205Y-47742769D02*
X66511729Y-47733246D01*
X66511729Y-47733246D02*
X66521253Y-47714198D01*
X66645062Y-47628484D02*
X66664110Y-47628484D01*
X66664110Y-47628484D02*
X66683158Y-47638008D01*
X66683158Y-47638008D02*
X66692682Y-47647531D01*
X66692682Y-47647531D02*
X66702205Y-47666579D01*
X66702205Y-47666579D02*
X66711729Y-47704674D01*
X66711729Y-47704674D02*
X66711729Y-47752293D01*
X66711729Y-47752293D02*
X66702205Y-47790388D01*
X66702205Y-47790388D02*
X66692682Y-47809436D01*
X66692682Y-47809436D02*
X66683158Y-47818960D01*
X66683158Y-47818960D02*
X66664110Y-47828484D01*
X66664110Y-47828484D02*
X66645062Y-47828484D01*
X66645062Y-47828484D02*
X66626015Y-47818960D01*
X66626015Y-47818960D02*
X66616491Y-47809436D01*
X66616491Y-47809436D02*
X66606967Y-47790388D01*
X66606967Y-47790388D02*
X66597443Y-47752293D01*
X66597443Y-47752293D02*
X66597443Y-47704674D01*
X66597443Y-47704674D02*
X66606967Y-47666579D01*
X66606967Y-47666579D02*
X66616491Y-47647531D01*
X66616491Y-47647531D02*
X66626015Y-47638008D01*
X66626015Y-47638008D02*
X66645062Y-47628484D01*
X66835539Y-47628484D02*
X66854586Y-47628484D01*
X66854586Y-47628484D02*
X66873634Y-47638008D01*
X66873634Y-47638008D02*
X66883158Y-47647531D01*
X66883158Y-47647531D02*
X66892682Y-47666579D01*
X66892682Y-47666579D02*
X66902205Y-47704674D01*
X66902205Y-47704674D02*
X66902205Y-47752293D01*
X66902205Y-47752293D02*
X66892682Y-47790388D01*
X66892682Y-47790388D02*
X66883158Y-47809436D01*
X66883158Y-47809436D02*
X66873634Y-47818960D01*
X66873634Y-47818960D02*
X66854586Y-47828484D01*
X66854586Y-47828484D02*
X66835539Y-47828484D01*
X66835539Y-47828484D02*
X66816491Y-47818960D01*
X66816491Y-47818960D02*
X66806967Y-47809436D01*
X66806967Y-47809436D02*
X66797443Y-47790388D01*
X66797443Y-47790388D02*
X66787920Y-47752293D01*
X66787920Y-47752293D02*
X66787920Y-47704674D01*
X66787920Y-47704674D02*
X66797443Y-47666579D01*
X66797443Y-47666579D02*
X66806967Y-47647531D01*
X66806967Y-47647531D02*
X66816491Y-47638008D01*
X66816491Y-47638008D02*
X66835539Y-47628484D01*
X66987920Y-47828484D02*
X66987920Y-47695150D01*
X66987920Y-47714198D02*
X66997443Y-47704674D01*
X66997443Y-47704674D02*
X67016491Y-47695150D01*
X67016491Y-47695150D02*
X67045063Y-47695150D01*
X67045063Y-47695150D02*
X67064110Y-47704674D01*
X67064110Y-47704674D02*
X67073634Y-47723722D01*
X67073634Y-47723722D02*
X67073634Y-47828484D01*
X67073634Y-47723722D02*
X67083158Y-47704674D01*
X67083158Y-47704674D02*
X67102205Y-47695150D01*
X67102205Y-47695150D02*
X67130777Y-47695150D01*
X67130777Y-47695150D02*
X67149825Y-47704674D01*
X67149825Y-47704674D02*
X67159348Y-47723722D01*
X67159348Y-47723722D02*
X67159348Y-47828484D01*
X67254586Y-47828484D02*
X67254586Y-47695150D01*
X67254586Y-47714198D02*
X67264110Y-47704674D01*
X67264110Y-47704674D02*
X67283158Y-47695150D01*
X67283158Y-47695150D02*
X67311729Y-47695150D01*
X67311729Y-47695150D02*
X67330777Y-47704674D01*
X67330777Y-47704674D02*
X67340301Y-47723722D01*
X67340301Y-47723722D02*
X67340301Y-47828484D01*
X67340301Y-47723722D02*
X67349825Y-47704674D01*
X67349825Y-47704674D02*
X67368872Y-47695150D01*
X67368872Y-47695150D02*
X67397444Y-47695150D01*
X67397444Y-47695150D02*
X67416491Y-47704674D01*
X67416491Y-47704674D02*
X67426015Y-47723722D01*
X67426015Y-47723722D02*
X67426015Y-47828484D01*
X67816491Y-47618960D02*
X67645063Y-47876103D01*
X68073634Y-47628484D02*
X68092682Y-47628484D01*
X68092682Y-47628484D02*
X68111729Y-47638008D01*
X68111729Y-47638008D02*
X68121253Y-47647531D01*
X68121253Y-47647531D02*
X68130777Y-47666579D01*
X68130777Y-47666579D02*
X68140301Y-47704674D01*
X68140301Y-47704674D02*
X68140301Y-47752293D01*
X68140301Y-47752293D02*
X68130777Y-47790388D01*
X68130777Y-47790388D02*
X68121253Y-47809436D01*
X68121253Y-47809436D02*
X68111729Y-47818960D01*
X68111729Y-47818960D02*
X68092682Y-47828484D01*
X68092682Y-47828484D02*
X68073634Y-47828484D01*
X68073634Y-47828484D02*
X68054587Y-47818960D01*
X68054587Y-47818960D02*
X68045063Y-47809436D01*
X68045063Y-47809436D02*
X68035539Y-47790388D01*
X68035539Y-47790388D02*
X68026015Y-47752293D01*
X68026015Y-47752293D02*
X68026015Y-47704674D01*
X68026015Y-47704674D02*
X68035539Y-47666579D01*
X68035539Y-47666579D02*
X68045063Y-47647531D01*
X68045063Y-47647531D02*
X68054587Y-47638008D01*
X68054587Y-47638008D02*
X68073634Y-47628484D01*
X68226015Y-47809436D02*
X68235539Y-47818960D01*
X68235539Y-47818960D02*
X68226015Y-47828484D01*
X68226015Y-47828484D02*
X68216491Y-47818960D01*
X68216491Y-47818960D02*
X68226015Y-47809436D01*
X68226015Y-47809436D02*
X68226015Y-47828484D01*
X68359348Y-47628484D02*
X68378396Y-47628484D01*
X68378396Y-47628484D02*
X68397444Y-47638008D01*
X68397444Y-47638008D02*
X68406968Y-47647531D01*
X68406968Y-47647531D02*
X68416491Y-47666579D01*
X68416491Y-47666579D02*
X68426015Y-47704674D01*
X68426015Y-47704674D02*
X68426015Y-47752293D01*
X68426015Y-47752293D02*
X68416491Y-47790388D01*
X68416491Y-47790388D02*
X68406968Y-47809436D01*
X68406968Y-47809436D02*
X68397444Y-47818960D01*
X68397444Y-47818960D02*
X68378396Y-47828484D01*
X68378396Y-47828484D02*
X68359348Y-47828484D01*
X68359348Y-47828484D02*
X68340301Y-47818960D01*
X68340301Y-47818960D02*
X68330777Y-47809436D01*
X68330777Y-47809436D02*
X68321253Y-47790388D01*
X68321253Y-47790388D02*
X68311729Y-47752293D01*
X68311729Y-47752293D02*
X68311729Y-47704674D01*
X68311729Y-47704674D02*
X68321253Y-47666579D01*
X68321253Y-47666579D02*
X68330777Y-47647531D01*
X68330777Y-47647531D02*
X68340301Y-47638008D01*
X68340301Y-47638008D02*
X68359348Y-47628484D01*
X68492682Y-47628484D02*
X68616491Y-47628484D01*
X68616491Y-47628484D02*
X68549825Y-47704674D01*
X68549825Y-47704674D02*
X68578396Y-47704674D01*
X68578396Y-47704674D02*
X68597444Y-47714198D01*
X68597444Y-47714198D02*
X68606968Y-47723722D01*
X68606968Y-47723722D02*
X68616491Y-47742769D01*
X68616491Y-47742769D02*
X68616491Y-47790388D01*
X68616491Y-47790388D02*
X68606968Y-47809436D01*
X68606968Y-47809436D02*
X68597444Y-47818960D01*
X68597444Y-47818960D02*
X68578396Y-47828484D01*
X68578396Y-47828484D02*
X68521253Y-47828484D01*
X68521253Y-47828484D02*
X68502206Y-47818960D01*
X68502206Y-47818960D02*
X68492682Y-47809436D01*
X68797444Y-47628484D02*
X68702206Y-47628484D01*
X68702206Y-47628484D02*
X68692682Y-47723722D01*
X68692682Y-47723722D02*
X68702206Y-47714198D01*
X68702206Y-47714198D02*
X68721253Y-47704674D01*
X68721253Y-47704674D02*
X68768872Y-47704674D01*
X68768872Y-47704674D02*
X68787920Y-47714198D01*
X68787920Y-47714198D02*
X68797444Y-47723722D01*
X68797444Y-47723722D02*
X68806968Y-47742769D01*
X68806968Y-47742769D02*
X68806968Y-47790388D01*
X68806968Y-47790388D02*
X68797444Y-47809436D01*
X68797444Y-47809436D02*
X68787920Y-47818960D01*
X68787920Y-47818960D02*
X68768872Y-47828484D01*
X68768872Y-47828484D02*
X68721253Y-47828484D01*
X68721253Y-47828484D02*
X68702206Y-47818960D01*
X68702206Y-47818960D02*
X68692682Y-47809436D01*
X68978396Y-47695150D02*
X68978396Y-47828484D01*
X68930777Y-47618960D02*
X68883158Y-47761817D01*
X68883158Y-47761817D02*
X69006968Y-47761817D01*
X69073634Y-47628484D02*
X69073634Y-47666579D01*
X69149825Y-47628484D02*
X69149825Y-47666579D01*
X69445063Y-47904674D02*
X69435539Y-47895150D01*
X69435539Y-47895150D02*
X69416491Y-47866579D01*
X69416491Y-47866579D02*
X69406968Y-47847531D01*
X69406968Y-47847531D02*
X69397444Y-47818960D01*
X69397444Y-47818960D02*
X69387920Y-47771341D01*
X69387920Y-47771341D02*
X69387920Y-47733246D01*
X69387920Y-47733246D02*
X69397444Y-47685627D01*
X69397444Y-47685627D02*
X69406968Y-47657055D01*
X69406968Y-47657055D02*
X69416491Y-47638008D01*
X69416491Y-47638008D02*
X69435539Y-47609436D01*
X69435539Y-47609436D02*
X69445063Y-47599912D01*
X69511730Y-47647531D02*
X69521253Y-47638008D01*
X69521253Y-47638008D02*
X69540301Y-47628484D01*
X69540301Y-47628484D02*
X69587920Y-47628484D01*
X69587920Y-47628484D02*
X69606968Y-47638008D01*
X69606968Y-47638008D02*
X69616491Y-47647531D01*
X69616491Y-47647531D02*
X69626015Y-47666579D01*
X69626015Y-47666579D02*
X69626015Y-47685627D01*
X69626015Y-47685627D02*
X69616491Y-47714198D01*
X69616491Y-47714198D02*
X69502206Y-47828484D01*
X69502206Y-47828484D02*
X69626015Y-47828484D01*
X69864111Y-47828484D02*
X69864111Y-47628484D01*
X69949825Y-47828484D02*
X69949825Y-47723722D01*
X69949825Y-47723722D02*
X69940301Y-47704674D01*
X69940301Y-47704674D02*
X69921253Y-47695150D01*
X69921253Y-47695150D02*
X69892682Y-47695150D01*
X69892682Y-47695150D02*
X69873634Y-47704674D01*
X69873634Y-47704674D02*
X69864111Y-47714198D01*
X70073634Y-47828484D02*
X70054587Y-47818960D01*
X70054587Y-47818960D02*
X70045063Y-47809436D01*
X70045063Y-47809436D02*
X70035539Y-47790388D01*
X70035539Y-47790388D02*
X70035539Y-47733246D01*
X70035539Y-47733246D02*
X70045063Y-47714198D01*
X70045063Y-47714198D02*
X70054587Y-47704674D01*
X70054587Y-47704674D02*
X70073634Y-47695150D01*
X70073634Y-47695150D02*
X70102206Y-47695150D01*
X70102206Y-47695150D02*
X70121253Y-47704674D01*
X70121253Y-47704674D02*
X70130777Y-47714198D01*
X70130777Y-47714198D02*
X70140301Y-47733246D01*
X70140301Y-47733246D02*
X70140301Y-47790388D01*
X70140301Y-47790388D02*
X70130777Y-47809436D01*
X70130777Y-47809436D02*
X70121253Y-47818960D01*
X70121253Y-47818960D02*
X70102206Y-47828484D01*
X70102206Y-47828484D02*
X70073634Y-47828484D01*
X70254587Y-47828484D02*
X70235539Y-47818960D01*
X70235539Y-47818960D02*
X70226015Y-47799912D01*
X70226015Y-47799912D02*
X70226015Y-47628484D01*
X70406968Y-47818960D02*
X70387920Y-47828484D01*
X70387920Y-47828484D02*
X70349825Y-47828484D01*
X70349825Y-47828484D02*
X70330777Y-47818960D01*
X70330777Y-47818960D02*
X70321253Y-47799912D01*
X70321253Y-47799912D02*
X70321253Y-47723722D01*
X70321253Y-47723722D02*
X70330777Y-47704674D01*
X70330777Y-47704674D02*
X70349825Y-47695150D01*
X70349825Y-47695150D02*
X70387920Y-47695150D01*
X70387920Y-47695150D02*
X70406968Y-47704674D01*
X70406968Y-47704674D02*
X70416492Y-47723722D01*
X70416492Y-47723722D02*
X70416492Y-47742769D01*
X70416492Y-47742769D02*
X70321253Y-47761817D01*
X70492682Y-47818960D02*
X70511730Y-47828484D01*
X70511730Y-47828484D02*
X70549825Y-47828484D01*
X70549825Y-47828484D02*
X70568873Y-47818960D01*
X70568873Y-47818960D02*
X70578396Y-47799912D01*
X70578396Y-47799912D02*
X70578396Y-47790388D01*
X70578396Y-47790388D02*
X70568873Y-47771341D01*
X70568873Y-47771341D02*
X70549825Y-47761817D01*
X70549825Y-47761817D02*
X70521253Y-47761817D01*
X70521253Y-47761817D02*
X70502206Y-47752293D01*
X70502206Y-47752293D02*
X70492682Y-47733246D01*
X70492682Y-47733246D02*
X70492682Y-47723722D01*
X70492682Y-47723722D02*
X70502206Y-47704674D01*
X70502206Y-47704674D02*
X70521253Y-47695150D01*
X70521253Y-47695150D02*
X70549825Y-47695150D01*
X70549825Y-47695150D02*
X70568873Y-47704674D01*
X70645063Y-47904674D02*
X70654587Y-47895150D01*
X70654587Y-47895150D02*
X70673634Y-47866579D01*
X70673634Y-47866579D02*
X70683158Y-47847531D01*
X70683158Y-47847531D02*
X70692682Y-47818960D01*
X70692682Y-47818960D02*
X70702206Y-47771341D01*
X70702206Y-47771341D02*
X70702206Y-47733246D01*
X70702206Y-47733246D02*
X70692682Y-47685627D01*
X70692682Y-47685627D02*
X70683158Y-47657055D01*
X70683158Y-47657055D02*
X70673634Y-47638008D01*
X70673634Y-47638008D02*
X70654587Y-47609436D01*
X70654587Y-47609436D02*
X70645063Y-47599912D01*
D16*
X65815000Y-48056000D02*
X65870000Y-48001000D01*
X65815000Y-47946000D01*
X65760000Y-48001000D01*
X65815000Y-48056000D01*
D11*
X66235539Y-48092484D02*
X66121253Y-48092484D01*
X66178396Y-48092484D02*
X66178396Y-47892484D01*
X66178396Y-47892484D02*
X66159348Y-47921055D01*
X66159348Y-47921055D02*
X66140301Y-47940103D01*
X66140301Y-47940103D02*
X66121253Y-47949627D01*
X66321253Y-48073436D02*
X66330777Y-48082960D01*
X66330777Y-48082960D02*
X66321253Y-48092484D01*
X66321253Y-48092484D02*
X66311729Y-48082960D01*
X66311729Y-48082960D02*
X66321253Y-48073436D01*
X66321253Y-48073436D02*
X66321253Y-48092484D01*
X66521253Y-48092484D02*
X66406967Y-48092484D01*
X66464110Y-48092484D02*
X66464110Y-47892484D01*
X66464110Y-47892484D02*
X66445062Y-47921055D01*
X66445062Y-47921055D02*
X66426015Y-47940103D01*
X66426015Y-47940103D02*
X66406967Y-47949627D01*
X66645062Y-47892484D02*
X66664110Y-47892484D01*
X66664110Y-47892484D02*
X66683158Y-47902008D01*
X66683158Y-47902008D02*
X66692682Y-47911531D01*
X66692682Y-47911531D02*
X66702205Y-47930579D01*
X66702205Y-47930579D02*
X66711729Y-47968674D01*
X66711729Y-47968674D02*
X66711729Y-48016293D01*
X66711729Y-48016293D02*
X66702205Y-48054388D01*
X66702205Y-48054388D02*
X66692682Y-48073436D01*
X66692682Y-48073436D02*
X66683158Y-48082960D01*
X66683158Y-48082960D02*
X66664110Y-48092484D01*
X66664110Y-48092484D02*
X66645062Y-48092484D01*
X66645062Y-48092484D02*
X66626015Y-48082960D01*
X66626015Y-48082960D02*
X66616491Y-48073436D01*
X66616491Y-48073436D02*
X66606967Y-48054388D01*
X66606967Y-48054388D02*
X66597443Y-48016293D01*
X66597443Y-48016293D02*
X66597443Y-47968674D01*
X66597443Y-47968674D02*
X66606967Y-47930579D01*
X66606967Y-47930579D02*
X66616491Y-47911531D01*
X66616491Y-47911531D02*
X66626015Y-47902008D01*
X66626015Y-47902008D02*
X66645062Y-47892484D01*
X66835539Y-47892484D02*
X66854586Y-47892484D01*
X66854586Y-47892484D02*
X66873634Y-47902008D01*
X66873634Y-47902008D02*
X66883158Y-47911531D01*
X66883158Y-47911531D02*
X66892682Y-47930579D01*
X66892682Y-47930579D02*
X66902205Y-47968674D01*
X66902205Y-47968674D02*
X66902205Y-48016293D01*
X66902205Y-48016293D02*
X66892682Y-48054388D01*
X66892682Y-48054388D02*
X66883158Y-48073436D01*
X66883158Y-48073436D02*
X66873634Y-48082960D01*
X66873634Y-48082960D02*
X66854586Y-48092484D01*
X66854586Y-48092484D02*
X66835539Y-48092484D01*
X66835539Y-48092484D02*
X66816491Y-48082960D01*
X66816491Y-48082960D02*
X66806967Y-48073436D01*
X66806967Y-48073436D02*
X66797443Y-48054388D01*
X66797443Y-48054388D02*
X66787920Y-48016293D01*
X66787920Y-48016293D02*
X66787920Y-47968674D01*
X66787920Y-47968674D02*
X66797443Y-47930579D01*
X66797443Y-47930579D02*
X66806967Y-47911531D01*
X66806967Y-47911531D02*
X66816491Y-47902008D01*
X66816491Y-47902008D02*
X66835539Y-47892484D01*
X66987920Y-48092484D02*
X66987920Y-47959150D01*
X66987920Y-47978198D02*
X66997443Y-47968674D01*
X66997443Y-47968674D02*
X67016491Y-47959150D01*
X67016491Y-47959150D02*
X67045063Y-47959150D01*
X67045063Y-47959150D02*
X67064110Y-47968674D01*
X67064110Y-47968674D02*
X67073634Y-47987722D01*
X67073634Y-47987722D02*
X67073634Y-48092484D01*
X67073634Y-47987722D02*
X67083158Y-47968674D01*
X67083158Y-47968674D02*
X67102205Y-47959150D01*
X67102205Y-47959150D02*
X67130777Y-47959150D01*
X67130777Y-47959150D02*
X67149825Y-47968674D01*
X67149825Y-47968674D02*
X67159348Y-47987722D01*
X67159348Y-47987722D02*
X67159348Y-48092484D01*
X67254586Y-48092484D02*
X67254586Y-47959150D01*
X67254586Y-47978198D02*
X67264110Y-47968674D01*
X67264110Y-47968674D02*
X67283158Y-47959150D01*
X67283158Y-47959150D02*
X67311729Y-47959150D01*
X67311729Y-47959150D02*
X67330777Y-47968674D01*
X67330777Y-47968674D02*
X67340301Y-47987722D01*
X67340301Y-47987722D02*
X67340301Y-48092484D01*
X67340301Y-47987722D02*
X67349825Y-47968674D01*
X67349825Y-47968674D02*
X67368872Y-47959150D01*
X67368872Y-47959150D02*
X67397444Y-47959150D01*
X67397444Y-47959150D02*
X67416491Y-47968674D01*
X67416491Y-47968674D02*
X67426015Y-47987722D01*
X67426015Y-47987722D02*
X67426015Y-48092484D01*
X67816491Y-47882960D02*
X67645063Y-48140103D01*
X68073634Y-47892484D02*
X68092682Y-47892484D01*
X68092682Y-47892484D02*
X68111729Y-47902008D01*
X68111729Y-47902008D02*
X68121253Y-47911531D01*
X68121253Y-47911531D02*
X68130777Y-47930579D01*
X68130777Y-47930579D02*
X68140301Y-47968674D01*
X68140301Y-47968674D02*
X68140301Y-48016293D01*
X68140301Y-48016293D02*
X68130777Y-48054388D01*
X68130777Y-48054388D02*
X68121253Y-48073436D01*
X68121253Y-48073436D02*
X68111729Y-48082960D01*
X68111729Y-48082960D02*
X68092682Y-48092484D01*
X68092682Y-48092484D02*
X68073634Y-48092484D01*
X68073634Y-48092484D02*
X68054587Y-48082960D01*
X68054587Y-48082960D02*
X68045063Y-48073436D01*
X68045063Y-48073436D02*
X68035539Y-48054388D01*
X68035539Y-48054388D02*
X68026015Y-48016293D01*
X68026015Y-48016293D02*
X68026015Y-47968674D01*
X68026015Y-47968674D02*
X68035539Y-47930579D01*
X68035539Y-47930579D02*
X68045063Y-47911531D01*
X68045063Y-47911531D02*
X68054587Y-47902008D01*
X68054587Y-47902008D02*
X68073634Y-47892484D01*
X68226015Y-48073436D02*
X68235539Y-48082960D01*
X68235539Y-48082960D02*
X68226015Y-48092484D01*
X68226015Y-48092484D02*
X68216491Y-48082960D01*
X68216491Y-48082960D02*
X68226015Y-48073436D01*
X68226015Y-48073436D02*
X68226015Y-48092484D01*
X68359348Y-47892484D02*
X68378396Y-47892484D01*
X68378396Y-47892484D02*
X68397444Y-47902008D01*
X68397444Y-47902008D02*
X68406968Y-47911531D01*
X68406968Y-47911531D02*
X68416491Y-47930579D01*
X68416491Y-47930579D02*
X68426015Y-47968674D01*
X68426015Y-47968674D02*
X68426015Y-48016293D01*
X68426015Y-48016293D02*
X68416491Y-48054388D01*
X68416491Y-48054388D02*
X68406968Y-48073436D01*
X68406968Y-48073436D02*
X68397444Y-48082960D01*
X68397444Y-48082960D02*
X68378396Y-48092484D01*
X68378396Y-48092484D02*
X68359348Y-48092484D01*
X68359348Y-48092484D02*
X68340301Y-48082960D01*
X68340301Y-48082960D02*
X68330777Y-48073436D01*
X68330777Y-48073436D02*
X68321253Y-48054388D01*
X68321253Y-48054388D02*
X68311729Y-48016293D01*
X68311729Y-48016293D02*
X68311729Y-47968674D01*
X68311729Y-47968674D02*
X68321253Y-47930579D01*
X68321253Y-47930579D02*
X68330777Y-47911531D01*
X68330777Y-47911531D02*
X68340301Y-47902008D01*
X68340301Y-47902008D02*
X68359348Y-47892484D01*
X68597444Y-47959150D02*
X68597444Y-48092484D01*
X68549825Y-47882960D02*
X68502206Y-48025817D01*
X68502206Y-48025817D02*
X68626015Y-48025817D01*
X68683158Y-47892484D02*
X68806968Y-47892484D01*
X68806968Y-47892484D02*
X68740301Y-47968674D01*
X68740301Y-47968674D02*
X68768872Y-47968674D01*
X68768872Y-47968674D02*
X68787920Y-47978198D01*
X68787920Y-47978198D02*
X68797444Y-47987722D01*
X68797444Y-47987722D02*
X68806968Y-48006769D01*
X68806968Y-48006769D02*
X68806968Y-48054388D01*
X68806968Y-48054388D02*
X68797444Y-48073436D01*
X68797444Y-48073436D02*
X68787920Y-48082960D01*
X68787920Y-48082960D02*
X68768872Y-48092484D01*
X68768872Y-48092484D02*
X68711729Y-48092484D01*
X68711729Y-48092484D02*
X68692682Y-48082960D01*
X68692682Y-48082960D02*
X68683158Y-48073436D01*
X68873634Y-47892484D02*
X68997444Y-47892484D01*
X68997444Y-47892484D02*
X68930777Y-47968674D01*
X68930777Y-47968674D02*
X68959349Y-47968674D01*
X68959349Y-47968674D02*
X68978396Y-47978198D01*
X68978396Y-47978198D02*
X68987920Y-47987722D01*
X68987920Y-47987722D02*
X68997444Y-48006769D01*
X68997444Y-48006769D02*
X68997444Y-48054388D01*
X68997444Y-48054388D02*
X68987920Y-48073436D01*
X68987920Y-48073436D02*
X68978396Y-48082960D01*
X68978396Y-48082960D02*
X68959349Y-48092484D01*
X68959349Y-48092484D02*
X68902206Y-48092484D01*
X68902206Y-48092484D02*
X68883158Y-48082960D01*
X68883158Y-48082960D02*
X68873634Y-48073436D01*
X69073634Y-47892484D02*
X69073634Y-47930579D01*
X69149825Y-47892484D02*
X69149825Y-47930579D01*
X69445063Y-48168674D02*
X69435539Y-48159150D01*
X69435539Y-48159150D02*
X69416491Y-48130579D01*
X69416491Y-48130579D02*
X69406968Y-48111531D01*
X69406968Y-48111531D02*
X69397444Y-48082960D01*
X69397444Y-48082960D02*
X69387920Y-48035341D01*
X69387920Y-48035341D02*
X69387920Y-47997246D01*
X69387920Y-47997246D02*
X69397444Y-47949627D01*
X69397444Y-47949627D02*
X69406968Y-47921055D01*
X69406968Y-47921055D02*
X69416491Y-47902008D01*
X69416491Y-47902008D02*
X69435539Y-47873436D01*
X69435539Y-47873436D02*
X69445063Y-47863912D01*
X69549825Y-47978198D02*
X69530777Y-47968674D01*
X69530777Y-47968674D02*
X69521253Y-47959150D01*
X69521253Y-47959150D02*
X69511730Y-47940103D01*
X69511730Y-47940103D02*
X69511730Y-47930579D01*
X69511730Y-47930579D02*
X69521253Y-47911531D01*
X69521253Y-47911531D02*
X69530777Y-47902008D01*
X69530777Y-47902008D02*
X69549825Y-47892484D01*
X69549825Y-47892484D02*
X69587920Y-47892484D01*
X69587920Y-47892484D02*
X69606968Y-47902008D01*
X69606968Y-47902008D02*
X69616491Y-47911531D01*
X69616491Y-47911531D02*
X69626015Y-47930579D01*
X69626015Y-47930579D02*
X69626015Y-47940103D01*
X69626015Y-47940103D02*
X69616491Y-47959150D01*
X69616491Y-47959150D02*
X69606968Y-47968674D01*
X69606968Y-47968674D02*
X69587920Y-47978198D01*
X69587920Y-47978198D02*
X69549825Y-47978198D01*
X69549825Y-47978198D02*
X69530777Y-47987722D01*
X69530777Y-47987722D02*
X69521253Y-47997246D01*
X69521253Y-47997246D02*
X69511730Y-48016293D01*
X69511730Y-48016293D02*
X69511730Y-48054388D01*
X69511730Y-48054388D02*
X69521253Y-48073436D01*
X69521253Y-48073436D02*
X69530777Y-48082960D01*
X69530777Y-48082960D02*
X69549825Y-48092484D01*
X69549825Y-48092484D02*
X69587920Y-48092484D01*
X69587920Y-48092484D02*
X69606968Y-48082960D01*
X69606968Y-48082960D02*
X69616491Y-48073436D01*
X69616491Y-48073436D02*
X69626015Y-48054388D01*
X69626015Y-48054388D02*
X69626015Y-48016293D01*
X69626015Y-48016293D02*
X69616491Y-47997246D01*
X69616491Y-47997246D02*
X69606968Y-47987722D01*
X69606968Y-47987722D02*
X69587920Y-47978198D01*
X69864111Y-48092484D02*
X69864111Y-47892484D01*
X69949825Y-48092484D02*
X69949825Y-47987722D01*
X69949825Y-47987722D02*
X69940301Y-47968674D01*
X69940301Y-47968674D02*
X69921253Y-47959150D01*
X69921253Y-47959150D02*
X69892682Y-47959150D01*
X69892682Y-47959150D02*
X69873634Y-47968674D01*
X69873634Y-47968674D02*
X69864111Y-47978198D01*
X70073634Y-48092484D02*
X70054587Y-48082960D01*
X70054587Y-48082960D02*
X70045063Y-48073436D01*
X70045063Y-48073436D02*
X70035539Y-48054388D01*
X70035539Y-48054388D02*
X70035539Y-47997246D01*
X70035539Y-47997246D02*
X70045063Y-47978198D01*
X70045063Y-47978198D02*
X70054587Y-47968674D01*
X70054587Y-47968674D02*
X70073634Y-47959150D01*
X70073634Y-47959150D02*
X70102206Y-47959150D01*
X70102206Y-47959150D02*
X70121253Y-47968674D01*
X70121253Y-47968674D02*
X70130777Y-47978198D01*
X70130777Y-47978198D02*
X70140301Y-47997246D01*
X70140301Y-47997246D02*
X70140301Y-48054388D01*
X70140301Y-48054388D02*
X70130777Y-48073436D01*
X70130777Y-48073436D02*
X70121253Y-48082960D01*
X70121253Y-48082960D02*
X70102206Y-48092484D01*
X70102206Y-48092484D02*
X70073634Y-48092484D01*
X70254587Y-48092484D02*
X70235539Y-48082960D01*
X70235539Y-48082960D02*
X70226015Y-48063912D01*
X70226015Y-48063912D02*
X70226015Y-47892484D01*
X70406968Y-48082960D02*
X70387920Y-48092484D01*
X70387920Y-48092484D02*
X70349825Y-48092484D01*
X70349825Y-48092484D02*
X70330777Y-48082960D01*
X70330777Y-48082960D02*
X70321253Y-48063912D01*
X70321253Y-48063912D02*
X70321253Y-47987722D01*
X70321253Y-47987722D02*
X70330777Y-47968674D01*
X70330777Y-47968674D02*
X70349825Y-47959150D01*
X70349825Y-47959150D02*
X70387920Y-47959150D01*
X70387920Y-47959150D02*
X70406968Y-47968674D01*
X70406968Y-47968674D02*
X70416492Y-47987722D01*
X70416492Y-47987722D02*
X70416492Y-48006769D01*
X70416492Y-48006769D02*
X70321253Y-48025817D01*
X70492682Y-48082960D02*
X70511730Y-48092484D01*
X70511730Y-48092484D02*
X70549825Y-48092484D01*
X70549825Y-48092484D02*
X70568873Y-48082960D01*
X70568873Y-48082960D02*
X70578396Y-48063912D01*
X70578396Y-48063912D02*
X70578396Y-48054388D01*
X70578396Y-48054388D02*
X70568873Y-48035341D01*
X70568873Y-48035341D02*
X70549825Y-48025817D01*
X70549825Y-48025817D02*
X70521253Y-48025817D01*
X70521253Y-48025817D02*
X70502206Y-48016293D01*
X70502206Y-48016293D02*
X70492682Y-47997246D01*
X70492682Y-47997246D02*
X70492682Y-47987722D01*
X70492682Y-47987722D02*
X70502206Y-47968674D01*
X70502206Y-47968674D02*
X70521253Y-47959150D01*
X70521253Y-47959150D02*
X70549825Y-47959150D01*
X70549825Y-47959150D02*
X70568873Y-47968674D01*
X70645063Y-48168674D02*
X70654587Y-48159150D01*
X70654587Y-48159150D02*
X70673634Y-48130579D01*
X70673634Y-48130579D02*
X70683158Y-48111531D01*
X70683158Y-48111531D02*
X70692682Y-48082960D01*
X70692682Y-48082960D02*
X70702206Y-48035341D01*
X70702206Y-48035341D02*
X70702206Y-47997246D01*
X70702206Y-47997246D02*
X70692682Y-47949627D01*
X70692682Y-47949627D02*
X70683158Y-47921055D01*
X70683158Y-47921055D02*
X70673634Y-47902008D01*
X70673634Y-47902008D02*
X70654587Y-47873436D01*
X70654587Y-47873436D02*
X70645063Y-47863912D01*
M02*
