%TF.GenerationSoftware,KiCad,Pcbnew,7.0.8*%
%TF.CreationDate,2023-12-22T21:50:36-07:00*%
%TF.ProjectId,Sandbox,53616e64-626f-4782-9e6b-696361645f70,rev?*%
%TF.SameCoordinates,Original*%
%TF.FileFunction,Drillmap*%
%TF.FilePolarity,Positive*%
%FSLAX45Y45*%
G04 Gerber Fmt 4.5, Leading zero omitted, Abs format (unit mm)*
G04 Created by KiCad (PCBNEW 7.0.8) date 2023-12-22 21:50:36*
%MOMM*%
%LPD*%
G01*
G04 APERTURE LIST*
%ADD10C,0.100000*%
%ADD11C,0.200000*%
G04 APERTURE END LIST*
D10*
X65875000Y-43025000D02*
X73800000Y-43025000D01*
X73800000Y-46300000D01*
X65875000Y-46300000D01*
X65875000Y-43025000D01*
D11*
X66130777Y-46616484D02*
X66130777Y-46416484D01*
X66130777Y-46416484D02*
X66178396Y-46416484D01*
X66178396Y-46416484D02*
X66206967Y-46426008D01*
X66206967Y-46426008D02*
X66226015Y-46445055D01*
X66226015Y-46445055D02*
X66235539Y-46464103D01*
X66235539Y-46464103D02*
X66245062Y-46502198D01*
X66245062Y-46502198D02*
X66245062Y-46530769D01*
X66245062Y-46530769D02*
X66235539Y-46568865D01*
X66235539Y-46568865D02*
X66226015Y-46587912D01*
X66226015Y-46587912D02*
X66206967Y-46606960D01*
X66206967Y-46606960D02*
X66178396Y-46616484D01*
X66178396Y-46616484D02*
X66130777Y-46616484D01*
X66330777Y-46616484D02*
X66330777Y-46483150D01*
X66330777Y-46521246D02*
X66340301Y-46502198D01*
X66340301Y-46502198D02*
X66349824Y-46492674D01*
X66349824Y-46492674D02*
X66368872Y-46483150D01*
X66368872Y-46483150D02*
X66387920Y-46483150D01*
X66454586Y-46616484D02*
X66454586Y-46483150D01*
X66454586Y-46416484D02*
X66445062Y-46426008D01*
X66445062Y-46426008D02*
X66454586Y-46435531D01*
X66454586Y-46435531D02*
X66464110Y-46426008D01*
X66464110Y-46426008D02*
X66454586Y-46416484D01*
X66454586Y-46416484D02*
X66454586Y-46435531D01*
X66578396Y-46616484D02*
X66559348Y-46606960D01*
X66559348Y-46606960D02*
X66549824Y-46587912D01*
X66549824Y-46587912D02*
X66549824Y-46416484D01*
X66683158Y-46616484D02*
X66664110Y-46606960D01*
X66664110Y-46606960D02*
X66654586Y-46587912D01*
X66654586Y-46587912D02*
X66654586Y-46416484D01*
X66911729Y-46616484D02*
X66911729Y-46416484D01*
X66911729Y-46416484D02*
X66978396Y-46559341D01*
X66978396Y-46559341D02*
X67045062Y-46416484D01*
X67045062Y-46416484D02*
X67045062Y-46616484D01*
X67226015Y-46616484D02*
X67226015Y-46511722D01*
X67226015Y-46511722D02*
X67216491Y-46492674D01*
X67216491Y-46492674D02*
X67197444Y-46483150D01*
X67197444Y-46483150D02*
X67159348Y-46483150D01*
X67159348Y-46483150D02*
X67140301Y-46492674D01*
X67226015Y-46606960D02*
X67206967Y-46616484D01*
X67206967Y-46616484D02*
X67159348Y-46616484D01*
X67159348Y-46616484D02*
X67140301Y-46606960D01*
X67140301Y-46606960D02*
X67130777Y-46587912D01*
X67130777Y-46587912D02*
X67130777Y-46568865D01*
X67130777Y-46568865D02*
X67140301Y-46549817D01*
X67140301Y-46549817D02*
X67159348Y-46540293D01*
X67159348Y-46540293D02*
X67206967Y-46540293D01*
X67206967Y-46540293D02*
X67226015Y-46530769D01*
X67321253Y-46483150D02*
X67321253Y-46683150D01*
X67321253Y-46492674D02*
X67340301Y-46483150D01*
X67340301Y-46483150D02*
X67378396Y-46483150D01*
X67378396Y-46483150D02*
X67397444Y-46492674D01*
X67397444Y-46492674D02*
X67406967Y-46502198D01*
X67406967Y-46502198D02*
X67416491Y-46521246D01*
X67416491Y-46521246D02*
X67416491Y-46578388D01*
X67416491Y-46578388D02*
X67406967Y-46597436D01*
X67406967Y-46597436D02*
X67397444Y-46606960D01*
X67397444Y-46606960D02*
X67378396Y-46616484D01*
X67378396Y-46616484D02*
X67340301Y-46616484D01*
X67340301Y-46616484D02*
X67321253Y-46606960D01*
X67502205Y-46597436D02*
X67511729Y-46606960D01*
X67511729Y-46606960D02*
X67502205Y-46616484D01*
X67502205Y-46616484D02*
X67492682Y-46606960D01*
X67492682Y-46606960D02*
X67502205Y-46597436D01*
X67502205Y-46597436D02*
X67502205Y-46616484D01*
X67502205Y-46492674D02*
X67511729Y-46502198D01*
X67511729Y-46502198D02*
X67502205Y-46511722D01*
X67502205Y-46511722D02*
X67492682Y-46502198D01*
X67492682Y-46502198D02*
X67502205Y-46492674D01*
X67502205Y-46492674D02*
X67502205Y-46511722D01*
M02*
