%TF.GenerationSoftware,KiCad,Pcbnew,7.0.8*%
%TF.CreationDate,2023-12-22T21:17:57-07:00*%
%TF.ProjectId,Sandbox,53616e64-626f-4782-9e6b-696361645f70,rev?*%
%TF.SameCoordinates,Original*%
%TF.FileFunction,Drillmap*%
%TF.FilePolarity,Positive*%
%FSLAX45Y45*%
G04 Gerber Fmt 4.5, Leading zero omitted, Abs format (unit mm)*
G04 Created by KiCad (PCBNEW 7.0.8) date 2023-12-22 21:17:57*
%MOMM*%
%LPD*%
G01*
G04 APERTURE LIST*
%ADD10C,0.100000*%
%ADD11C,0.200000*%
G04 APERTURE END LIST*
D10*
X30225000Y-36400000D02*
X75950000Y-36400000D01*
X75950000Y-51775000D01*
X30225000Y-51775000D01*
X30225000Y-36400000D01*
D11*
X30480777Y-52091484D02*
X30480777Y-51891484D01*
X30480777Y-51891484D02*
X30528396Y-51891484D01*
X30528396Y-51891484D02*
X30556967Y-51901008D01*
X30556967Y-51901008D02*
X30576015Y-51920055D01*
X30576015Y-51920055D02*
X30585539Y-51939103D01*
X30585539Y-51939103D02*
X30595062Y-51977198D01*
X30595062Y-51977198D02*
X30595062Y-52005769D01*
X30595062Y-52005769D02*
X30585539Y-52043865D01*
X30585539Y-52043865D02*
X30576015Y-52062912D01*
X30576015Y-52062912D02*
X30556967Y-52081960D01*
X30556967Y-52081960D02*
X30528396Y-52091484D01*
X30528396Y-52091484D02*
X30480777Y-52091484D01*
X30680777Y-52091484D02*
X30680777Y-51958150D01*
X30680777Y-51996246D02*
X30690301Y-51977198D01*
X30690301Y-51977198D02*
X30699824Y-51967674D01*
X30699824Y-51967674D02*
X30718872Y-51958150D01*
X30718872Y-51958150D02*
X30737920Y-51958150D01*
X30804586Y-52091484D02*
X30804586Y-51958150D01*
X30804586Y-51891484D02*
X30795062Y-51901008D01*
X30795062Y-51901008D02*
X30804586Y-51910531D01*
X30804586Y-51910531D02*
X30814110Y-51901008D01*
X30814110Y-51901008D02*
X30804586Y-51891484D01*
X30804586Y-51891484D02*
X30804586Y-51910531D01*
X30928396Y-52091484D02*
X30909348Y-52081960D01*
X30909348Y-52081960D02*
X30899824Y-52062912D01*
X30899824Y-52062912D02*
X30899824Y-51891484D01*
X31033158Y-52091484D02*
X31014110Y-52081960D01*
X31014110Y-52081960D02*
X31004586Y-52062912D01*
X31004586Y-52062912D02*
X31004586Y-51891484D01*
X31261729Y-52091484D02*
X31261729Y-51891484D01*
X31261729Y-51891484D02*
X31328396Y-52034341D01*
X31328396Y-52034341D02*
X31395062Y-51891484D01*
X31395062Y-51891484D02*
X31395062Y-52091484D01*
X31576015Y-52091484D02*
X31576015Y-51986722D01*
X31576015Y-51986722D02*
X31566491Y-51967674D01*
X31566491Y-51967674D02*
X31547443Y-51958150D01*
X31547443Y-51958150D02*
X31509348Y-51958150D01*
X31509348Y-51958150D02*
X31490301Y-51967674D01*
X31576015Y-52081960D02*
X31556967Y-52091484D01*
X31556967Y-52091484D02*
X31509348Y-52091484D01*
X31509348Y-52091484D02*
X31490301Y-52081960D01*
X31490301Y-52081960D02*
X31480777Y-52062912D01*
X31480777Y-52062912D02*
X31480777Y-52043865D01*
X31480777Y-52043865D02*
X31490301Y-52024817D01*
X31490301Y-52024817D02*
X31509348Y-52015293D01*
X31509348Y-52015293D02*
X31556967Y-52015293D01*
X31556967Y-52015293D02*
X31576015Y-52005769D01*
X31671253Y-51958150D02*
X31671253Y-52158150D01*
X31671253Y-51967674D02*
X31690301Y-51958150D01*
X31690301Y-51958150D02*
X31728396Y-51958150D01*
X31728396Y-51958150D02*
X31747443Y-51967674D01*
X31747443Y-51967674D02*
X31756967Y-51977198D01*
X31756967Y-51977198D02*
X31766491Y-51996246D01*
X31766491Y-51996246D02*
X31766491Y-52053388D01*
X31766491Y-52053388D02*
X31756967Y-52072436D01*
X31756967Y-52072436D02*
X31747443Y-52081960D01*
X31747443Y-52081960D02*
X31728396Y-52091484D01*
X31728396Y-52091484D02*
X31690301Y-52091484D01*
X31690301Y-52091484D02*
X31671253Y-52081960D01*
X31852205Y-52072436D02*
X31861729Y-52081960D01*
X31861729Y-52081960D02*
X31852205Y-52091484D01*
X31852205Y-52091484D02*
X31842682Y-52081960D01*
X31842682Y-52081960D02*
X31852205Y-52072436D01*
X31852205Y-52072436D02*
X31852205Y-52091484D01*
X31852205Y-51967674D02*
X31861729Y-51977198D01*
X31861729Y-51977198D02*
X31852205Y-51986722D01*
X31852205Y-51986722D02*
X31842682Y-51977198D01*
X31842682Y-51977198D02*
X31852205Y-51967674D01*
X31852205Y-51967674D02*
X31852205Y-51986722D01*
M02*
