G04 #@! TF.GenerationSoftware,KiCad,Pcbnew,7.0.8*
G04 #@! TF.CreationDate,2023-12-22T21:50:32-07:00*
G04 #@! TF.ProjectId,Sandbox,53616e64-626f-4782-9e6b-696361645f70,rev?*
G04 #@! TF.SameCoordinates,Original*
G04 #@! TF.FileFunction,Legend,Top*
G04 #@! TF.FilePolarity,Positive*
%FSLAX46Y46*%
G04 Gerber Fmt 4.6, Leading zero omitted, Abs format (unit mm)*
G04 Created by KiCad (PCBNEW 7.0.8) date 2023-12-22 21:50:32*
%MOMM*%
%LPD*%
G01*
G04 APERTURE LIST*
%ADD10C,0.150000*%
%ADD11C,0.350000*%
%ADD12C,0.300000*%
%ADD13C,0.120000*%
%ADD14R,1.500000X1.050000*%
%ADD15O,1.500000X1.050000*%
%ADD16C,2.000000*%
%ADD17C,1.600000*%
%ADD18O,1.600000X1.600000*%
%ADD19R,1.800000X1.800000*%
%ADD20C,1.800000*%
G04 APERTURE END LIST*
D10*
X678675000Y-433000000D02*
X702675000Y-433000000D01*
X702675000Y-459000000D01*
X678675000Y-459000000D01*
X678675000Y-433000000D01*
X717567254Y-446000000D02*
G75*
G03*
X717567254Y-446000000I-1892254J0D01*
G01*
X702675000Y-459000000D02*
G75*
G03*
X702675000Y-433000000I0J13000000D01*
G01*
X679714160Y-436334104D02*
X680190350Y-436334104D01*
X679618922Y-436619819D02*
X679952255Y-435619819D01*
X679952255Y-435619819D02*
X680285588Y-436619819D01*
D11*
X663194548Y-453543228D02*
X663623120Y-453686085D01*
X663623120Y-453686085D02*
X663765977Y-453828942D01*
X663765977Y-453828942D02*
X663908834Y-454114657D01*
X663908834Y-454114657D02*
X663908834Y-454543228D01*
X663908834Y-454543228D02*
X663765977Y-454828942D01*
X663765977Y-454828942D02*
X663623120Y-454971800D01*
X663623120Y-454971800D02*
X663337405Y-455114657D01*
X663337405Y-455114657D02*
X662194548Y-455114657D01*
X662194548Y-455114657D02*
X662194548Y-452114657D01*
X662194548Y-452114657D02*
X663194548Y-452114657D01*
X663194548Y-452114657D02*
X663480263Y-452257514D01*
X663480263Y-452257514D02*
X663623120Y-452400371D01*
X663623120Y-452400371D02*
X663765977Y-452686085D01*
X663765977Y-452686085D02*
X663765977Y-452971800D01*
X663765977Y-452971800D02*
X663623120Y-453257514D01*
X663623120Y-453257514D02*
X663480263Y-453400371D01*
X663480263Y-453400371D02*
X663194548Y-453543228D01*
X663194548Y-453543228D02*
X662194548Y-453543228D01*
D12*
X699015225Y-457122257D02*
X698872368Y-457050828D01*
X698872368Y-457050828D02*
X698658082Y-457050828D01*
X698658082Y-457050828D02*
X698443796Y-457122257D01*
X698443796Y-457122257D02*
X698300939Y-457265114D01*
X698300939Y-457265114D02*
X698229510Y-457407971D01*
X698229510Y-457407971D02*
X698158082Y-457693685D01*
X698158082Y-457693685D02*
X698158082Y-457907971D01*
X698158082Y-457907971D02*
X698229510Y-458193685D01*
X698229510Y-458193685D02*
X698300939Y-458336542D01*
X698300939Y-458336542D02*
X698443796Y-458479400D01*
X698443796Y-458479400D02*
X698658082Y-458550828D01*
X698658082Y-458550828D02*
X698800939Y-458550828D01*
X698800939Y-458550828D02*
X699015225Y-458479400D01*
X699015225Y-458479400D02*
X699086653Y-458407971D01*
X699086653Y-458407971D02*
X699086653Y-457907971D01*
X699086653Y-457907971D02*
X698800939Y-457907971D01*
X699729510Y-458550828D02*
X699729510Y-457050828D01*
X699729510Y-457050828D02*
X700586653Y-458550828D01*
X700586653Y-458550828D02*
X700586653Y-457050828D01*
X701300939Y-458550828D02*
X701300939Y-457050828D01*
X701300939Y-457050828D02*
X701658082Y-457050828D01*
X701658082Y-457050828D02*
X701872368Y-457122257D01*
X701872368Y-457122257D02*
X702015225Y-457265114D01*
X702015225Y-457265114D02*
X702086654Y-457407971D01*
X702086654Y-457407971D02*
X702158082Y-457693685D01*
X702158082Y-457693685D02*
X702158082Y-457907971D01*
X702158082Y-457907971D02*
X702086654Y-458193685D01*
X702086654Y-458193685D02*
X702015225Y-458336542D01*
X702015225Y-458336542D02*
X701872368Y-458479400D01*
X701872368Y-458479400D02*
X701658082Y-458550828D01*
X701658082Y-458550828D02*
X701300939Y-458550828D01*
D10*
X680095112Y-453596009D02*
X680237969Y-453643628D01*
X680237969Y-453643628D02*
X680285588Y-453691247D01*
X680285588Y-453691247D02*
X680333207Y-453786485D01*
X680333207Y-453786485D02*
X680333207Y-453929342D01*
X680333207Y-453929342D02*
X680285588Y-454024580D01*
X680285588Y-454024580D02*
X680237969Y-454072200D01*
X680237969Y-454072200D02*
X680142731Y-454119819D01*
X680142731Y-454119819D02*
X679761779Y-454119819D01*
X679761779Y-454119819D02*
X679761779Y-453119819D01*
X679761779Y-453119819D02*
X680095112Y-453119819D01*
X680095112Y-453119819D02*
X680190350Y-453167438D01*
X680190350Y-453167438D02*
X680237969Y-453215057D01*
X680237969Y-453215057D02*
X680285588Y-453310295D01*
X680285588Y-453310295D02*
X680285588Y-453405533D01*
X680285588Y-453405533D02*
X680237969Y-453500771D01*
X680237969Y-453500771D02*
X680190350Y-453548390D01*
X680190350Y-453548390D02*
X680095112Y-453596009D01*
X680095112Y-453596009D02*
X679761779Y-453596009D01*
D11*
X722158834Y-440328942D02*
X722015977Y-440471800D01*
X722015977Y-440471800D02*
X721587405Y-440614657D01*
X721587405Y-440614657D02*
X721301691Y-440614657D01*
X721301691Y-440614657D02*
X720873120Y-440471800D01*
X720873120Y-440471800D02*
X720587405Y-440186085D01*
X720587405Y-440186085D02*
X720444548Y-439900371D01*
X720444548Y-439900371D02*
X720301691Y-439328942D01*
X720301691Y-439328942D02*
X720301691Y-438900371D01*
X720301691Y-438900371D02*
X720444548Y-438328942D01*
X720444548Y-438328942D02*
X720587405Y-438043228D01*
X720587405Y-438043228D02*
X720873120Y-437757514D01*
X720873120Y-437757514D02*
X721301691Y-437614657D01*
X721301691Y-437614657D02*
X721587405Y-437614657D01*
X721587405Y-437614657D02*
X722015977Y-437757514D01*
X722015977Y-437757514D02*
X722158834Y-437900371D01*
D10*
X679011779Y-445869819D02*
X679011779Y-444869819D01*
X679011779Y-444869819D02*
X679583207Y-445869819D01*
X679583207Y-445869819D02*
X679583207Y-444869819D01*
X680011779Y-445584104D02*
X680487969Y-445584104D01*
X679916541Y-445869819D02*
X680249874Y-444869819D01*
X680249874Y-444869819D02*
X680583207Y-445869819D01*
X680916541Y-445869819D02*
X680916541Y-444869819D01*
X680916541Y-444869819D02*
X681487969Y-445869819D01*
X681487969Y-445869819D02*
X681487969Y-444869819D01*
X681964160Y-445869819D02*
X681964160Y-444869819D01*
X681964160Y-444869819D02*
X682202255Y-444869819D01*
X682202255Y-444869819D02*
X682345112Y-444917438D01*
X682345112Y-444917438D02*
X682440350Y-445012676D01*
X682440350Y-445012676D02*
X682487969Y-445107914D01*
X682487969Y-445107914D02*
X682535588Y-445298390D01*
X682535588Y-445298390D02*
X682535588Y-445441247D01*
X682535588Y-445441247D02*
X682487969Y-445631723D01*
X682487969Y-445631723D02*
X682440350Y-445726961D01*
X682440350Y-445726961D02*
X682345112Y-445822200D01*
X682345112Y-445822200D02*
X682202255Y-445869819D01*
X682202255Y-445869819D02*
X681964160Y-445869819D01*
D12*
X694265225Y-433550828D02*
X694765225Y-435050828D01*
X694765225Y-435050828D02*
X695265225Y-433550828D01*
X696622367Y-434907971D02*
X696550939Y-434979400D01*
X696550939Y-434979400D02*
X696336653Y-435050828D01*
X696336653Y-435050828D02*
X696193796Y-435050828D01*
X696193796Y-435050828D02*
X695979510Y-434979400D01*
X695979510Y-434979400D02*
X695836653Y-434836542D01*
X695836653Y-434836542D02*
X695765224Y-434693685D01*
X695765224Y-434693685D02*
X695693796Y-434407971D01*
X695693796Y-434407971D02*
X695693796Y-434193685D01*
X695693796Y-434193685D02*
X695765224Y-433907971D01*
X695765224Y-433907971D02*
X695836653Y-433765114D01*
X695836653Y-433765114D02*
X695979510Y-433622257D01*
X695979510Y-433622257D02*
X696193796Y-433550828D01*
X696193796Y-433550828D02*
X696336653Y-433550828D01*
X696336653Y-433550828D02*
X696550939Y-433622257D01*
X696550939Y-433622257D02*
X696622367Y-433693685D01*
X698122367Y-434907971D02*
X698050939Y-434979400D01*
X698050939Y-434979400D02*
X697836653Y-435050828D01*
X697836653Y-435050828D02*
X697693796Y-435050828D01*
X697693796Y-435050828D02*
X697479510Y-434979400D01*
X697479510Y-434979400D02*
X697336653Y-434836542D01*
X697336653Y-434836542D02*
X697265224Y-434693685D01*
X697265224Y-434693685D02*
X697193796Y-434407971D01*
X697193796Y-434407971D02*
X697193796Y-434193685D01*
X697193796Y-434193685D02*
X697265224Y-433907971D01*
X697265224Y-433907971D02*
X697336653Y-433765114D01*
X697336653Y-433765114D02*
X697479510Y-433622257D01*
X697479510Y-433622257D02*
X697693796Y-433550828D01*
X697693796Y-433550828D02*
X697836653Y-433550828D01*
X697836653Y-433550828D02*
X698050939Y-433622257D01*
X698050939Y-433622257D02*
X698122367Y-433693685D01*
D10*
X679714160Y-436334104D02*
X680190350Y-436334104D01*
X679618922Y-436619819D02*
X679952255Y-435619819D01*
X679952255Y-435619819D02*
X680285588Y-436619819D01*
X680095112Y-453596009D02*
X680237969Y-453643628D01*
X680237969Y-453643628D02*
X680285588Y-453691247D01*
X680285588Y-453691247D02*
X680333207Y-453786485D01*
X680333207Y-453786485D02*
X680333207Y-453929342D01*
X680333207Y-453929342D02*
X680285588Y-454024580D01*
X680285588Y-454024580D02*
X680237969Y-454072200D01*
X680237969Y-454072200D02*
X680142731Y-454119819D01*
X680142731Y-454119819D02*
X679761779Y-454119819D01*
X679761779Y-454119819D02*
X679761779Y-453119819D01*
X679761779Y-453119819D02*
X680095112Y-453119819D01*
X680095112Y-453119819D02*
X680190350Y-453167438D01*
X680190350Y-453167438D02*
X680237969Y-453215057D01*
X680237969Y-453215057D02*
X680285588Y-453310295D01*
X680285588Y-453310295D02*
X680285588Y-453405533D01*
X680285588Y-453405533D02*
X680237969Y-453500771D01*
X680237969Y-453500771D02*
X680190350Y-453548390D01*
X680190350Y-453548390D02*
X680095112Y-453596009D01*
X680095112Y-453596009D02*
X679761779Y-453596009D01*
D11*
X662551691Y-437507514D02*
X663980263Y-437507514D01*
X662265977Y-438364657D02*
X663265977Y-435364657D01*
X663265977Y-435364657D02*
X664265977Y-438364657D01*
D10*
X697325057Y-449141431D02*
X697277438Y-449236669D01*
X697277438Y-449236669D02*
X697182200Y-449331907D01*
X697182200Y-449331907D02*
X697039342Y-449474764D01*
X697039342Y-449474764D02*
X696991723Y-449570002D01*
X696991723Y-449570002D02*
X696991723Y-449665240D01*
X697229819Y-449617621D02*
X697182200Y-449712859D01*
X697182200Y-449712859D02*
X697086961Y-449808097D01*
X697086961Y-449808097D02*
X696896485Y-449855716D01*
X696896485Y-449855716D02*
X696563152Y-449855716D01*
X696563152Y-449855716D02*
X696372676Y-449808097D01*
X696372676Y-449808097D02*
X696277438Y-449712859D01*
X696277438Y-449712859D02*
X696229819Y-449617621D01*
X696229819Y-449617621D02*
X696229819Y-449427145D01*
X696229819Y-449427145D02*
X696277438Y-449331907D01*
X696277438Y-449331907D02*
X696372676Y-449236669D01*
X696372676Y-449236669D02*
X696563152Y-449189050D01*
X696563152Y-449189050D02*
X696896485Y-449189050D01*
X696896485Y-449189050D02*
X697086961Y-449236669D01*
X697086961Y-449236669D02*
X697182200Y-449331907D01*
X697182200Y-449331907D02*
X697229819Y-449427145D01*
X697229819Y-449427145D02*
X697229819Y-449617621D01*
X697229819Y-448236669D02*
X697229819Y-448808097D01*
X697229819Y-448522383D02*
X696229819Y-448522383D01*
X696229819Y-448522383D02*
X696372676Y-448617621D01*
X696372676Y-448617621D02*
X696467914Y-448712859D01*
X696467914Y-448712859D02*
X696515533Y-448808097D01*
X696229819Y-447617621D02*
X696229819Y-447522383D01*
X696229819Y-447522383D02*
X696277438Y-447427145D01*
X696277438Y-447427145D02*
X696325057Y-447379526D01*
X696325057Y-447379526D02*
X696420295Y-447331907D01*
X696420295Y-447331907D02*
X696610771Y-447284288D01*
X696610771Y-447284288D02*
X696848866Y-447284288D01*
X696848866Y-447284288D02*
X697039342Y-447331907D01*
X697039342Y-447331907D02*
X697134580Y-447379526D01*
X697134580Y-447379526D02*
X697182200Y-447427145D01*
X697182200Y-447427145D02*
X697229819Y-447522383D01*
X697229819Y-447522383D02*
X697229819Y-447617621D01*
X697229819Y-447617621D02*
X697182200Y-447712859D01*
X697182200Y-447712859D02*
X697134580Y-447760478D01*
X697134580Y-447760478D02*
X697039342Y-447808097D01*
X697039342Y-447808097D02*
X696848866Y-447855716D01*
X696848866Y-447855716D02*
X696610771Y-447855716D01*
X696610771Y-447855716D02*
X696420295Y-447808097D01*
X696420295Y-447808097D02*
X696325057Y-447760478D01*
X696325057Y-447760478D02*
X696277438Y-447712859D01*
X696277438Y-447712859D02*
X696229819Y-447617621D01*
X668166667Y-432907200D02*
X668309524Y-432954819D01*
X668309524Y-432954819D02*
X668547619Y-432954819D01*
X668547619Y-432954819D02*
X668642857Y-432907200D01*
X668642857Y-432907200D02*
X668690476Y-432859580D01*
X668690476Y-432859580D02*
X668738095Y-432764342D01*
X668738095Y-432764342D02*
X668738095Y-432669104D01*
X668738095Y-432669104D02*
X668690476Y-432573866D01*
X668690476Y-432573866D02*
X668642857Y-432526247D01*
X668642857Y-432526247D02*
X668547619Y-432478628D01*
X668547619Y-432478628D02*
X668357143Y-432431009D01*
X668357143Y-432431009D02*
X668261905Y-432383390D01*
X668261905Y-432383390D02*
X668214286Y-432335771D01*
X668214286Y-432335771D02*
X668166667Y-432240533D01*
X668166667Y-432240533D02*
X668166667Y-432145295D01*
X668166667Y-432145295D02*
X668214286Y-432050057D01*
X668214286Y-432050057D02*
X668261905Y-432002438D01*
X668261905Y-432002438D02*
X668357143Y-431954819D01*
X668357143Y-431954819D02*
X668595238Y-431954819D01*
X668595238Y-431954819D02*
X668738095Y-432002438D01*
X669071429Y-431954819D02*
X669309524Y-432954819D01*
X669309524Y-432954819D02*
X669500000Y-432240533D01*
X669500000Y-432240533D02*
X669690476Y-432954819D01*
X669690476Y-432954819D02*
X669928572Y-431954819D01*
X670738095Y-432288152D02*
X670738095Y-432954819D01*
X670500000Y-431907200D02*
X670261905Y-432621485D01*
X670261905Y-432621485D02*
X670880952Y-432621485D01*
X703159816Y-439942857D02*
X702683625Y-440276190D01*
X703159816Y-440514285D02*
X702159816Y-440514285D01*
X702159816Y-440514285D02*
X702159816Y-440133333D01*
X702159816Y-440133333D02*
X702207435Y-440038095D01*
X702207435Y-440038095D02*
X702255054Y-439990476D01*
X702255054Y-439990476D02*
X702350292Y-439942857D01*
X702350292Y-439942857D02*
X702493149Y-439942857D01*
X702493149Y-439942857D02*
X702588387Y-439990476D01*
X702588387Y-439990476D02*
X702636006Y-440038095D01*
X702636006Y-440038095D02*
X702683625Y-440133333D01*
X702683625Y-440133333D02*
X702683625Y-440514285D01*
X703159816Y-438990476D02*
X703159816Y-439561904D01*
X703159816Y-439276190D02*
X702159816Y-439276190D01*
X702159816Y-439276190D02*
X702302673Y-439371428D01*
X702302673Y-439371428D02*
X702397911Y-439466666D01*
X702397911Y-439466666D02*
X702445530Y-439561904D01*
X702255054Y-438609523D02*
X702207435Y-438561904D01*
X702207435Y-438561904D02*
X702159816Y-438466666D01*
X702159816Y-438466666D02*
X702159816Y-438228571D01*
X702159816Y-438228571D02*
X702207435Y-438133333D01*
X702207435Y-438133333D02*
X702255054Y-438085714D01*
X702255054Y-438085714D02*
X702350292Y-438038095D01*
X702350292Y-438038095D02*
X702445530Y-438038095D01*
X702445530Y-438038095D02*
X702588387Y-438085714D01*
X702588387Y-438085714D02*
X703159816Y-438657142D01*
X703159816Y-438657142D02*
X703159816Y-438038095D01*
X667666667Y-449907200D02*
X667809524Y-449954819D01*
X667809524Y-449954819D02*
X668047619Y-449954819D01*
X668047619Y-449954819D02*
X668142857Y-449907200D01*
X668142857Y-449907200D02*
X668190476Y-449859580D01*
X668190476Y-449859580D02*
X668238095Y-449764342D01*
X668238095Y-449764342D02*
X668238095Y-449669104D01*
X668238095Y-449669104D02*
X668190476Y-449573866D01*
X668190476Y-449573866D02*
X668142857Y-449526247D01*
X668142857Y-449526247D02*
X668047619Y-449478628D01*
X668047619Y-449478628D02*
X667857143Y-449431009D01*
X667857143Y-449431009D02*
X667761905Y-449383390D01*
X667761905Y-449383390D02*
X667714286Y-449335771D01*
X667714286Y-449335771D02*
X667666667Y-449240533D01*
X667666667Y-449240533D02*
X667666667Y-449145295D01*
X667666667Y-449145295D02*
X667714286Y-449050057D01*
X667714286Y-449050057D02*
X667761905Y-449002438D01*
X667761905Y-449002438D02*
X667857143Y-448954819D01*
X667857143Y-448954819D02*
X668095238Y-448954819D01*
X668095238Y-448954819D02*
X668238095Y-449002438D01*
X668571429Y-448954819D02*
X668809524Y-449954819D01*
X668809524Y-449954819D02*
X669000000Y-449240533D01*
X669000000Y-449240533D02*
X669190476Y-449954819D01*
X669190476Y-449954819D02*
X669428572Y-448954819D01*
X670238095Y-448954819D02*
X670047619Y-448954819D01*
X670047619Y-448954819D02*
X669952381Y-449002438D01*
X669952381Y-449002438D02*
X669904762Y-449050057D01*
X669904762Y-449050057D02*
X669809524Y-449192914D01*
X669809524Y-449192914D02*
X669761905Y-449383390D01*
X669761905Y-449383390D02*
X669761905Y-449764342D01*
X669761905Y-449764342D02*
X669809524Y-449859580D01*
X669809524Y-449859580D02*
X669857143Y-449907200D01*
X669857143Y-449907200D02*
X669952381Y-449954819D01*
X669952381Y-449954819D02*
X670142857Y-449954819D01*
X670142857Y-449954819D02*
X670238095Y-449907200D01*
X670238095Y-449907200D02*
X670285714Y-449859580D01*
X670285714Y-449859580D02*
X670333333Y-449764342D01*
X670333333Y-449764342D02*
X670333333Y-449526247D01*
X670333333Y-449526247D02*
X670285714Y-449431009D01*
X670285714Y-449431009D02*
X670238095Y-449383390D01*
X670238095Y-449383390D02*
X670142857Y-449335771D01*
X670142857Y-449335771D02*
X669952381Y-449335771D01*
X669952381Y-449335771D02*
X669857143Y-449383390D01*
X669857143Y-449383390D02*
X669809524Y-449431009D01*
X669809524Y-449431009D02*
X669761905Y-449526247D01*
X681532143Y-453954819D02*
X681198810Y-453478628D01*
X680960715Y-453954819D02*
X680960715Y-452954819D01*
X680960715Y-452954819D02*
X681341667Y-452954819D01*
X681341667Y-452954819D02*
X681436905Y-453002438D01*
X681436905Y-453002438D02*
X681484524Y-453050057D01*
X681484524Y-453050057D02*
X681532143Y-453145295D01*
X681532143Y-453145295D02*
X681532143Y-453288152D01*
X681532143Y-453288152D02*
X681484524Y-453383390D01*
X681484524Y-453383390D02*
X681436905Y-453431009D01*
X681436905Y-453431009D02*
X681341667Y-453478628D01*
X681341667Y-453478628D02*
X680960715Y-453478628D01*
X682484524Y-453954819D02*
X681913096Y-453954819D01*
X682198810Y-453954819D02*
X682198810Y-452954819D01*
X682198810Y-452954819D02*
X682103572Y-453097676D01*
X682103572Y-453097676D02*
X682008334Y-453192914D01*
X682008334Y-453192914D02*
X681913096Y-453240533D01*
X683436905Y-453954819D02*
X682865477Y-453954819D01*
X683151191Y-453954819D02*
X683151191Y-452954819D01*
X683151191Y-452954819D02*
X683055953Y-453097676D01*
X683055953Y-453097676D02*
X682960715Y-453192914D01*
X682960715Y-453192914D02*
X682865477Y-453240533D01*
X730583333Y-444084819D02*
X730250000Y-443608628D01*
X730011905Y-444084819D02*
X730011905Y-443084819D01*
X730011905Y-443084819D02*
X730392857Y-443084819D01*
X730392857Y-443084819D02*
X730488095Y-443132438D01*
X730488095Y-443132438D02*
X730535714Y-443180057D01*
X730535714Y-443180057D02*
X730583333Y-443275295D01*
X730583333Y-443275295D02*
X730583333Y-443418152D01*
X730583333Y-443418152D02*
X730535714Y-443513390D01*
X730535714Y-443513390D02*
X730488095Y-443561009D01*
X730488095Y-443561009D02*
X730392857Y-443608628D01*
X730392857Y-443608628D02*
X730011905Y-443608628D01*
X730964286Y-443180057D02*
X731011905Y-443132438D01*
X731011905Y-443132438D02*
X731107143Y-443084819D01*
X731107143Y-443084819D02*
X731345238Y-443084819D01*
X731345238Y-443084819D02*
X731440476Y-443132438D01*
X731440476Y-443132438D02*
X731488095Y-443180057D01*
X731488095Y-443180057D02*
X731535714Y-443275295D01*
X731535714Y-443275295D02*
X731535714Y-443370533D01*
X731535714Y-443370533D02*
X731488095Y-443513390D01*
X731488095Y-443513390D02*
X730916667Y-444084819D01*
X730916667Y-444084819D02*
X731535714Y-444084819D01*
X682032143Y-436954820D02*
X681698810Y-436478629D01*
X681460715Y-436954820D02*
X681460715Y-435954820D01*
X681460715Y-435954820D02*
X681841667Y-435954820D01*
X681841667Y-435954820D02*
X681936905Y-436002439D01*
X681936905Y-436002439D02*
X681984524Y-436050058D01*
X681984524Y-436050058D02*
X682032143Y-436145296D01*
X682032143Y-436145296D02*
X682032143Y-436288153D01*
X682032143Y-436288153D02*
X681984524Y-436383391D01*
X681984524Y-436383391D02*
X681936905Y-436431010D01*
X681936905Y-436431010D02*
X681841667Y-436478629D01*
X681841667Y-436478629D02*
X681460715Y-436478629D01*
X682984524Y-436954820D02*
X682413096Y-436954820D01*
X682698810Y-436954820D02*
X682698810Y-435954820D01*
X682698810Y-435954820D02*
X682603572Y-436097677D01*
X682603572Y-436097677D02*
X682508334Y-436192915D01*
X682508334Y-436192915D02*
X682413096Y-436240534D01*
X683603572Y-435954820D02*
X683698810Y-435954820D01*
X683698810Y-435954820D02*
X683794048Y-436002439D01*
X683794048Y-436002439D02*
X683841667Y-436050058D01*
X683841667Y-436050058D02*
X683889286Y-436145296D01*
X683889286Y-436145296D02*
X683936905Y-436335772D01*
X683936905Y-436335772D02*
X683936905Y-436573867D01*
X683936905Y-436573867D02*
X683889286Y-436764343D01*
X683889286Y-436764343D02*
X683841667Y-436859581D01*
X683841667Y-436859581D02*
X683794048Y-436907201D01*
X683794048Y-436907201D02*
X683698810Y-436954820D01*
X683698810Y-436954820D02*
X683603572Y-436954820D01*
X683603572Y-436954820D02*
X683508334Y-436907201D01*
X683508334Y-436907201D02*
X683460715Y-436859581D01*
X683460715Y-436859581D02*
X683413096Y-436764343D01*
X683413096Y-436764343D02*
X683365477Y-436573867D01*
X683365477Y-436573867D02*
X683365477Y-436335772D01*
X683365477Y-436335772D02*
X683413096Y-436145296D01*
X683413096Y-436145296D02*
X683460715Y-436050058D01*
X683460715Y-436050058D02*
X683508334Y-436002439D01*
X683508334Y-436002439D02*
X683603572Y-435954820D01*
X697325057Y-454621431D02*
X697277438Y-454716669D01*
X697277438Y-454716669D02*
X697182200Y-454811907D01*
X697182200Y-454811907D02*
X697039342Y-454954764D01*
X697039342Y-454954764D02*
X696991723Y-455050002D01*
X696991723Y-455050002D02*
X696991723Y-455145240D01*
X697229819Y-455097621D02*
X697182200Y-455192859D01*
X697182200Y-455192859D02*
X697086961Y-455288097D01*
X697086961Y-455288097D02*
X696896485Y-455335716D01*
X696896485Y-455335716D02*
X696563152Y-455335716D01*
X696563152Y-455335716D02*
X696372676Y-455288097D01*
X696372676Y-455288097D02*
X696277438Y-455192859D01*
X696277438Y-455192859D02*
X696229819Y-455097621D01*
X696229819Y-455097621D02*
X696229819Y-454907145D01*
X696229819Y-454907145D02*
X696277438Y-454811907D01*
X696277438Y-454811907D02*
X696372676Y-454716669D01*
X696372676Y-454716669D02*
X696563152Y-454669050D01*
X696563152Y-454669050D02*
X696896485Y-454669050D01*
X696896485Y-454669050D02*
X697086961Y-454716669D01*
X697086961Y-454716669D02*
X697182200Y-454811907D01*
X697182200Y-454811907D02*
X697229819Y-454907145D01*
X697229819Y-454907145D02*
X697229819Y-455097621D01*
X697229819Y-453716669D02*
X697229819Y-454288097D01*
X697229819Y-454002383D02*
X696229819Y-454002383D01*
X696229819Y-454002383D02*
X696372676Y-454097621D01*
X696372676Y-454097621D02*
X696467914Y-454192859D01*
X696467914Y-454192859D02*
X696515533Y-454288097D01*
X697229819Y-452764288D02*
X697229819Y-453335716D01*
X697229819Y-453050002D02*
X696229819Y-453050002D01*
X696229819Y-453050002D02*
X696372676Y-453145240D01*
X696372676Y-453145240D02*
X696467914Y-453240478D01*
X696467914Y-453240478D02*
X696515533Y-453335716D01*
X720241905Y-450164819D02*
X720241905Y-449164819D01*
X720241905Y-449164819D02*
X720480000Y-449164819D01*
X720480000Y-449164819D02*
X720622857Y-449212438D01*
X720622857Y-449212438D02*
X720718095Y-449307676D01*
X720718095Y-449307676D02*
X720765714Y-449402914D01*
X720765714Y-449402914D02*
X720813333Y-449593390D01*
X720813333Y-449593390D02*
X720813333Y-449736247D01*
X720813333Y-449736247D02*
X720765714Y-449926723D01*
X720765714Y-449926723D02*
X720718095Y-450021961D01*
X720718095Y-450021961D02*
X720622857Y-450117200D01*
X720622857Y-450117200D02*
X720480000Y-450164819D01*
X720480000Y-450164819D02*
X720241905Y-450164819D01*
X721146667Y-449164819D02*
X721765714Y-449164819D01*
X721765714Y-449164819D02*
X721432381Y-449545771D01*
X721432381Y-449545771D02*
X721575238Y-449545771D01*
X721575238Y-449545771D02*
X721670476Y-449593390D01*
X721670476Y-449593390D02*
X721718095Y-449641009D01*
X721718095Y-449641009D02*
X721765714Y-449736247D01*
X721765714Y-449736247D02*
X721765714Y-449974342D01*
X721765714Y-449974342D02*
X721718095Y-450069580D01*
X721718095Y-450069580D02*
X721670476Y-450117200D01*
X721670476Y-450117200D02*
X721575238Y-450164819D01*
X721575238Y-450164819D02*
X721289524Y-450164819D01*
X721289524Y-450164819D02*
X721194286Y-450117200D01*
X721194286Y-450117200D02*
X721146667Y-450069580D01*
X704185057Y-449121431D02*
X704137438Y-449216669D01*
X704137438Y-449216669D02*
X704042200Y-449311907D01*
X704042200Y-449311907D02*
X703899342Y-449454764D01*
X703899342Y-449454764D02*
X703851723Y-449550002D01*
X703851723Y-449550002D02*
X703851723Y-449645240D01*
X704089819Y-449597621D02*
X704042200Y-449692859D01*
X704042200Y-449692859D02*
X703946961Y-449788097D01*
X703946961Y-449788097D02*
X703756485Y-449835716D01*
X703756485Y-449835716D02*
X703423152Y-449835716D01*
X703423152Y-449835716D02*
X703232676Y-449788097D01*
X703232676Y-449788097D02*
X703137438Y-449692859D01*
X703137438Y-449692859D02*
X703089819Y-449597621D01*
X703089819Y-449597621D02*
X703089819Y-449407145D01*
X703089819Y-449407145D02*
X703137438Y-449311907D01*
X703137438Y-449311907D02*
X703232676Y-449216669D01*
X703232676Y-449216669D02*
X703423152Y-449169050D01*
X703423152Y-449169050D02*
X703756485Y-449169050D01*
X703756485Y-449169050D02*
X703946961Y-449216669D01*
X703946961Y-449216669D02*
X704042200Y-449311907D01*
X704042200Y-449311907D02*
X704089819Y-449407145D01*
X704089819Y-449407145D02*
X704089819Y-449597621D01*
X704089819Y-448216669D02*
X704089819Y-448788097D01*
X704089819Y-448502383D02*
X703089819Y-448502383D01*
X703089819Y-448502383D02*
X703232676Y-448597621D01*
X703232676Y-448597621D02*
X703327914Y-448692859D01*
X703327914Y-448692859D02*
X703375533Y-448788097D01*
X703185057Y-447835716D02*
X703137438Y-447788097D01*
X703137438Y-447788097D02*
X703089819Y-447692859D01*
X703089819Y-447692859D02*
X703089819Y-447454764D01*
X703089819Y-447454764D02*
X703137438Y-447359526D01*
X703137438Y-447359526D02*
X703185057Y-447311907D01*
X703185057Y-447311907D02*
X703280295Y-447264288D01*
X703280295Y-447264288D02*
X703375533Y-447264288D01*
X703375533Y-447264288D02*
X703518390Y-447311907D01*
X703518390Y-447311907D02*
X704089819Y-447883335D01*
X704089819Y-447883335D02*
X704089819Y-447264288D01*
D13*
X702185000Y-450370000D02*
X702185000Y-446770000D01*
X697735000Y-448570000D02*
G75*
G03*
X702173478Y-450408478I2600000J0D01*
G01*
X702173478Y-446731522D02*
G75*
G03*
X697735000Y-448570000I-1838478J-1838478D01*
G01*
X666000000Y-436000000D02*
X666000000Y-437500000D01*
X667250000Y-440000000D02*
X671750000Y-440000000D01*
X671750000Y-433500000D02*
X667250000Y-433500000D01*
X673000000Y-437500000D02*
X673000000Y-436000000D01*
X700335000Y-435260000D02*
X700335000Y-436030000D01*
X701705000Y-436030000D02*
X698965000Y-436030000D01*
X698965000Y-436030000D02*
X698965000Y-442570000D01*
X701705000Y-442570000D02*
X701705000Y-436030000D01*
X698965000Y-442570000D02*
X701705000Y-442570000D01*
X700335000Y-443340000D02*
X700335000Y-442570000D01*
X665500000Y-453000000D02*
X665500000Y-454500000D01*
X666750000Y-457000000D02*
X671250000Y-457000000D01*
X671250000Y-450500000D02*
X666750000Y-450500000D01*
X672500000Y-454500000D02*
X672500000Y-453000000D01*
X680885001Y-451250000D02*
X681655001Y-451250000D01*
X681655001Y-449880000D02*
X681655001Y-452620000D01*
X681655001Y-452620000D02*
X688195001Y-452620000D01*
X688195001Y-449880000D02*
X681655001Y-449880000D01*
X688195001Y-452620000D02*
X688195001Y-449880000D01*
X688965001Y-451250000D02*
X688195001Y-451250000D01*
X726710000Y-446000000D02*
X727480000Y-446000000D01*
X727480000Y-444630000D02*
X727480000Y-447370000D01*
X727480000Y-447370000D02*
X734020000Y-447370000D01*
X734020000Y-444630000D02*
X727480000Y-444630000D01*
X734020000Y-447370000D02*
X734020000Y-444630000D01*
X734790000Y-446000000D02*
X734020000Y-446000000D01*
X680885001Y-438750001D02*
X681655001Y-438750001D01*
X681655001Y-437380001D02*
X681655001Y-440120001D01*
X681655001Y-440120001D02*
X688195001Y-440120001D01*
X688195001Y-437380001D02*
X681655001Y-437380001D01*
X688195001Y-440120001D02*
X688195001Y-437380001D01*
X688965001Y-438750001D02*
X688195001Y-438750001D01*
X702185000Y-455850000D02*
X702185000Y-452250000D01*
X697735000Y-454050000D02*
G75*
G03*
X702173478Y-455888478I2600000J0D01*
G01*
X702173478Y-452211522D02*
G75*
G03*
X697735000Y-454050000I-1838478J-1838478D01*
G01*
X723540000Y-447295000D02*
X723540000Y-444205000D01*
X717990001Y-445749538D02*
G75*
G03*
X723539999Y-447294830I2989999J-462D01*
G01*
X723540000Y-444205170D02*
G75*
G03*
X717990000Y-445750462I-2560000J-1544830D01*
G01*
X723480000Y-445750000D02*
G75*
G03*
X723480000Y-445750000I-2500000J0D01*
G01*
X709045000Y-450350000D02*
X709045000Y-446750000D01*
X704595000Y-448550000D02*
G75*
G03*
X709033478Y-450388478I2600000J0D01*
G01*
X709033478Y-446711522D02*
G75*
G03*
X704595000Y-448550000I-1838478J-1838478D01*
G01*
%LPC*%
D14*
X700335000Y-449840000D03*
D15*
X700335000Y-448570000D03*
X700335000Y-447300000D03*
D16*
X666250000Y-434500000D03*
X672750000Y-434500000D03*
X666250000Y-439000000D03*
X672750000Y-439000000D03*
D17*
X700335000Y-434220000D03*
D18*
X700335000Y-444380000D03*
D16*
X665750000Y-451500000D03*
X672250000Y-451500000D03*
X665750000Y-456000000D03*
X672250000Y-456000000D03*
D17*
X679845001Y-451250000D03*
D18*
X690005001Y-451250000D03*
D17*
X725670000Y-446000000D03*
D18*
X735830000Y-446000000D03*
D17*
X679845001Y-438750001D03*
D18*
X690005001Y-438750001D03*
D14*
X700335000Y-455320000D03*
D15*
X700335000Y-454050000D03*
X700335000Y-452780000D03*
D19*
X722250000Y-445750000D03*
D20*
X719710000Y-445750000D03*
D14*
X707195000Y-449820000D03*
D15*
X707195000Y-448550000D03*
X707195000Y-447280000D03*
%LPD*%
M02*
