G04 #@! TF.GenerationSoftware,KiCad,Pcbnew,7.0.8*
G04 #@! TF.CreationDate,2023-12-22T21:17:41-07:00*
G04 #@! TF.ProjectId,Sandbox,53616e64-626f-4782-9e6b-696361645f70,rev?*
G04 #@! TF.SameCoordinates,Original*
G04 #@! TF.FileFunction,Soldermask,Bot*
G04 #@! TF.FilePolarity,Negative*
%FSLAX46Y46*%
G04 Gerber Fmt 4.6, Leading zero omitted, Abs format (unit mm)*
G04 Created by KiCad (PCBNEW 7.0.8) date 2023-12-22 21:17:41*
%MOMM*%
%LPD*%
G01*
G04 APERTURE LIST*
%ADD10R,1.700000X1.700000*%
%ADD11O,1.700000X1.700000*%
%ADD12O,1.600000X1.600000*%
%ADD13C,1.600000*%
%ADD14O,1.500000X1.050000*%
%ADD15R,1.500000X1.050000*%
%ADD16C,1.800000*%
%ADD17R,1.800000X1.800000*%
%ADD18C,2.000000*%
G04 APERTURE END LIST*
D10*
X335000000Y-372250000D03*
D11*
X337540000Y-372250000D03*
D12*
X405745001Y-472950005D03*
D13*
X395585001Y-472950005D03*
D12*
X416075000Y-478580001D03*
D13*
X416075000Y-468420001D03*
D12*
X405745001Y-485450000D03*
D13*
X395585001Y-485450000D03*
D14*
X416075000Y-486980000D03*
X416075000Y-488250000D03*
D15*
X416075000Y-489520000D03*
D14*
X422935000Y-481480000D03*
X422935000Y-482750000D03*
D15*
X422935000Y-484020000D03*
D14*
X416075000Y-481500000D03*
X416075000Y-482770000D03*
D15*
X416075000Y-484040000D03*
D12*
X522000000Y-477750001D03*
D13*
X522000000Y-467590001D03*
D12*
X511670001Y-484620000D03*
D13*
X501510001Y-484620000D03*
D12*
X511670001Y-472120005D03*
D13*
X501510001Y-472120005D03*
D14*
X528860000Y-480650000D03*
X528860000Y-481920000D03*
D15*
X528860000Y-483190000D03*
D14*
X522000000Y-486150000D03*
X522000000Y-487420000D03*
D15*
X522000000Y-488690000D03*
D14*
X522000000Y-480670000D03*
X522000000Y-481940000D03*
D15*
X522000000Y-483210000D03*
D13*
X394445000Y-435450001D03*
D12*
X394445000Y-445610001D03*
D13*
X373955001Y-452480000D03*
D12*
X384115001Y-452480000D03*
D13*
X373955001Y-439980004D03*
D12*
X384115001Y-439980004D03*
D13*
X438055000Y-434620001D03*
D12*
X438055000Y-444780001D03*
D13*
X417565001Y-451650000D03*
D12*
X427725001Y-451650000D03*
D13*
X417565001Y-439150004D03*
D12*
X427725001Y-439150004D03*
D13*
X440555000Y-397950001D03*
D12*
X440555000Y-408110001D03*
D13*
X420065001Y-414980001D03*
D12*
X430225001Y-414980001D03*
D13*
X420065001Y-402480004D03*
D12*
X430225001Y-402480004D03*
D13*
X509140000Y-433750000D03*
D12*
X509140000Y-443910000D03*
D13*
X488650001Y-450780000D03*
D12*
X498810001Y-450780000D03*
D13*
X488650001Y-438280002D03*
D12*
X498810001Y-438280002D03*
D13*
X496805000Y-398450000D03*
D12*
X496805000Y-408610000D03*
D13*
X476315000Y-415480000D03*
D12*
X486475000Y-415480000D03*
D13*
X476315000Y-402980001D03*
D12*
X486475000Y-402980001D03*
D15*
X401305000Y-451050000D03*
D14*
X401305000Y-449780000D03*
X401305000Y-448510000D03*
D15*
X394445000Y-456550000D03*
D14*
X394445000Y-455280000D03*
X394445000Y-454010000D03*
D15*
X394445000Y-451070000D03*
D14*
X394445000Y-449800000D03*
X394445000Y-448530000D03*
D15*
X444915000Y-450220000D03*
D14*
X444915000Y-448950000D03*
X444915000Y-447680000D03*
D15*
X438055000Y-455720000D03*
D14*
X438055000Y-454450000D03*
X438055000Y-453180000D03*
D15*
X438055000Y-450240000D03*
D14*
X438055000Y-448970000D03*
X438055000Y-447700000D03*
D15*
X447415000Y-413550001D03*
D14*
X447415000Y-412280001D03*
X447415000Y-411010001D03*
D15*
X440555000Y-419050001D03*
D14*
X440555000Y-417780001D03*
X440555000Y-416510001D03*
D15*
X440555000Y-413570001D03*
D14*
X440555000Y-412300001D03*
X440555000Y-411030001D03*
D15*
X516000000Y-449350000D03*
D14*
X516000000Y-448080000D03*
X516000000Y-446810000D03*
D15*
X509140000Y-454850000D03*
D14*
X509140000Y-453580000D03*
X509140000Y-452310000D03*
D15*
X509140000Y-449370000D03*
D14*
X509140000Y-448100000D03*
X509140000Y-446830000D03*
D15*
X503665000Y-414050000D03*
D14*
X503665000Y-412780000D03*
X503665000Y-411510000D03*
D15*
X496805000Y-419550000D03*
D14*
X496805000Y-418280000D03*
X496805000Y-417010000D03*
D15*
X496805000Y-414070000D03*
D14*
X496805000Y-412800000D03*
X496805000Y-411530000D03*
D13*
X585640000Y-435920000D03*
D12*
X585640000Y-446080000D03*
D13*
X565150001Y-452950000D03*
D12*
X575310001Y-452950000D03*
D13*
X565150001Y-440450003D03*
D12*
X575310001Y-440450003D03*
D13*
X629250000Y-435090000D03*
D12*
X629250000Y-445250000D03*
D13*
X608760001Y-452120000D03*
D12*
X618920001Y-452120000D03*
D13*
X608760001Y-439620003D03*
D12*
X618920001Y-439620003D03*
D13*
X631750000Y-398420000D03*
D12*
X631750000Y-408580000D03*
D13*
X611260001Y-415450000D03*
D12*
X621420001Y-415450000D03*
D13*
X611260001Y-402950003D03*
D12*
X621420001Y-402950003D03*
D15*
X592500000Y-451520000D03*
D14*
X592500000Y-450250000D03*
X592500000Y-448980000D03*
D15*
X585640000Y-457020000D03*
D14*
X585640000Y-455750000D03*
X585640000Y-454480000D03*
D15*
X585640000Y-451540000D03*
D14*
X585640000Y-450270000D03*
X585640000Y-449000000D03*
D15*
X636110000Y-450690000D03*
D14*
X636110000Y-449420000D03*
X636110000Y-448150000D03*
D15*
X629250000Y-456190000D03*
D14*
X629250000Y-454920000D03*
X629250000Y-453650000D03*
D15*
X629250000Y-450710000D03*
D14*
X629250000Y-449440000D03*
X629250000Y-448170000D03*
D15*
X638610000Y-414020000D03*
D14*
X638610000Y-412750000D03*
X638610000Y-411480000D03*
D15*
X631750000Y-419520000D03*
D14*
X631750000Y-418250000D03*
X631750000Y-416980000D03*
D15*
X631750000Y-414040000D03*
D14*
X631750000Y-412770000D03*
X631750000Y-411500000D03*
D13*
X700335000Y-434220000D03*
D12*
X700335000Y-444380000D03*
D13*
X679845001Y-451250000D03*
D12*
X690005001Y-451250000D03*
D13*
X679845001Y-438750001D03*
D12*
X690005001Y-438750001D03*
D13*
X688000000Y-398920000D03*
D12*
X688000000Y-409080000D03*
D13*
X667510000Y-415950000D03*
D12*
X677670000Y-415950000D03*
D13*
X667510000Y-403450001D03*
D12*
X677670000Y-403450001D03*
D15*
X707195000Y-449820000D03*
D14*
X707195000Y-448550000D03*
X707195000Y-447280000D03*
D15*
X700335000Y-455320000D03*
D14*
X700335000Y-454050000D03*
X700335000Y-452780000D03*
D15*
X700335000Y-449840000D03*
D14*
X700335000Y-448570000D03*
X700335000Y-447300000D03*
D15*
X694860000Y-414520000D03*
D14*
X694860000Y-413250000D03*
X694860000Y-411980000D03*
D15*
X688000000Y-420020000D03*
D14*
X688000000Y-418750000D03*
X688000000Y-417480000D03*
D15*
X688000000Y-414540000D03*
D14*
X688000000Y-413270000D03*
X688000000Y-412000000D03*
D16*
X733235000Y-446250000D03*
D17*
X735775000Y-446250000D03*
D12*
X734000000Y-394420000D03*
D13*
X734000000Y-404580000D03*
D16*
X734000000Y-411000000D03*
D17*
X734000000Y-408460000D03*
D18*
X319500000Y-410750000D03*
X319500000Y-417250000D03*
X315000000Y-410750000D03*
X315000000Y-417250000D03*
D12*
X736000000Y-429670000D03*
D13*
X736000000Y-439830000D03*
D18*
X321250000Y-478000000D03*
X321250000Y-484500000D03*
X316750000Y-478000000D03*
X316750000Y-484500000D03*
M02*
