M48
; DRILL file {KiCad 7.0.8} date Fri Dec 22 21:50:37 2023
; FORMAT={-:-/ absolute / metric / decimal}
; #@! TF.CreationDate,2023-12-22T21:50:37-07:00
; #@! TF.GenerationSoftware,Kicad,Pcbnew,7.0.8
; #@! TF.FileFunction,Plated,1,2,PTH
FMAT,2
METRIC
; #@! TA.AperFunction,Plated,PTH,ViaDrill
T1C0.400
; #@! TA.AperFunction,Plated,PTH,ComponentDrill
T2C0.750
; #@! TA.AperFunction,Plated,PTH,ComponentDrill
T3C0.800
; #@! TA.AperFunction,Plated,PTH,ComponentDrill
T4C0.900
; #@! TA.AperFunction,Plated,PTH,ComponentDrill
T5C1.100
%
G90
G05
T1
X716.0Y-446.0
T2
X700.335Y-447.3
X700.335Y-448.57
X700.335Y-449.84
X700.335Y-452.78
X700.335Y-454.05
X700.335Y-455.32
X707.195Y-447.28
X707.195Y-448.55
X707.195Y-449.82
T3
X679.845Y-438.75
X679.845Y-451.25
X690.005Y-438.75
X690.005Y-451.25
X700.335Y-434.22
X700.335Y-444.38
X725.67Y-446.0
X735.83Y-446.0
T4
X719.71Y-445.75
X722.25Y-445.75
T5
X665.75Y-451.5
X665.75Y-456.0
X666.25Y-434.5
X666.25Y-439.0
X672.25Y-451.5
X672.25Y-456.0
X672.75Y-434.5
X672.75Y-439.0
T0
M30
